<?xml version="1.0" encoding="UTF-8" standalone="no"?>
<svg
   xmlns:dc="http://purl.org/dc/elements/1.1/"
   xmlns:cc="http://creativecommons.org/ns#"
   xmlns:rdf="http://www.w3.org/1999/02/22-rdf-syntax-ns#"
   xmlns:svg="http://www.w3.org/2000/svg"
   xmlns="http://www.w3.org/2000/svg"
   xmlns:xlink="http://www.w3.org/1999/xlink"
   xmlns:sodipodi="http://sodipodi.sourceforge.net/DTD/sodipodi-0.dtd"
   xmlns:inkscape="http://www.inkscape.org/namespaces/inkscape"
   width="80"
   height="80"
   viewBox="0 0 80 80"
   version="1.1"
   id="svg35"
   sodipodi:docname="hybris-integration-icon-80.svg"
   inkscape:version="0.92.4 (5da689c313, 2019-01-14)">
  <metadata
     id="metadata39">
    <rdf:RDF>
      <cc:Work
         rdf:about="">
        <dc:format>image/svg+xml</dc:format>
        <dc:type
           rdf:resource="http://purl.org/dc/dcmitype/StillImage" />
      </cc:Work>
    </rdf:RDF>
  </metadata>
  <sodipodi:namedview
     pagecolor="#ffffff"
     bordercolor="#666666"
     borderopacity="1"
     objecttolerance="10"
     gridtolerance="10"
     guidetolerance="10"
     inkscape:pageopacity="0"
     inkscape:pageshadow="2"
     inkscape:window-width="3840"
     inkscape:window-height="2029"
     id="namedview37"
     showgrid="true"
     inkscape:zoom="11.175"
     inkscape:cx="8.6011236"
     inkscape:cy="53.069703"
     inkscape:window-x="0"
     inkscape:window-y="0"
     inkscape:window-maximized="1"
     inkscape:current-layer="svg35"
     inkscape:snap-grids="true"
     inkscape:snap-to-guides="true"
     inkscape:snap-nodes="false"
     inkscape:snap-others="false"
     inkscape:snap-global="false">
    <inkscape:grid
       type="xygrid"
       id="grid24" />
  </sodipodi:namedview>
  <defs
     id="defs15">
    <linearGradient
       id="a"
       data-name="New Gradient Swatch 25"
       x1="21.8"
       y1="52.97"
       x2="51.8"
       y2="22.97"
       gradientUnits="userSpaceOnUse">
      <stop
         offset="0"
         stop-color="#ff6131"
         id="stop2" />
      <stop
         offset="1"
         stop-color="#feb101"
         id="stop4" />
    </linearGradient>
    <linearGradient
       id="b"
       x1="29.35"
       y1="60.51"
       x2="59.34"
       y2="30.52"
       xlink:href="#a"
       gradientTransform="translate(-9.9,-13)" />
    <linearGradient
       id="c"
       x1="39.28"
       y1="70.44"
       x2="69.27"
       y2="40.45"
       xlink:href="#a"
       gradientTransform="translate(-9.9,-13)" />
    <linearGradient
       id="d"
       data-name="New Gradient Swatch 21"
       x1="65.33"
       y1="60.45"
       x2="65.33"
       y2="16.04"
       gradientUnits="userSpaceOnUse">
      <stop
         offset="0"
         stop-color="#172ab4"
         id="stop9" />
      <stop
         offset="1"
         stop-color="#01caff"
         id="stop11" />
    </linearGradient>
    <linearGradient
       id="e"
       x1="14.67"
       y1="60.45"
       x2="14.67"
       y2="16.04"
       xlink:href="#d"
       gradientTransform="translate(-9.9,-13)" />
    <linearGradient
       inkscape:collect="always"
       xlink:href="#a"
       id="linearGradient53"
       gradientUnits="userSpaceOnUse"
       x1="21.8"
       y1="52.97"
       x2="51.8"
       y2="22.97"
       gradientTransform="translate(-9.9,-13)" />
    <linearGradient
       inkscape:collect="always"
       xlink:href="#d"
       id="linearGradient55"
       gradientUnits="userSpaceOnUse"
       x1="65.33"
       y1="60.45"
       x2="65.33"
       y2="16.04"
       gradientTransform="translate(-9.9,-13)" />
  </defs>
  <title
     id="title17">80 B</title>
  <rect
     style="fill:none"
     y="0"
     x="0"
     id="rect19"
     ry="15.4"
     rx="15.4"
     height="80"
     width="80" />
  <g
     id="g74"
     transform="matrix(1.3333333,0,0,1.3333333,-0.16203972,4.1032572)">
    <path
       d="M 46.9,16 H 17 A 0.7,0.7 0 0 1 16.4,15.6 L 15.8,13.1 A 1.9,1.9 0 0 0 14.3,11.7 L 10.5,11 a 1.9,1.9 0 1 0 -0.7,3.7 l 2,0.4 a 0.8,0.8 0 0 1 0.7,0.7 L 15,26 v 0 l 2.8,11.5 a 3,3 0 0 0 2.8,2.3 h 21.9 a 2.9,2.9 0 0 0 2.8,-2.3 L 49.7,19.6 A 2.9,2.9 0 0 0 46.9,16 Z"
       id="path21"
       style="fill:url(#linearGradient53)"
       inkscape:connector-curvature="0" />
    <circle
       r="3.3"
       cx="21.800001"
       cy="45.200001"
       id="circle23"
       style="fill:url(#b)" />
    <circle
       r="3.3"
       cx="41.599998"
       cy="45.200001"
       id="circle25"
       style="fill:url(#c)" />
    <g
       transform="translate(-9.9,-13)"
       aria-label="JB"
       style="font-size:17.75px;font-family:NexaBold, 'Nexa Bold';fill:#ffffff"
       id="text27">
      <path
         d="m 35.599693,32.70425 h 1.750733 v 12.038452 q 0,2.340088 -0.8927,3.397461 -0.884034,1.057373 -2.851441,1.057373 h -0.667358 v -1.473388 h 0.54602 q 1.161377,0 1.638062,-0.650025 0.476684,-0.650024 0.476684,-2.331421 z"
         style="font-size:17.75px;font-family:NexaBold, 'Nexa Bold';fill:#ffffff"
         id="path48"
         inkscape:connector-curvature="0" />
      <path
         d="m 42.585289,39.464504 v 4.740845 h 2.808105 q 1.41272,0 2.088746,-0.580689 0.684692,-0.589355 0.684692,-1.794067 0,-1.213379 -0.684692,-1.7854 -0.676026,-0.580689 -2.088746,-0.580689 z m 0,-5.321533 v 3.900147 h 2.591431 q 1.282715,0 1.906738,-0.476685 0.63269,-0.485352 0.63269,-1.473389 0,-0.97937 -0.63269,-1.464721 -0.624023,-0.485352 -1.906738,-0.485352 z M 40.834557,32.70425 h 4.472168 q 2.002075,0 3.085449,0.832032 1.083374,0.832031 1.083374,2.366088 0,1.187378 -0.554688,1.889405 -0.554687,0.702026 -1.629394,0.875366 1.291382,0.277344 2.002075,1.161377 0.71936,0.875366 0.71936,2.192749 0,1.733398 -1.178711,2.678101 -1.178711,0.944702 -3.354126,0.944702 h -4.645507 z"
         style="font-size:17.75px;font-family:NexaBold, 'Nexa Bold';fill:#ffffff"
         id="path50"
         inkscape:connector-curvature="0" />
    </g>
    <path
       d="M 57.3,23.3 V 8.8 a 5.1,5.1 0 0 0 -5.1,-5 h -0.4 a 0.6,0.6 0 0 0 -0.6,0.6 v 1.4 a 0.5,0.5 0 0 0 0.6,0.6 h 0.4 a 2.5,2.5 0 0 1 2.5,2.4 v 14.5 a 4.9,4.9 0 0 0 1.6,3.7 4.9,4.9 0 0 0 -1.6,3.7 v 14.5 a 2.5,2.5 0 0 1 -2.5,2.4 h -0.4 a 0.5,0.5 0 0 0 -0.6,0.6 v 1.4 a 0.6,0.6 0 0 0 0.6,0.6 h 0.4 a 5.1,5.1 0 0 0 5.1,-5 V 30.7 a 2.3,2.3 0 0 1 1.9,-2.3 0.6,0.6 0 0 0 0.5,-0.6 v -1.6 a 0.6,0.6 0 0 0 -0.5,-0.6 2.3,2.3 0 0 1 -1.9,-2.3 z"
       id="path29"
       style="fill:url(#linearGradient55)"
       inkscape:connector-curvature="0" />
    <path
       d="M 2.9,23.3 V 8.8 A 5.1,5.1 0 0 1 8,3.8 H 8.4 A 0.6,0.6 0 0 1 9,4.4 V 5.8 A 0.5,0.5 0 0 1 8.4,6.4 H 8 A 2.5,2.5 0 0 0 5.5,8.8 V 23.3 A 4.9,4.9 0 0 1 3.9,27 4.9,4.9 0 0 1 5.5,30.7 V 45.2 A 2.5,2.5 0 0 0 8,47.6 H 8.4 A 0.5,0.5 0 0 1 9,48.2 v 1.4 A 0.6,0.6 0 0 1 8.4,50.2 H 8 a 5.1,5.1 0 0 1 -5.1,-5 V 30.7 A 2.3,2.3 0 0 0 1,28.4 0.6,0.6 0 0 1 0.5,27.8 V 26.2 A 0.6,0.6 0 0 1 1,25.6 2.3,2.3 0 0 0 2.9,23.3 Z"
       id="path31"
       style="fill:url(#e)"
       inkscape:connector-curvature="0" />
  </g>
</svg>
