<?xml version="1.0" encoding="UTF-8"?>
<svg xmlns="http://www.w3.org/2000/svg" width="40px" height="40px" viewBox="0 0 40 40" version="1.1">
    <g id="surface1">
        <path style=" stroke:none;fill-rule:nonzero;fill:rgb(100%,75.294118%,13.333333%);fill-opacity:1;"
              d="M 35.835938 21.933594 C 35.222656 13.820312 29.511719 8.21875 20 8.21875 C 10.488281 8.21875 4.765625 14.164062 4.203125 22.285156 C 3.875 27.015625 5.632812 31.230469 9.175781 33.632812 C 11.507812 35.21875 14.761719 36.097656 20.039062 36.097656 C 25.410156 36.097656 28.488281 34.9375 30.820312 33.367188 C 34.703125 30.757812 36.1875 26.597656 35.835938 21.933594 Z M 35.835938 21.933594 "/>
        <path style=" stroke:none;fill-rule:nonzero;fill:rgb(100%,75.294118%,13.333333%);fill-opacity:1;"
              d="M 16.789062 13.3125 C 14.46875 7.3125 9.40625 3.230469 7.460938 2.621094 C 6.726562 2.390625 5.804688 2.367188 5.386719 3.042969 C 4.335938 4.746094 2.992188 10.214844 5.964844 17.976562 Z M 16.789062 13.3125 "/>
        <path style=" stroke:none;fill-rule:nonzero;fill:rgb(100%,81.960784%,81.960784%);fill-opacity:1;"
              d="M 11.289062 10.691406 C 11.769531 10.289062 12.003906 9.894531 11.476562 9.078125 C 10.65625 7.8125 9.183594 6.335938 8.613281 5.882812 C 7.675781 5.136719 6.949219 4.886719 6.671875 6.085938 C 6.15625 8.296875 6.195312 11.300781 6.75 12.957031 C 6.945312 13.539062 7.542969 13.851562 8.007812 13.445312 Z M 11.289062 10.691406 "/>
        <path style=" stroke:none;fill-rule:nonzero;fill:rgb(100%,60.784314%,19.215686%);fill-opacity:1;"
              d="M 16.914062 14.070312 C 17.265625 14.367188 17.980469 14.324219 18.398438 13.84375 C 18.898438 13.257812 19.425781 11.289062 19.097656 8.246094 C 17.636719 8.300781 16.257812 8.507812 14.96875 8.863281 C 16.007812 10.570312 16.257812 13.511719 16.914062 14.070312 Z M 16.914062 14.070312 "/>
        <path style=" stroke:none;fill-rule:nonzero;fill:rgb(100%,60.784314%,19.215686%);fill-opacity:1;"
              d="M 23.085938 14.070312 C 22.734375 14.367188 22.019531 14.324219 21.601562 13.84375 C 21.101562 13.257812 20.574219 11.289062 20.902344 8.246094 C 22.363281 8.300781 23.742188 8.507812 25.03125 8.863281 C 23.992188 10.570312 23.742188 13.511719 23.085938 14.070312 Z M 23.085938 14.070312 "/>
        <path style=" stroke:none;fill-rule:nonzero;fill:rgb(100%,75.294118%,13.333333%);fill-opacity:1;"
              d="M 24.96875 9.132812 C 27.492188 5.253906 31.023438 2.648438 32.492188 2.179688 C 33.214844 1.949219 34.058594 1.988281 34.472656 2.664062 C 35.507812 4.367188 36.386719 9.617188 34.339844 16.960938 L 26.863281 13.355469 Z M 24.96875 9.132812 "/>
        <path style=" stroke:none;fill-rule:nonzero;fill:rgb(100%,81.960784%,81.960784%);fill-opacity:1;"
              d="M 30.484375 11.945312 C 31.242188 12.707031 31.863281 13.214844 32.308594 13.699219 C 32.605469 14.023438 33.148438 13.875 33.238281 13.445312 C 34.003906 9.757812 33.757812 6.613281 33.238281 5.789062 C 32.988281 5.394531 32.523438 5.289062 32.097656 5.433594 C 31.335938 5.6875 29.390625 7.136719 28.019531 9.253906 C 27.859375 9.5 27.917969 9.832031 28.164062 9.996094 C 28.65625 10.332031 29.519531 10.976562 30.484375 11.945312 Z M 30.484375 11.945312 "/>
        <path style=" stroke:none;fill-rule:nonzero;fill:rgb(0%,0%,0%);fill-opacity:1;"
              d="M 17.398438 24.296875 C 17.382812 23.335938 18.761719 22.875 20.066406 22.851562 C 21.371094 22.832031 22.777344 23.257812 22.792969 24.21875 C 22.808594 25.179688 21.164062 26.445312 20.125 26.445312 C 19.089844 26.445312 17.414062 25.257812 17.398438 24.296875 Z M 17.398438 24.296875 "/>
        <path style="fill:none;stroke-width:3;stroke-linecap:round;stroke-linejoin:miter;stroke:rgb(61.960784%,61.960784%,61.960784%);stroke-opacity:1;stroke-miterlimit:10;"
              d="M 6.7 71.025 C 7.0375 71.4375 11.1125 71.375 21.0625 76.1 " transform="matrix(0.3125,0,0,0.3125,0,0)"/>
        <path style="fill:none;stroke-width:3;stroke-linecap:round;stroke-linejoin:miter;stroke:rgb(61.960784%,61.960784%,61.960784%);stroke-opacity:1;stroke-miterlimit:10;"
              d="M 2.9 82.8625 C 2.9 82.8625 9.325 80.625 20.3625 82.575 " transform="matrix(0.3125,0,0,0.3125,0,0)"/>
        <path style="fill:none;stroke-width:3;stroke-linecap:round;stroke-linejoin:miter;stroke:rgb(61.960784%,61.960784%,61.960784%);stroke-opacity:1;stroke-miterlimit:10;"
              d="M 8.8125 92.2875 C 8.8125 92.2875 11.55 90.9125 21.475 90.0375 "
              transform="matrix(0.3125,0,0,0.3125,0,0)"/>
        <path style="fill:none;stroke-width:3;stroke-linecap:round;stroke-linejoin:miter;stroke:rgb(61.960784%,61.960784%,61.960784%);stroke-opacity:1;stroke-miterlimit:10;"
              d="M 120.875 67.5125 C 120.875 67.5125 117.4625 67.8375 106.925 73.85 "
              transform="matrix(0.3125,0,0,0.3125,0,0)"/>
        <path style="fill:none;stroke-width:3;stroke-linecap:round;stroke-linejoin:miter;stroke:rgb(61.960784%,61.960784%,61.960784%);stroke-opacity:1;stroke-miterlimit:10;"
              d="M 122.425 78.4875 C 122.425 78.4875 117.325 78.125 106.375 80.4625 "
              transform="matrix(0.3125,0,0,0.3125,0,0)"/>
        <path style="fill:none;stroke-width:3;stroke-linecap:round;stroke-linejoin:miter;stroke:rgb(61.960784%,61.960784%,61.960784%);stroke-opacity:1;stroke-miterlimit:10;"
              d="M 120.45 89.05 C 120.45 89.05 115.625 87.3375 105.675 86.8 "
              transform="matrix(0.3125,0,0,0.3125,0,0)"/>
        <path style=" stroke:none;fill-rule:nonzero;fill:rgb(0%,0.784314%,0%);fill-opacity:1;"
              d="M 30.027344 20.742188 C 29.921875 22.460938 28.851562 23.410156 27.636719 23.410156 C 26.421875 23.410156 25.4375 22.195312 25.4375 20.703125 C 25.4375 19.210938 26.460938 17.980469 27.828125 18.054688 C 29.414062 18.148438 30.117188 19.335938 30.027344 20.742188 Z M 30.027344 20.742188 "/>
        <path style=" stroke:none;fill-rule:nonzero;fill:rgb(0%,0.784314%,0%);fill-opacity:1;"
              d="M 14.375 20.566406 C 14.617188 22.320312 13.882812 23.386719 12.660156 23.632812 C 11.4375 23.882812 10.390625 23.058594 10.085938 21.558594 C 9.78125 20.054688 10.367188 18.648438 11.757812 18.445312 C 13.367188 18.210938 14.175781 19.132812 14.375 20.566406 Z M 14.375 20.566406 "/>
        <path style=" stroke:none;fill-rule:nonzero;fill:rgb(0%,0%,0%);fill-opacity:1;"
              d="M 14.058594 26.613281 C 13.257812 27.132812 14.207031 28.34375 14.761719 28.753906 C 15.320312 29.164062 16.320312 29.664062 17.785156 29.515625 C 19.515625 29.339844 20.011719 28.050781 20.011719 28.050781 C 20.011719 28.050781 20.628906 29.488281 22.769531 29.546875 C 24.941406 29.605469 25.613281 28.429688 25.90625 28.082031 C 26.199219 27.726562 26.492188 26.820312 25.992188 26.46875 C 25.492188 26.117188 25.144531 26.554688 24.617188 27.289062 C 24.085938 28.023438 23.003906 28.433594 21.945312 27.933594 C 20.890625 27.433594 20.832031 25.734375 20.832031 25.734375 L 19.335938 25.820312 C 19.335938 25.820312 19.101562 27.289062 18.425781 27.757812 C 17.75 28.226562 16.136719 28.34375 15.460938 27.316406 C 15.164062 26.859375 14.734375 26.171875 14.058594 26.613281 Z M 14.058594 26.613281 "/>
    </g>
</svg>
