<svg id="svg" xmlns="http://www.w3.org/2000/svg" width="400" height="400" viewBox="0, 0, 400,400">
    <g id="svgg">
        <path id="path0"
              d="M194.800 51.742 C 194.250 52.004,192.910 52.799,191.822 53.509 C 190.734 54.219,189.616 54.800,189.338 54.800 C 188.637 54.800,185.807 57.639,185.051 59.102 C 184.176 60.793,185.017 65.710,186.367 66.800 C 186.717 67.082,188.409 72.073,188.404 72.807 C 188.400 73.360,190.327 75.686,193.115 78.493 C 199.112 84.533,202.408 84.062,209.286 76.186 C 209.663 75.754,210.324 75.068,210.755 74.663 C 211.186 74.257,211.759 72.997,212.030 71.863 C 212.578 69.564,213.795 66.528,214.520 65.655 C 217.301 62.304,214.813 55.988,210.098 54.432 C 209.170 54.126,208.098 53.529,207.714 53.105 C 206.067 51.285,197.627 50.394,194.800 51.742 M263.717 148.546 C 262.884 149.425,259.045 150.835,256.048 151.363 C 255.305 151.494,253.595 152.120,252.248 152.755 C 249.833 153.895,247.315 154.537,243.400 155.013 C 237.792 155.695,235.935 156.047,233.000 156.984 C 223.754 159.936,175.881 159.797,166.369 156.790 C 164.298 156.136,162.111 155.600,161.509 155.600 C 157.470 155.600,147.200 153.302,147.200 152.398 C 147.200 152.104,145.749 151.676,141.600 150.746 C 139.177 150.202,137.377 149.434,136.291 148.481 C 134.587 146.987,134.000 150.152,133.998 160.846 C 133.996 172.732,132.814 176.506,130.079 173.357 C 129.486 172.673,128.370 171.702,127.600 171.200 C 126.830 170.698,125.719 169.728,125.131 169.046 C 123.435 167.078,123.397 167.482,123.447 187.133 C 123.507 210.517,123.506 210.510,126.300 209.810 C 127.222 209.579,127.539 211.367,127.272 215.300 C 127.231 215.905,127.393 216.400,127.632 216.400 C 127.871 216.400,127.995 216.614,127.908 216.875 C 127.691 217.526,129.060 218.828,129.702 218.582 C 130.955 218.102,131.571 219.328,131.664 222.489 C 131.714 224.188,131.837 225.496,131.937 225.396 C 132.037 225.296,132.430 225.574,132.811 226.013 C 133.229 226.494,133.762 226.713,134.152 226.563 C 134.521 226.421,134.800 226.515,134.800 226.781 C 134.800 227.037,134.980 227.136,135.200 227.000 C 135.420 226.864,135.628 227.168,135.663 227.676 C 135.697 228.184,135.760 229.068,135.802 229.640 C 135.844 230.211,136.275 231.111,136.758 231.640 C 137.242 232.168,137.925 232.910,138.276 233.288 C 138.627 233.667,139.060 233.887,139.237 233.777 C 139.546 233.586,140.241 234.561,140.394 235.400 C 140.434 235.620,140.571 235.890,140.697 236.000 C 140.824 236.110,140.796 235.930,140.634 235.600 C 140.472 235.270,140.712 235.450,141.167 236.000 C 142.292 237.359,142.478 237.543,143.400 238.217 L 144.200 238.802 143.400 238.552 C 142.960 238.414,142.187 237.829,141.682 237.251 C 141.178 236.673,140.818 236.466,140.882 236.790 C 141.060 237.680,141.843 238.387,143.159 238.846 C 143.918 239.110,144.490 239.682,144.754 240.441 C 145.213 241.757,145.920 242.540,146.810 242.718 C 147.134 242.782,146.927 242.422,146.349 241.918 C 145.771 241.413,145.186 240.640,145.048 240.200 L 144.798 239.400 145.383 240.200 C 146.057 241.122,146.241 241.308,147.600 242.433 C 148.150 242.888,148.330 243.128,148.000 242.966 C 147.670 242.804,147.540 242.825,147.710 243.013 C 147.881 243.200,148.382 243.409,148.823 243.476 C 149.680 243.607,152.588 246.297,152.618 246.987 C 152.628 247.214,152.853 247.355,153.118 247.300 C 153.383 247.245,153.600 247.335,153.601 247.500 C 153.602 248.065,156.320 247.994,157.461 247.399 C 159.221 246.481,160.512 246.679,162.434 248.161 C 163.405 248.909,165.100 249.819,166.200 250.183 C 167.300 250.547,168.855 251.273,169.655 251.798 C 171.694 253.135,173.394 253.782,176.400 254.367 C 179.227 254.918,180.546 255.322,183.000 256.392 C 186.643 257.981,188.639 258.186,200.200 258.163 C 212.239 258.140,213.582 257.970,218.600 255.838 C 219.920 255.278,221.318 254.815,221.707 254.809 C 222.502 254.799,228.313 253.287,228.973 252.919 C 229.208 252.788,229.760 252.373,230.200 251.996 C 230.640 251.619,232.325 250.800,233.944 250.175 C 235.563 249.550,237.427 248.535,238.086 247.920 C 239.433 246.662,241.144 246.463,242.871 247.364 C 244.216 248.066,246.705 248.025,246.985 247.296 C 247.100 246.995,247.403 246.879,247.659 247.036 C 247.918 247.197,248.017 247.150,247.881 246.931 C 247.551 246.397,250.230 243.910,251.760 243.330 C 252.442 243.072,252.730 242.844,252.400 242.824 C 251.867 242.792,251.867 242.745,252.400 242.400 C 253.207 241.878,253.710 241.899,253.375 242.440 C 253.184 242.749,253.356 242.745,253.952 242.426 C 254.977 241.877,255.073 241.526,254.100 241.880 C 253.433 242.123,253.433 242.098,254.100 241.336 C 254.485 240.897,254.800 240.340,254.800 240.100 C 254.800 239.859,255.475 239.446,256.300 239.183 C 258.047 238.624,258.961 237.948,257.558 238.252 C 256.655 238.448,256.642 238.425,257.332 237.862 C 257.735 237.533,258.329 236.935,258.653 236.532 C 259.203 235.847,259.226 235.865,259.004 236.800 L 258.767 237.800 259.348 236.805 C 259.668 236.258,259.845 235.673,259.741 235.505 C 259.638 235.337,259.713 235.200,259.910 235.200 C 260.271 235.200,260.312 235.028,260.497 232.700 C 260.582 231.627,260.775 231.389,261.600 231.339 C 262.150 231.306,262.735 231.239,262.900 231.189 C 263.065 231.140,263.425 231.078,263.700 231.050 C 264.236 230.996,264.273 230.845,264.350 228.413 C 264.389 227.177,264.533 226.876,265.000 227.055 C 265.330 227.182,265.600 227.074,265.600 226.816 C 265.600 226.538,265.907 226.444,266.353 226.585 C 266.836 226.738,267.193 226.595,267.350 226.187 C 267.484 225.836,267.746 225.643,267.931 225.757 C 268.115 225.871,268.287 225.748,268.311 225.482 C 268.336 225.217,268.466 223.746,268.600 222.214 C 268.866 219.184,269.346 218.240,270.472 218.535 C 270.872 218.639,271.302 218.559,271.427 218.356 C 271.553 218.153,271.804 218.079,271.986 218.191 C 272.530 218.528,272.690 217.592,272.769 213.611 C 272.810 211.527,272.879 209.795,272.922 209.761 C 272.965 209.727,273.450 209.575,274.000 209.423 C 274.763 209.213,274.858 209.247,274.400 209.568 C 273.873 209.936,273.878 209.988,274.438 209.994 C 275.114 210.000,276.409 208.788,276.387 208.169 C 276.380 207.966,276.110 208.149,275.787 208.576 C 275.464 209.004,275.200 209.172,275.200 208.952 C 275.200 208.731,275.571 208.153,276.024 207.666 C 276.557 207.094,276.760 206.503,276.597 205.991 C 276.459 205.556,276.529 205.200,276.752 205.200 C 277.087 205.200,277.159 171.324,276.829 168.289 C 276.749 167.545,275.285 168.637,270.913 172.700 C 267.154 176.193,266.011 173.130,266.004 159.549 C 265.999 148.716,265.560 146.601,263.717 148.546 M171.788 168.858 C 176.321 173.001,176.536 176.911,172.445 180.803 C 168.813 184.259,164.898 184.287,161.163 180.884 C 155.654 175.864,159.282 166.800,166.800 166.800 C 169.535 166.800,169.536 166.801,171.788 168.858 M236.526 167.261 C 237.007 167.514,238.345 168.684,239.500 169.861 L 241.600 172.001 241.600 174.827 C 241.600 177.760,241.207 178.979,239.933 180.000 C 239.521 180.330,238.535 181.185,237.742 181.900 C 236.391 183.118,236.114 183.200,233.360 183.200 L 230.421 183.200 227.960 180.887 C 225.320 178.405,224.703 176.569,225.351 173.122 C 226.147 168.896,232.904 165.351,236.526 167.261 M139.074 232.070 C 140.132 233.064,140.240 233.467,139.447 233.467 C 139.143 233.467,138.592 232.957,138.224 232.333 C 137.426 230.982,137.795 230.868,139.074 232.070 M261.260 232.242 C 260.531 233.066,261.000 233.457,261.781 232.676 C 262.121 232.336,262.400 231.954,262.400 231.829 C 262.400 231.409,261.806 231.624,261.260 232.242 M152.250 244.187 C 152.709 245.381,152.155 245.617,151.222 244.624 L 150.261 243.600 151.143 243.600 C 151.628 243.600,152.126 243.864,152.250 244.187 M249.600 243.829 C 249.600 243.954,249.343 244.314,249.029 244.629 C 248.253 245.404,248.000 245.347,248.000 244.400 C 248.000 243.867,248.267 243.600,248.800 243.600 C 249.240 243.600,249.600 243.703,249.600 243.829 M158.000 273.906 C 158.000 274.934,160.059 276.086,162.462 276.402 C 163.858 276.585,166.260 277.179,167.800 277.721 C 170.644 278.723,172.347 279.039,181.113 280.193 C 183.815 280.549,186.785 281.164,187.713 281.560 C 188.641 281.956,190.390 282.503,191.600 282.775 C 192.810 283.047,194.451 283.434,195.246 283.635 C 197.080 284.098,202.961 284.105,204.800 283.646 C 205.570 283.454,207.280 283.062,208.600 282.775 C 209.920 282.488,211.739 281.944,212.643 281.565 C 214.131 280.942,217.061 280.439,226.600 279.166 C 229.550 278.772,230.876 278.448,233.000 277.600 C 235.052 276.781,236.362 276.449,238.341 276.247 C 240.157 276.061,242.915 274.321,242.284 273.760 C 241.281 272.868,226.378 275.112,225.037 276.355 C 224.042 277.279,220.473 277.997,216.827 278.007 C 211.198 278.023,204.871 279.469,203.569 281.037 C 202.727 282.051,197.378 281.798,196.180 280.687 C 194.579 279.202,188.816 278.000,183.297 278.000 C 179.560 278.000,176.017 277.298,175.238 276.402 C 174.285 275.306,170.735 274.481,165.800 274.210 C 163.380 274.077,160.635 273.874,159.700 273.760 C 158.765 273.645,158.000 273.711,158.000 273.906 M86.963 311.500 C 84.663 313.777,84.637 313.827,84.478 316.440 L 84.317 319.079 86.229 321.240 C 88.901 324.259,89.107 324.375,91.800 324.375 C 94.487 324.375,94.703 324.254,97.329 321.287 C 100.583 317.611,99.690 313.475,94.829 309.713 C 94.483 309.445,93.095 309.220,91.743 309.213 L 89.287 309.200 86.963 311.500 M303.500 311.636 L 301.200 314.044 301.200 316.780 L 301.200 319.515 303.590 321.957 C 305.940 324.359,306.016 324.400,308.171 324.400 C 310.197 324.400,312.400 323.793,312.400 323.235 C 312.400 323.105,313.210 322.129,314.200 321.065 C 316.888 318.179,316.857 315.453,314.100 312.343 C 311.388 309.284,311.281 309.225,308.400 309.227 L 305.800 309.229 303.500 311.636 "
              stroke="none" fill="#fbb648" fill-rule="evenodd"></path>
        <path id="path1"
              d="M187.219 23.588 C 186.900 23.785,186.525 23.877,186.386 23.791 C 186.108 23.620,185.964 24.412,185.966 26.100 C 185.968 27.209,184.711 27.537,181.500 27.268 C 181.115 27.236,180.800 27.407,180.800 27.648 C 180.800 27.888,180.532 27.983,180.204 27.857 C 179.515 27.592,177.465 29.458,177.818 30.029 C 178.242 30.715,176.921 31.560,175.273 31.658 C 174.381 31.710,173.661 31.854,173.673 31.977 C 173.685 32.100,173.661 32.290,173.620 32.400 C 173.579 32.510,173.466 33.217,173.369 33.971 C 173.150 35.657,173.346 35.507,171.200 35.634 C 170.210 35.693,169.184 35.904,168.919 36.104 C 168.655 36.303,168.079 36.352,167.640 36.213 C 166.495 35.849,165.113 37.316,165.426 38.562 C 165.718 39.724,165.416 39.931,163.246 40.059 C 161.181 40.181,160.950 40.441,160.850 42.758 C 160.797 43.991,161.014 43.907,156.311 44.506 C 155.712 44.582,155.082 44.792,154.911 44.972 C 154.740 45.152,155.050 45.180,155.600 45.035 C 156.576 44.777,156.574 44.786,155.510 45.393 C 154.911 45.735,154.227 46.377,153.990 46.819 C 153.753 47.261,153.389 47.517,153.180 47.388 C 152.971 47.258,152.800 47.420,152.800 47.746 C 152.800 48.183,152.429 48.305,151.400 48.210 C 150.630 48.138,150.000 48.222,150.000 48.395 C 150.000 48.569,149.685 48.686,149.300 48.656 C 148.861 48.621,148.621 48.861,148.656 49.300 C 148.686 49.685,148.548 50.000,148.348 50.000 C 148.148 50.000,148.097 50.448,148.235 50.996 C 148.401 51.657,148.302 52.055,147.942 52.177 C 147.241 52.415,143.271 52.897,142.082 52.889 C 140.940 52.881,139.836 54.454,140.194 55.580 C 140.423 56.303,140.273 56.407,138.927 56.459 C 136.303 56.561,136.080 56.592,135.769 56.900 C 135.603 57.065,135.182 57.206,134.833 57.213 C 133.996 57.231,132.397 58.586,132.413 59.264 C 132.422 59.661,132.552 59.635,132.913 59.165 C 133.495 58.406,135.188 57.455,135.464 57.731 C 135.572 57.839,135.274 58.049,134.803 58.199 C 134.331 58.349,133.598 59.040,133.174 59.736 C 132.750 60.431,132.400 60.730,132.395 60.400 C 132.390 59.981,132.297 59.942,132.088 60.271 C 131.924 60.529,130.682 60.796,129.328 60.863 C 127.975 60.930,126.965 61.143,127.084 61.335 C 127.203 61.528,126.895 61.557,126.400 61.400 C 125.817 61.215,125.590 61.261,125.756 61.530 C 125.898 61.758,125.827 62.060,125.600 62.200 C 125.373 62.340,125.272 62.593,125.376 62.761 C 125.480 62.929,125.303 63.067,124.982 63.067 C 124.275 63.067,124.239 62.721,124.880 62.080 C 125.171 61.789,125.196 61.600,124.944 61.600 C 124.716 61.600,124.320 62.058,124.064 62.619 C 123.502 63.852,123.465 64.428,124.000 63.600 C 124.282 63.164,124.389 63.143,124.394 63.524 C 124.397 63.812,124.625 63.933,124.900 63.794 C 125.175 63.655,125.051 63.824,124.624 64.170 C 124.138 64.564,122.977 64.819,121.524 64.850 C 115.496 64.980,115.124 65.168,115.096 68.100 L 115.085 69.200 110.243 69.240 C 103.492 69.296,103.041 69.336,102.680 69.900 C 102.504 70.175,102.131 70.400,101.850 70.400 C 101.222 70.400,99.600 72.076,99.600 72.726 C 99.600 73.053,98.452 73.219,95.900 73.261 C 93.865 73.294,92.020 73.364,91.800 73.415 C 91.580 73.466,91.220 73.550,91.000 73.601 C 90.780 73.653,90.477 73.678,90.328 73.657 C 90.178 73.636,90.037 77.634,90.015 82.542 L 89.975 91.466 91.042 92.533 C 91.629 93.120,92.535 93.600,93.055 93.600 C 93.878 93.600,94.552 96.205,93.907 96.900 C 93.856 96.955,94.126 97.445,94.507 97.989 C 94.888 98.533,95.197 99.163,95.194 99.389 C 95.191 99.615,95.001 99.530,94.772 99.200 C 94.430 98.705,94.379 98.740,94.484 99.400 C 94.554 99.840,94.788 100.205,95.005 100.210 C 95.563 100.225,97.090 101.173,96.580 101.188 C 96.349 101.195,95.944 100.984,95.680 100.720 C 95.325 100.365,95.200 100.361,95.200 100.704 C 95.200 100.959,95.917 101.383,96.792 101.645 C 98.183 102.062,98.355 102.241,98.149 103.061 C 97.998 103.661,98.089 104.000,98.399 104.000 C 98.667 104.000,98.799 104.226,98.693 104.502 C 98.452 105.130,99.251 105.916,99.909 105.697 C 100.179 105.607,100.400 105.735,100.400 105.982 C 100.400 106.230,100.878 106.379,101.472 106.315 C 102.452 106.210,102.547 106.323,102.572 107.628 C 102.607 109.401,103.411 110.222,105.100 110.210 C 106.240 110.201,106.407 110.336,106.460 111.300 C 106.493 111.905,106.538 112.625,106.560 112.900 C 106.629 113.768,107.747 114.374,109.300 114.387 L 110.800 114.400 110.800 116.151 C 110.800 119.408,113.520 119.856,116.149 117.032 C 117.088 116.025,118.009 115.200,118.196 115.200 C 118.384 115.200,118.821 114.948,119.169 114.641 C 120.102 113.814,122.744 112.400,123.356 112.400 C 123.648 112.400,124.678 111.713,125.644 110.874 C 126.751 109.912,128.287 109.087,129.800 108.642 C 133.467 107.563,134.529 107.133,135.400 106.371 C 136.261 105.618,140.836 104.000,142.104 104.000 C 143.013 104.000,147.221 102.831,147.800 102.418 C 148.823 101.688,154.203 100.421,158.000 100.015 C 163.685 99.408,167.333 98.843,170.200 98.125 C 174.548 97.037,176.086 96.886,188.084 96.371 C 205.084 95.641,223.354 96.401,230.200 98.123 C 232.926 98.808,236.409 99.358,242.200 100.017 C 244.400 100.268,247.100 100.718,248.200 101.018 C 249.300 101.318,250.650 101.688,251.200 101.839 C 251.750 101.991,252.380 102.245,252.600 102.403 C 253.166 102.809,256.950 103.858,259.912 104.430 C 261.293 104.696,263.204 105.410,264.159 106.015 C 265.113 106.620,267.313 107.604,269.047 108.201 C 270.781 108.798,273.013 109.882,274.008 110.609 C 275.002 111.337,276.622 112.245,277.608 112.626 C 278.593 113.008,279.860 113.743,280.422 114.260 C 280.984 114.777,281.636 115.200,281.872 115.200 C 282.107 115.200,283.087 116.014,284.050 117.009 C 285.779 118.797,287.994 119.339,289.090 118.243 C 289.410 117.924,289.444 117.729,289.539 115.700 C 289.598 114.440,289.654 114.400,291.357 114.400 C 293.299 114.400,293.600 114.047,293.600 111.767 C 293.600 110.634,293.754 110.390,294.500 110.341 C 294.995 110.308,295.670 110.245,296.000 110.200 C 296.330 110.155,296.836 110.092,297.124 110.059 C 297.412 110.027,297.536 109.820,297.400 109.600 C 297.264 109.380,297.351 109.200,297.594 109.200 C 297.837 109.200,298.006 108.975,297.970 108.700 C 297.727 106.829,298.019 105.952,298.800 106.200 C 299.279 106.352,299.600 106.272,299.600 106.000 C 299.600 105.735,299.919 105.647,300.366 105.789 C 300.801 105.927,301.273 105.809,301.456 105.516 C 301.804 104.959,301.846 104.753,301.939 103.143 C 301.983 102.376,302.273 102.018,302.998 101.836 C 303.546 101.699,303.951 101.387,303.898 101.143 C 303.844 100.899,304.050 100.609,304.356 100.498 C 304.742 100.358,304.810 100.464,304.579 100.848 C 304.300 101.312,304.356 101.311,304.932 100.844 C 305.348 100.506,305.525 99.994,305.382 99.544 C 305.244 99.107,305.340 98.800,305.616 98.800 C 305.874 98.800,305.982 98.530,305.855 98.200 C 305.729 97.870,305.766 97.600,305.938 97.600 C 306.110 97.600,306.295 96.750,306.348 95.710 C 306.464 93.466,306.397 93.558,307.960 93.514 C 310.095 93.453,310.341 92.362,310.357 82.910 C 310.373 72.825,310.629 73.335,305.483 73.207 C 303.457 73.157,301.559 73.105,301.265 73.091 C 300.970 73.078,300.573 72.655,300.382 72.152 C 300.012 71.180,297.885 69.848,297.430 70.304 C 297.280 70.453,297.279 70.259,297.428 69.871 C 297.577 69.484,297.541 69.196,297.349 69.231 C 297.157 69.266,294.331 69.273,291.068 69.247 L 285.136 69.200 285.400 68.000 C 285.572 67.215,285.506 66.800,285.208 66.800 C 284.958 66.800,284.864 66.620,285.000 66.400 C 285.136 66.180,285.046 66.000,284.800 66.000 C 284.554 66.000,284.445 65.850,284.559 65.667 C 284.791 65.291,284.827 65.298,281.000 65.005 C 276.680 64.675,276.347 64.552,276.638 63.391 C 276.822 62.659,276.726 62.400,276.273 62.400 C 275.935 62.400,275.597 62.085,275.522 61.700 C 275.438 61.270,275.003 60.988,274.393 60.968 C 273.847 60.951,272.306 60.906,270.968 60.868 C 268.944 60.811,268.537 60.683,268.540 60.100 C 268.550 57.805,268.379 57.014,268.000 57.600 C 267.672 58.108,267.611 58.089,267.606 57.473 C 267.602 56.929,267.399 56.810,266.800 57.000 C 266.360 57.140,266.000 57.085,266.000 56.879 C 266.000 56.672,264.797 56.477,263.327 56.445 C 260.187 56.377,260.461 56.537,260.337 54.697 C 260.240 53.259,259.752 52.739,258.355 52.586 C 256.316 52.361,255.559 51.958,255.793 51.221 C 256.124 50.180,254.210 48.279,253.166 48.611 C 252.745 48.745,252.400 48.701,252.400 48.514 C 252.400 48.327,251.914 48.134,251.319 48.085 C 250.078 47.982,247.423 45.410,247.848 44.723 C 248.015 44.452,247.942 44.389,247.662 44.562 C 247.408 44.719,247.200 44.702,247.199 44.524 C 247.199 44.346,246.442 44.148,245.517 44.084 C 243.491 43.945,243.659 44.100,243.535 42.257 C 243.406 40.343,243.142 40.142,240.639 40.050 C 239.503 40.008,239.208 39.800,238.855 38.786 C 238.551 37.914,238.555 37.648,238.868 37.842 C 239.127 38.002,239.222 37.886,239.102 37.556 C 238.991 37.250,238.698 37.045,238.450 37.100 C 238.203 37.155,238.045 36.997,238.100 36.750 C 238.155 36.502,237.950 36.209,237.644 36.098 C 237.307 35.975,237.197 36.072,237.365 36.344 C 237.643 36.794,236.646 36.578,235.800 36.005 C 235.580 35.856,234.500 35.688,233.400 35.632 C 231.024 35.510,231.334 35.780,231.064 33.600 C 230.941 32.610,230.832 31.755,230.820 31.700 C 230.809 31.645,230.067 31.600,229.171 31.600 C 227.543 31.600,226.138 30.748,226.582 30.029 C 226.935 29.458,224.885 27.592,224.196 27.857 C 223.868 27.983,223.600 27.888,223.600 27.648 C 223.600 27.407,223.285 27.236,222.900 27.268 C 219.239 27.575,218.600 27.159,218.244 24.238 C 218.142 23.403,188.521 22.782,187.219 23.588 M167.113 36.825 C 166.735 37.045,166.245 37.535,166.025 37.913 C 165.805 38.291,165.619 38.388,165.612 38.129 C 165.596 37.519,166.719 36.396,167.329 36.412 C 167.588 36.419,167.491 36.605,167.113 36.825 M207.300 49.439 C 207.905 49.579,209.120 50.392,210.000 51.247 C 210.881 52.101,211.934 52.800,212.340 52.800 C 217.837 52.800,219.922 65.223,215.311 70.501 C 214.590 71.327,214.000 72.443,214.000 72.982 C 214.000 75.971,207.380 83.382,203.889 84.300 C 196.928 86.131,188.658 81.111,186.417 73.695 C 185.948 72.144,185.182 70.604,184.611 70.067 C 181.235 66.891,182.014 54.000,185.582 54.000 C 185.812 54.000,186.000 53.828,186.000 53.618 C 186.000 53.408,186.638 53.117,187.417 52.970 C 188.264 52.812,189.472 52.092,190.418 51.183 C 192.673 49.016,201.523 48.102,207.300 49.439 M99.855 70.655 C 99.275 71.235,98.807 72.000,98.816 72.355 C 98.826 72.761,99.051 72.596,99.424 71.908 C 99.750 71.308,100.508 70.550,101.108 70.224 C 101.796 69.851,101.961 69.626,101.555 69.616 C 101.200 69.607,100.435 70.075,99.855 70.655 M299.500 70.396 C 300.215 70.832,300.800 71.401,300.800 71.661 C 300.800 71.921,300.921 72.013,301.068 71.865 C 301.450 71.484,299.587 69.600,298.830 69.601 C 298.480 69.602,298.779 69.956,299.500 70.396 M178.800 116.438 C 170.506 116.815,165.944 117.368,162.400 118.428 C 159.508 119.292,152.826 120.400,150.504 120.400 C 147.605 120.400,143.017 121.594,141.200 122.821 C 140.650 123.193,139.120 123.713,137.800 123.977 C 136.480 124.240,134.749 124.624,133.954 124.828 C 133.158 125.033,132.155 125.200,131.724 125.200 C 131.293 125.200,130.055 125.830,128.972 126.600 C 127.889 127.370,126.756 128.000,126.454 128.000 C 125.194 128.000,120.643 129.852,119.853 130.685 C 118.489 132.126,115.319 132.003,115.074 130.500 C 114.976 129.895,114.904 130.427,114.915 131.682 C 114.926 132.937,115.096 133.864,115.292 133.743 C 115.488 133.622,116.621 133.495,117.809 133.461 C 119.750 133.406,120.112 133.248,121.383 131.900 C 122.272 130.958,123.164 130.400,123.780 130.400 C 124.320 130.400,125.176 130.239,125.681 130.042 C 126.187 129.845,127.410 129.445,128.400 129.154 C 129.390 128.863,130.439 128.393,130.731 128.109 C 132.036 126.845,135.216 125.784,138.800 125.417 C 141.499 125.140,144.418 124.318,145.800 123.445 C 147.026 122.670,149.800 122.061,154.200 121.600 C 162.270 120.755,165.511 120.314,170.600 119.367 C 183.709 116.929,216.480 116.927,229.782 119.364 C 235.414 120.395,239.311 120.930,246.200 121.617 C 251.091 122.105,252.460 122.437,255.442 123.862 C 256.566 124.398,258.726 125.015,260.242 125.233 C 264.975 125.911,266.943 126.468,268.661 127.613 C 269.574 128.221,270.924 128.901,271.661 129.124 C 272.397 129.346,273.643 129.724,274.428 129.964 C 275.214 130.204,276.167 130.400,276.547 130.400 C 276.926 130.400,277.690 130.854,278.244 131.408 C 280.106 133.270,281.010 133.649,283.363 133.554 L 285.600 133.463 285.540 131.432 C 285.506 130.274,285.408 129.873,285.313 130.500 C 285.080 132.041,281.674 132.147,280.281 130.658 C 279.796 130.139,278.680 129.487,277.800 129.209 C 276.920 128.930,275.887 128.544,275.505 128.351 C 275.123 128.158,274.438 128.000,273.982 128.000 C 273.526 128.000,272.489 127.474,271.677 126.832 C 270.256 125.708,268.616 125.197,262.600 124.001 C 261.280 123.739,259.394 123.060,258.409 122.492 C 256.314 121.284,254.770 120.919,249.600 120.408 C 243.623 119.817,239.980 119.215,237.600 118.423 C 231.341 116.343,202.386 115.365,178.800 116.438 M144.600 273.506 C 144.083 273.886,143.871 274.728,143.950 276.100 C 143.985 276.715,143.804 277.200,143.540 277.200 C 143.280 277.200,143.173 277.306,143.303 277.437 C 143.747 277.881,145.200 277.148,145.213 276.473 C 145.220 276.103,145.484 275.458,145.800 275.041 C 146.116 274.624,146.302 274.165,146.213 274.021 C 146.124 273.878,146.715 273.722,147.526 273.675 C 148.622 273.612,148.846 273.692,148.400 273.989 C 148.070 274.208,148.006 274.391,148.258 274.394 C 148.510 274.397,148.804 275.075,148.912 275.900 C 149.020 276.725,149.396 278.390,149.749 279.600 C 150.612 282.560,150.674 304.574,149.829 308.000 C 148.966 311.498,148.942 311.526,145.859 312.421 C 142.787 313.313,140.328 314.325,139.992 314.834 C 139.699 315.279,136.065 316.800,135.295 316.800 C 134.251 316.800,131.885 317.701,130.600 318.588 C 129.066 319.647,127.844 320.187,125.600 320.801 C 122.662 321.604,121.468 322.101,120.200 323.046 C 118.919 324.002,116.340 324.974,113.916 325.414 C 113.099 325.562,111.389 326.358,110.116 327.183 C 108.842 328.008,106.810 328.922,105.600 329.214 C 104.390 329.507,103.229 329.893,103.020 330.073 C 102.811 330.253,102.329 330.400,101.949 330.400 C 101.568 330.400,101.010 330.647,100.709 330.948 C 99.828 331.829,97.987 332.657,95.200 333.428 C 93.770 333.823,92.060 334.475,91.400 334.877 C 89.414 336.085,86.023 337.600,85.289 337.606 C 84.225 337.615,81.617 338.608,80.785 339.320 C 79.675 340.270,77.744 341.200,76.880 341.200 C 75.455 341.200,73.600 340.331,73.594 339.661 C 73.590 339.205,73.493 339.149,73.284 339.479 C 73.116 339.742,72.230 340.001,71.314 340.055 C 70.397 340.109,69.738 340.299,69.847 340.477 C 69.957 340.655,69.888 340.800,69.693 340.800 C 69.499 340.800,69.296 342.993,69.244 345.673 C 69.142 350.877,68.579 352.391,66.616 352.736 C 65.693 352.897,66.219 352.031,67.971 350.502 C 69.025 349.582,68.687 349.233,67.594 350.113 C 66.882 350.686,65.505 352.743,65.260 353.600 C 64.974 354.602,64.723 382.866,64.988 384.278 L 65.235 385.595 199.755 385.599 C 330.749 385.602,334.292 385.583,334.952 384.853 C 335.757 383.964,335.923 353.600,335.123 353.600 C 334.898 353.600,334.818 353.330,334.945 353.000 C 335.071 352.670,335.010 352.400,334.809 352.400 C 334.608 352.400,334.207 351.907,333.918 351.304 C 333.629 350.701,332.899 349.971,332.296 349.682 C 331.241 349.176,331.198 349.032,331.141 345.878 C 331.063 341.580,331.054 341.484,330.676 340.900 C 330.498 340.625,330.461 340.400,330.592 340.400 C 330.894 340.400,330.133 339.438,328.645 337.940 C 328.010 337.300,327.393 336.874,327.274 336.993 C 327.155 337.112,327.634 337.773,328.338 338.462 C 329.823 339.913,329.692 340.601,328.198 339.199 C 327.340 338.392,327.200 338.358,327.200 338.959 C 327.200 341.183,322.849 341.793,320.386 339.915 C 319.088 338.925,318.127 338.537,313.600 337.173 C 312.610 336.875,310.900 336.064,309.800 335.372 C 308.700 334.680,306.670 333.829,305.290 333.481 C 303.909 333.133,302.199 332.541,301.490 332.165 C 300.780 331.789,299.554 331.143,298.765 330.731 C 297.976 330.318,296.119 329.635,294.640 329.211 C 293.160 328.788,291.117 327.890,290.099 327.216 C 289.080 326.542,287.517 325.809,286.624 325.589 C 283.059 324.708,281.720 324.181,279.889 322.942 C 278.839 322.230,277.579 321.540,277.089 321.410 C 273.663 320.494,272.889 320.260,272.000 319.869 C 271.450 319.627,270.532 319.114,269.960 318.730 C 268.979 318.071,267.867 317.659,263.600 316.373 C 262.610 316.075,260.900 315.269,259.800 314.583 C 258.700 313.897,256.900 313.108,255.800 312.829 C 249.942 311.348,250.203 312.238,250.202 293.761 C 250.200 282.484,250.320 278.779,250.700 278.321 C 250.974 277.990,251.231 277.197,251.271 276.560 C 251.310 275.922,251.443 275.220,251.565 275.000 C 251.688 274.780,251.794 274.420,251.801 274.200 C 251.812 273.848,252.292 273.824,254.300 274.072 C 254.575 274.106,254.800 274.294,254.800 274.490 C 254.800 274.687,254.980 274.736,255.200 274.600 C 255.420 274.464,255.600 274.618,255.600 274.943 C 255.600 275.268,255.375 275.624,255.100 275.735 C 254.825 275.846,255.005 275.951,255.500 275.968 C 256.198 275.993,256.400 275.779,256.400 275.014 C 256.400 273.480,255.298 273.200,249.268 273.200 L 243.683 273.200 243.207 276.700 C 242.578 281.331,242.058 282.714,240.500 283.903 C 239.458 284.698,239.198 285.184,239.192 286.347 C 239.176 289.381,237.428 293.600,236.188 293.600 C 235.955 293.600,235.537 294.725,235.258 296.100 C 234.206 301.285,233.864 302.184,232.383 303.656 C 231.090 304.943,230.888 305.418,230.652 307.727 C 230.324 310.928,229.494 313.017,228.301 313.645 C 227.056 314.301,226.873 314.676,226.561 317.197 C 226.178 320.292,225.378 322.343,224.064 323.599 C 223.230 324.396,222.807 325.346,222.444 327.239 C 221.596 331.653,221.118 332.822,219.723 333.886 C 218.727 334.646,218.400 335.201,218.400 336.136 C 218.400 338.955,217.430 341.732,215.898 343.300 C 214.054 345.186,213.200 347.139,213.200 349.469 C 213.200 351.656,212.481 353.067,210.628 354.517 C 209.274 355.576,209.200 355.758,209.200 358.033 C 209.200 360.755,208.149 363.283,206.699 364.047 C 205.422 364.719,205.300 365.009,204.987 368.133 C 204.465 373.323,203.394 374.800,200.152 374.800 C 196.820 374.800,195.210 372.363,195.194 367.294 C 195.187 365.078,195.032 364.791,193.294 363.780 C 191.789 362.905,191.206 361.315,191.202 358.082 C 191.200 355.878,191.299 356.042,188.323 353.327 C 187.643 352.706,186.800 349.624,186.800 347.760 C 186.800 346.501,185.839 344.613,184.842 343.914 C 183.546 343.007,182.522 340.728,182.046 337.689 C 181.661 335.240,181.393 334.604,180.352 333.673 C 179.002 332.467,178.015 330.131,178.006 328.119 C 177.999 326.630,177.296 324.857,176.372 324.000 C 174.985 322.713,173.653 319.102,173.618 316.533 C 173.595 314.904,173.241 314.000,172.627 314.000 C 171.196 314.000,169.827 310.919,169.428 306.802 C 169.311 305.594,169.048 304.549,168.844 304.481 C 167.185 303.928,166.243 302.076,165.398 297.702 C 164.824 294.731,164.505 293.899,163.751 293.405 C 162.432 292.541,161.796 291.067,161.203 287.500 C 160.919 285.795,160.560 284.400,160.405 284.400 C 158.982 284.400,157.213 280.507,157.204 277.360 C 157.202 276.458,157.002 275.153,156.761 274.460 L 156.322 273.200 150.661 273.206 C 147.547 273.209,144.820 273.344,144.600 273.506 M142.307 276.400 C 141.870 277.100,141.374 277.200,138.327 277.200 C 136.402 277.200,134.735 277.382,134.596 277.607 C 134.458 277.830,134.169 277.905,133.955 277.772 C 133.089 277.237,131.680 278.731,131.680 280.183 L 131.680 281.600 133.840 281.600 C 135.502 281.600,136.000 281.460,136.000 280.995 C 136.000 279.794,137.400 277.982,138.500 277.760 C 138.665 277.727,139.711 277.678,140.824 277.650 C 142.117 277.618,142.754 277.449,142.589 277.182 C 142.447 276.953,142.549 276.503,142.815 276.182 C 143.080 275.862,143.187 275.600,143.052 275.600 C 142.917 275.600,142.582 275.960,142.307 276.400 M259.707 277.440 C 259.839 277.572,260.590 277.680,261.376 277.680 C 262.282 277.680,262.946 277.922,263.190 278.340 C 263.443 278.772,263.580 278.819,263.588 278.476 C 263.595 278.188,263.792 278.072,264.027 278.217 C 264.262 278.362,264.369 278.703,264.265 278.974 C 264.083 279.450,264.504 279.592,266.200 279.627 C 266.936 279.643,266.944 279.676,266.297 280.044 C 265.910 280.263,265.387 280.316,265.135 280.160 C 264.851 279.985,264.786 280.053,264.963 280.340 C 265.123 280.599,265.660 280.700,266.181 280.569 C 266.724 280.433,267.240 280.541,267.418 280.829 C 267.615 281.147,267.559 281.222,267.262 281.038 C 267.008 280.881,266.800 280.943,266.800 281.176 C 266.800 282.306,268.235 281.531,268.325 280.353 C 268.446 278.758,267.731 277.793,266.924 278.463 C 266.477 278.834,266.381 278.818,266.477 278.390 C 266.551 278.064,266.118 277.734,265.400 277.570 C 263.882 277.222,259.386 277.119,259.707 277.440 M123.590 282.626 C 123.003 284.170,123.104 285.600,123.800 285.600 C 124.130 285.600,124.364 285.465,124.321 285.300 C 123.988 284.041,125.552 282.689,127.937 282.176 C 129.370 281.867,128.684 281.600,126.457 281.600 C 124.166 281.600,123.951 281.677,123.590 282.626 M273.500 281.889 C 273.995 281.980,274.400 282.234,274.400 282.451 C 274.400 282.669,274.573 282.740,274.785 282.609 C 275.379 282.242,276.605 283.691,276.555 284.700 C 276.530 285.195,276.665 285.600,276.855 285.600 C 277.342 285.600,277.284 283.822,276.759 282.669 C 276.382 281.843,276.042 281.701,274.459 281.711 C 273.436 281.717,273.005 281.797,273.500 281.889 M115.600 286.249 C 115.600 286.724,115.735 286.786,116.102 286.482 C 116.377 286.253,117.232 285.989,118.002 285.897 C 119.198 285.752,119.126 285.719,117.500 285.664 C 115.988 285.613,115.600 285.732,115.600 286.249 M114.206 286.547 C 113.122 287.165,111.601 288.889,111.600 289.500 C 111.600 290.101,112.253 290.162,112.604 289.593 C 112.742 289.370,113.041 289.302,113.268 289.442 C 113.508 289.590,113.484 289.331,113.210 288.818 C 112.774 288.004,112.801 287.972,113.570 288.384 C 114.026 288.628,114.422 288.732,114.450 288.614 C 114.573 288.089,114.690 287.753,114.984 287.083 C 115.397 286.142,115.178 285.992,114.206 286.547 M285.149 286.704 C 285.929 288.163,288.400 289.781,288.400 288.834 C 288.400 288.248,286.449 286.723,286.030 286.982 C 285.793 287.128,285.600 286.967,285.600 286.624 C 285.600 286.281,285.414 286.000,285.186 286.000 C 284.915 286.000,284.902 286.243,285.149 286.704 M103.462 290.731 C 102.400 291.905,102.682 292.596,103.793 291.542 C 104.339 291.024,104.789 290.465,104.793 290.300 C 104.805 289.766,104.141 289.981,103.462 290.731 M294.167 290.300 C 294.468 290.602,294.676 290.658,295.824 290.750 C 296.167 290.778,296.333 290.984,296.194 291.210 C 296.055 291.435,296.179 291.570,296.470 291.510 C 296.762 291.449,296.955 291.625,296.900 291.900 C 296.845 292.175,296.980 292.400,297.200 292.400 C 297.846 292.400,297.661 291.661,296.800 290.800 C 296.360 290.360,295.520 290.000,294.933 290.000 C 294.347 290.000,294.002 290.135,294.167 290.300 M94.744 294.823 C 93.899 295.559,93.888 295.603,94.647 295.237 C 95.113 295.012,95.637 294.957,95.812 295.114 C 95.986 295.271,96.008 295.190,95.862 294.934 C 95.715 294.678,95.821 294.377,96.098 294.266 C 96.419 294.136,96.436 294.052,96.144 294.032 C 95.894 294.014,95.264 294.370,94.744 294.823 M305.404 295.100 C 305.564 295.485,305.749 296.221,305.816 296.735 C 305.883 297.250,306.061 297.790,306.212 297.935 C 306.415 298.131,306.285 295.804,306.020 294.500 C 306.009 294.445,305.801 294.400,305.557 294.400 C 305.292 294.400,305.231 294.680,305.404 295.100 M84.717 298.545 C 83.283 298.991,81.844 299.994,82.620 300.006 C 82.829 300.009,82.799 300.144,82.554 300.306 C 82.309 300.468,81.981 301.006,81.826 301.502 C 81.515 302.498,82.741 302.619,83.676 301.684 C 84.030 301.330,83.932 301.259,83.269 301.387 C 82.478 301.539,82.442 301.473,82.883 300.677 C 83.151 300.195,83.322 299.635,83.262 299.432 C 83.203 299.230,83.435 299.297,83.777 299.581 C 84.503 300.183,84.612 300.578,83.938 300.162 C 83.659 299.989,83.585 300.052,83.751 300.321 C 84.141 300.952,85.000 300.522,85.604 299.392 C 85.888 298.862,86.237 298.499,86.379 298.587 C 86.522 298.675,86.900 298.582,87.219 298.380 C 88.047 297.856,86.631 297.950,84.717 298.545 M313.000 298.400 C 313.136 298.620,313.709 298.800,314.273 298.800 C 315.184 298.800,315.239 298.878,314.768 299.500 C 314.318 300.096,314.322 300.125,314.799 299.700 C 315.597 298.989,316.019 299.081,315.713 299.900 C 315.496 300.477,315.554 300.516,316.042 300.120 C 316.524 299.729,316.644 299.786,316.692 300.429 C 316.725 300.870,316.573 301.107,316.346 300.967 C 316.123 300.829,316.169 301.081,316.448 301.527 C 317.106 302.583,318.400 302.501,318.400 301.404 C 318.400 300.341,317.263 298.712,316.663 298.915 C 316.408 299.001,315.621 298.830,314.913 298.536 C 313.384 297.900,312.659 297.848,313.000 298.400 M322.442 302.576 C 322.825 302.958,324.800 303.124,324.800 302.774 C 324.800 302.568,324.230 302.400,323.533 302.400 C 322.837 302.400,322.346 302.479,322.442 302.576 M73.867 303.067 C 73.381 303.553,73.590 303.979,74.200 303.745 C 74.530 303.618,74.800 303.354,74.800 303.157 C 74.800 302.738,74.249 302.684,73.867 303.067 M325.632 303.700 C 325.651 304.249,325.750 304.381,325.886 304.037 C 326.039 303.651,326.275 303.840,326.638 304.637 L 327.167 305.800 326.928 304.600 C 326.531 302.604,325.570 301.937,325.632 303.700 M332.756 349.358 C 333.282 349.650,333.950 350.318,334.242 350.844 C 334.595 351.481,334.776 351.589,334.786 351.170 C 334.803 350.398,333.162 348.795,332.374 348.814 C 332.055 348.822,332.224 349.063,332.756 349.358 "
              stroke="none" fill="#1c257c" fill-rule="evenodd"></path>
        <path id="path2"
              d="M159.592 276.610 C 159.285 276.979,159.394 277.517,159.984 278.560 C 160.433 279.352,161.160 280.635,161.600 281.412 C 162.040 282.189,162.400 283.072,162.400 283.374 C 162.400 284.380,164.301 289.558,164.884 290.141 C 165.490 290.748,166.263 292.706,167.382 296.471 C 167.753 297.721,168.399 299.138,168.818 299.621 C 169.634 300.561,171.189 304.384,171.216 305.515 C 171.226 305.892,171.664 307.010,172.190 308.000 C 174.022 311.444,175.200 314.026,175.200 314.597 C 175.200 315.744,176.520 319.026,177.405 320.078 C 177.904 320.671,178.627 322.201,179.011 323.478 C 180.580 328.685,180.905 329.600,181.183 329.600 C 181.603 329.600,183.031 332.698,183.580 334.800 C 184.161 337.023,185.134 339.200,185.547 339.200 C 186.859 339.200,188.000 336.196,188.813 330.600 C 189.068 328.840,189.548 326.534,189.879 325.476 C 193.049 315.335,192.743 308.319,188.974 304.715 C 185.466 301.361,185.272 299.091,188.255 296.322 C 190.501 294.236,190.771 293.968,191.835 292.753 C 192.295 292.229,193.105 291.425,193.635 290.966 C 194.166 290.507,195.375 289.292,196.322 288.266 C 197.941 286.512,198.167 286.400,200.092 286.400 L 202.140 286.400 208.062 292.300 L 213.985 298.200 213.992 300.208 C 214.000 302.143,213.918 302.290,211.778 304.208 C 208.188 307.425,207.314 311.526,208.752 318.400 C 208.959 319.390,209.354 321.280,209.631 322.600 C 209.908 323.920,210.255 325.180,210.403 325.400 C 210.550 325.620,210.891 327.150,211.161 328.800 C 212.472 336.835,212.642 337.435,214.046 338.942 C 214.838 339.792,216.770 336.549,216.819 334.289 C 216.830 333.800,217.145 332.844,217.519 332.165 C 219.335 328.871,220.444 326.350,221.233 323.724 C 221.708 322.142,222.390 320.522,222.748 320.124 C 223.784 318.973,224.898 316.268,225.423 313.627 C 225.697 312.249,227.017 309.575,227.609 309.200 C 227.783 309.089,228.318 307.739,228.799 306.200 C 230.204 301.700,230.843 300.105,231.553 299.329 C 231.920 298.928,232.465 297.790,232.764 296.800 C 233.986 292.755,234.215 292.141,234.999 290.800 C 236.375 288.448,237.269 286.212,237.798 283.800 C 238.126 282.307,239.201 279.973,239.884 279.272 C 240.528 278.611,240.957 276.977,240.627 276.443 C 240.193 275.742,236.100 276.363,233.000 277.600 C 230.876 278.448,229.550 278.772,226.600 279.166 C 217.061 280.439,214.131 280.942,212.643 281.565 C 211.739 281.944,209.920 282.490,208.600 282.778 C 207.280 283.067,205.184 283.550,203.942 283.852 C 201.043 284.556,199.274 284.543,196.026 283.796 C 194.582 283.463,192.500 282.986,191.400 282.736 C 190.300 282.485,188.641 281.956,187.713 281.560 C 186.785 281.164,183.815 280.549,181.113 280.193 C 172.375 279.043,170.656 278.720,167.200 277.580 C 163.172 276.251,160.204 275.872,159.592 276.610 "
              stroke="none" fill="#d1d7ea" fill-rule="evenodd"></path>
        <path id="path3"
              d="M112.000 156.915 C 111.213 157.311,110.974 157.774,110.878 159.087 C 110.758 160.737,110.737 160.758,109.087 160.878 C 106.437 161.072,106.413 161.203,106.406 175.500 C 106.399 189.596,106.400 189.600,109.400 189.600 C 110.754 189.600,110.800 189.650,110.800 191.120 C 110.800 193.489,111.099 193.600,117.480 193.600 L 123.200 193.600 123.200 183.059 C 123.200 177.261,123.299 171.456,123.419 170.159 L 123.639 167.800 122.019 166.704 C 121.129 166.101,120.400 165.352,120.400 165.039 C 120.400 164.727,119.610 164.089,118.645 163.622 C 115.659 162.177,115.154 161.527,114.908 158.822 C 114.668 156.166,114.155 155.830,112.000 156.915 M285.600 157.813 C 285.600 160.486,283.728 163.200,281.884 163.200 C 281.319 163.200,279.600 164.822,279.600 165.354 C 279.600 165.796,278.525 166.800,278.051 166.800 C 277.145 166.800,276.467 168.439,276.838 169.732 C 277.037 170.427,277.200 176.081,277.200 182.297 L 277.200 193.600 282.751 193.600 C 288.875 193.600,289.067 193.528,289.464 191.081 C 289.662 189.863,289.863 189.662,291.081 189.464 C 293.702 189.039,293.600 189.619,293.600 175.122 C 293.600 160.526,293.649 160.800,291.029 160.800 C 289.663 160.800,289.600 160.739,289.600 159.400 C 289.600 157.653,288.430 156.400,286.800 156.400 C 285.693 156.400,285.600 156.510,285.600 157.813 M276.597 205.991 C 276.760 206.503,276.557 207.094,276.024 207.667 C 275.571 208.153,275.245 208.826,275.300 209.161 C 275.356 209.505,275.052 209.830,274.600 209.907 C 273.924 210.022,273.893 209.972,274.400 209.584 C 274.908 209.195,274.887 209.161,274.267 209.362 C 273.864 209.493,273.369 209.600,273.167 209.600 C 272.965 209.600,272.800 209.804,272.800 210.053 C 272.800 210.602,275.890 210.270,276.505 209.655 C 277.132 209.028,277.406 205.200,276.824 205.200 C 276.530 205.200,276.443 205.504,276.597 205.991 M123.355 207.554 C 123.476 208.739,123.633 209.766,123.703 209.836 C 124.132 210.265,127.200 210.447,127.200 210.044 C 127.200 209.758,126.835 209.676,126.235 209.827 C 124.957 210.148,123.437 208.702,123.749 207.462 C 123.869 206.984,123.779 206.325,123.551 205.997 C 123.250 205.566,123.196 205.999,123.355 207.554 M127.200 217.242 C 127.200 218.463,130.077 222.000,131.070 222.000 C 131.974 222.000,131.740 219.303,130.792 218.796 C 130.347 218.558,129.814 218.468,129.606 218.596 C 129.108 218.904,127.706 217.483,127.908 216.875 C 127.995 216.614,127.872 216.400,127.633 216.400 C 127.395 216.400,127.200 216.779,127.200 217.242 M272.400 218.024 C 272.400 218.257,272.232 218.344,272.028 218.217 C 271.823 218.091,271.547 218.162,271.415 218.376 C 271.283 218.590,270.908 218.663,270.582 218.538 C 269.729 218.210,268.800 219.133,268.800 220.307 L 268.800 221.317 269.785 220.254 C 270.326 219.670,271.226 219.018,271.785 218.806 C 272.642 218.480,273.237 217.600,272.600 217.600 C 272.490 217.600,272.400 217.791,272.400 218.024 M268.413 224.600 C 268.354 225.040,268.331 225.548,268.363 225.730 C 268.394 225.911,268.234 225.945,268.007 225.804 C 267.780 225.664,267.484 225.836,267.350 226.187 C 267.193 226.595,266.836 226.738,266.353 226.585 C 265.937 226.453,265.600 226.537,265.600 226.773 C 265.600 227.409,267.828 227.289,268.380 226.624 C 268.643 226.307,268.782 225.542,268.689 224.924 C 268.569 224.129,268.488 224.034,268.413 224.600 M131.749 225.788 C 131.592 226.197,131.712 226.625,132.042 226.834 C 132.838 227.338,134.800 227.284,134.800 226.757 C 134.800 226.513,134.509 226.426,134.152 226.563 C 133.755 226.716,133.216 226.480,132.760 225.953 C 132.081 225.171,131.992 225.156,131.749 225.788 M135.847 231.639 C 136.247 233.811,137.009 234.697,138.724 234.987 C 140.121 235.223,140.260 235.352,140.088 236.254 C 139.776 237.883,140.682 239.079,142.440 239.360 C 143.874 239.589,144.011 239.726,144.240 241.160 C 144.521 242.919,145.718 243.824,147.351 243.511 C 148.388 243.313,148.800 243.786,148.800 245.171 C 148.800 246.102,150.049 247.200,151.108 247.200 C 151.573 247.200,152.064 247.380,152.200 247.600 C 152.521 248.119,153.600 248.119,153.600 247.600 C 153.600 247.380,153.375 247.245,153.100 247.300 C 152.825 247.355,152.642 247.185,152.693 246.922 C 152.744 246.659,152.249 246.062,151.593 245.595 C 150.937 245.128,150.400 244.546,150.400 244.303 C 150.400 244.060,150.867 244.297,151.438 244.830 L 152.476 245.800 152.338 244.800 C 152.221 243.950,151.976 243.791,150.705 243.740 C 149.762 243.702,148.729 243.295,147.905 242.636 C 146.218 241.287,146.079 241.152,145.383 240.200 L 144.798 239.400 145.048 240.200 C 145.186 240.640,145.771 241.413,146.349 241.918 C 146.927 242.422,147.134 242.782,146.810 242.718 C 145.920 242.540,145.213 241.757,144.754 240.441 C 144.490 239.682,143.918 239.110,143.159 238.846 C 141.843 238.387,141.060 237.680,140.882 236.790 C 140.818 236.466,141.178 236.673,141.682 237.251 C 142.187 237.829,142.960 238.414,143.400 238.552 L 144.200 238.802 143.400 238.217 C 142.371 237.465,142.227 237.312,140.748 235.400 C 140.067 234.520,139.374 233.837,139.207 233.883 C 138.897 233.967,138.390 233.491,136.605 231.439 L 135.596 230.279 135.847 231.639 M262.985 231.148 C 262.867 231.267,262.282 231.372,261.685 231.382 C 260.753 231.397,260.585 231.584,260.497 232.700 C 260.312 235.028,260.271 235.200,259.910 235.200 C 259.713 235.200,259.638 235.337,259.741 235.505 C 259.845 235.673,259.668 236.258,259.348 236.805 L 258.767 237.800 259.004 236.800 C 259.226 235.865,259.203 235.847,258.653 236.532 C 258.329 236.935,257.735 237.533,257.332 237.862 C 256.642 238.425,256.655 238.448,257.558 238.252 C 258.944 237.952,258.056 238.622,256.342 239.169 C 255.499 239.438,254.800 239.956,254.685 240.397 C 254.575 240.817,253.881 241.528,253.143 241.978 C 252.404 242.429,252.070 242.811,252.400 242.829 C 252.730 242.846,252.440 243.072,251.756 243.330 C 249.476 244.192,245.958 248.000,247.443 248.000 C 247.796 248.000,247.999 247.775,247.893 247.500 C 247.762 247.159,248.145 247.000,249.102 247.000 C 250.544 247.000,250.888 246.682,251.590 244.700 C 251.915 243.784,252.214 243.600,253.381 243.600 C 254.892 243.600,255.709 242.764,256.217 240.697 C 256.405 239.931,256.812 239.526,257.544 239.373 C 259.336 238.999,259.730 238.609,260.172 236.774 C 260.531 235.285,260.770 234.980,261.658 234.877 C 262.964 234.726,263.818 233.787,264.122 232.167 C 264.338 231.014,263.695 230.438,262.985 231.148 M138.224 232.333 C 138.592 232.957,139.143 233.467,139.447 233.467 C 140.240 233.467,140.132 233.064,139.074 232.070 C 137.795 230.868,137.426 230.982,138.224 232.333 M262.400 231.829 C 262.400 231.954,262.121 232.336,261.781 232.676 C 261.000 233.457,260.531 233.066,261.260 232.242 C 261.806 231.624,262.400 231.409,262.400 231.829 M248.000 244.400 C 248.000 245.347,248.253 245.404,249.029 244.629 C 249.804 243.853,249.747 243.600,248.800 243.600 C 248.267 243.600,248.000 243.867,248.000 244.400 M157.600 247.318 L 156.600 247.823 156.494 260.467 C 156.396 272.233,156.438 273.129,157.094 273.381 C 157.482 273.531,160.500 273.823,163.800 274.031 C 170.304 274.441,174.563 275.326,175.335 276.429 C 175.937 277.288,179.545 278.000,183.297 278.000 C 188.816 278.000,194.579 279.202,196.180 280.687 C 197.378 281.798,202.727 282.051,203.569 281.037 C 204.871 279.469,211.198 278.023,216.827 278.007 C 220.463 277.997,224.041 277.280,225.030 276.363 C 226.314 275.170,229.632 274.503,236.503 274.055 C 239.970 273.829,242.985 273.533,243.203 273.398 C 243.452 273.244,243.600 268.396,243.600 260.366 L 243.600 247.580 242.574 247.190 C 240.776 246.506,239.351 246.738,238.086 247.920 C 237.427 248.535,235.563 249.550,233.944 250.175 C 232.325 250.800,230.640 251.619,230.200 251.996 C 229.760 252.373,229.208 252.788,228.973 252.919 C 228.313 253.287,222.502 254.799,221.707 254.809 C 221.318 254.815,219.920 255.278,218.600 255.838 C 213.582 257.970,212.239 258.140,200.200 258.163 C 188.639 258.186,186.643 257.981,183.000 256.392 C 180.546 255.322,179.227 254.918,176.400 254.367 C 173.394 253.782,171.694 253.135,169.655 251.798 C 168.855 251.273,167.300 250.547,166.200 250.183 C 165.100 249.819,163.405 248.909,162.434 248.161 C 160.565 246.720,159.239 246.489,157.600 247.318 "
              stroke="none" fill="#fc9c04" fill-rule="evenodd"></path>
        <path id="path4"
              d="M184.600 96.457 C 176.947 96.814,174.054 97.148,170.200 98.121 C 167.344 98.841,163.711 99.405,158.000 100.015 C 154.203 100.421,148.823 101.688,147.800 102.418 C 147.221 102.831,143.013 104.000,142.104 104.000 C 140.836 104.000,136.261 105.618,135.400 106.371 C 134.529 107.133,133.467 107.563,129.800 108.642 C 128.287 109.087,126.751 109.912,125.644 110.874 C 124.678 111.713,123.648 112.400,123.356 112.400 C 122.744 112.400,120.102 113.814,119.169 114.641 C 118.821 114.948,118.388 115.200,118.207 115.200 C 118.025 115.200,117.184 115.928,116.338 116.817 L 114.800 118.434 114.804 123.517 C 114.811 131.305,114.897 131.602,117.152 131.593 C 118.544 131.588,119.211 131.364,119.853 130.685 C 120.643 129.852,125.194 128.000,126.454 128.000 C 126.756 128.000,127.889 127.370,128.972 126.600 C 130.055 125.830,131.293 125.200,131.724 125.200 C 132.155 125.200,133.158 125.033,133.954 124.828 C 134.749 124.624,136.480 124.240,137.800 123.977 C 139.120 123.713,140.650 123.193,141.200 122.821 C 143.017 121.594,147.605 120.400,150.504 120.400 C 152.826 120.400,159.508 119.292,162.400 118.428 C 173.421 115.133,227.692 115.130,237.600 118.423 C 239.980 119.215,243.623 119.817,249.600 120.408 C 254.770 120.919,256.314 121.284,258.409 122.492 C 259.394 123.060,261.280 123.739,262.600 124.001 C 268.616 125.197,270.256 125.708,271.677 126.832 C 272.489 127.474,273.526 128.000,273.982 128.000 C 274.438 128.000,275.123 128.158,275.505 128.351 C 275.887 128.544,276.920 128.930,277.800 129.209 C 278.680 129.487,279.796 130.139,280.281 130.658 C 280.975 131.400,281.579 131.600,283.129 131.600 C 285.519 131.600,285.589 131.373,285.596 123.579 L 285.600 118.558 283.938 116.879 C 283.023 115.956,282.088 115.200,281.860 115.200 C 281.631 115.200,280.984 114.777,280.422 114.260 C 279.860 113.743,278.593 113.008,277.608 112.626 C 276.622 112.245,275.002 111.337,274.008 110.609 C 273.013 109.882,270.781 108.798,269.047 108.201 C 267.313 107.604,265.113 106.620,264.159 106.015 C 263.204 105.410,261.293 104.696,259.912 104.430 C 256.950 103.858,253.166 102.809,252.600 102.403 C 252.380 102.245,251.750 101.991,251.200 101.839 C 250.650 101.688,249.300 101.318,248.200 101.018 C 247.100 100.718,244.400 100.268,242.200 100.017 C 236.406 99.358,232.925 98.808,230.200 98.122 C 222.944 96.295,203.368 95.580,184.600 96.457 M146.213 274.021 C 146.302 274.165,146.116 274.624,145.800 275.041 C 145.484 275.458,145.220 276.103,145.213 276.473 C 145.197 277.285,144.491 277.501,141.600 277.578 C 138.866 277.651,138.353 277.733,137.600 278.216 C 136.869 278.684,136.000 280.179,136.000 280.967 C 136.000 281.417,135.183 281.582,132.300 281.712 C 130.265 281.803,128.330 281.971,128.000 282.085 C 125.029 283.107,123.983 284.021,124.321 285.300 C 124.364 285.465,123.995 285.610,123.500 285.623 C 119.843 285.715,116.581 286.084,116.133 286.456 C 115.722 286.797,115.593 286.726,115.568 286.149 C 115.545 285.601,115.483 285.561,115.337 286.000 C 115.227 286.330,115.031 286.870,114.903 287.200 C 114.679 287.776,114.558 288.153,114.450 288.614 C 114.422 288.732,114.026 288.628,113.570 288.384 C 112.793 287.968,112.771 288.000,113.224 288.870 C 113.490 289.381,113.566 289.667,113.391 289.503 C 113.216 289.340,112.818 289.419,112.506 289.678 C 112.068 290.042,111.866 290.031,111.618 289.629 C 111.417 289.304,111.241 289.268,111.148 289.533 C 111.067 289.766,110.100 289.995,109.000 290.041 C 107.900 290.087,106.696 290.277,106.324 290.463 C 105.934 290.659,105.550 290.642,105.415 290.424 C 105.138 289.976,102.397 292.607,102.406 293.313 C 102.410 293.626,102.564 293.586,102.837 293.200 C 103.214 292.667,103.243 292.667,103.099 293.200 C 102.933 293.816,99.808 294.309,96.717 294.208 C 95.688 294.175,95.346 294.293,95.597 294.596 C 95.836 294.885,95.692 295.053,95.171 295.092 C 94.666 295.130,94.481 294.981,94.655 294.676 C 94.806 294.414,94.772 294.343,94.580 294.517 C 94.389 294.691,94.284 295.546,94.347 296.417 L 94.461 298.000 92.531 298.036 C 88.902 298.105,87.216 298.251,86.945 298.522 C 86.796 298.671,86.428 298.589,86.128 298.340 C 85.691 297.978,85.637 298.032,85.859 298.609 C 86.052 299.113,85.991 299.242,85.658 299.036 C 85.395 298.873,85.206 298.889,85.237 299.070 C 85.442 300.245,84.299 301.207,83.751 300.321 C 83.570 300.027,83.667 299.989,84.038 300.207 C 84.347 300.389,84.257 300.147,83.838 299.669 C 83.419 299.191,82.946 298.800,82.787 298.800 C 82.368 298.800,81.445 301.178,81.746 301.479 C 81.886 301.619,82.000 301.433,82.000 301.067 C 82.000 300.700,82.199 300.400,82.443 300.400 C 82.686 300.400,82.787 300.658,82.666 300.973 C 82.510 301.379,82.683 301.500,83.259 301.389 C 83.879 301.269,83.971 301.353,83.649 301.741 C 83.213 302.267,81.078 302.533,77.100 302.560 C 75.571 302.570,74.800 302.738,74.800 303.060 C 74.800 303.328,74.454 303.656,74.031 303.790 C 72.976 304.125,72.946 339.742,74.000 340.409 C 75.893 341.607,78.608 341.184,80.739 339.360 C 81.609 338.615,84.201 337.616,85.289 337.606 C 86.023 337.600,89.414 336.085,91.400 334.877 C 92.060 334.475,93.770 333.823,95.200 333.428 C 97.987 332.657,99.828 331.829,100.709 330.948 C 101.010 330.647,101.568 330.400,101.949 330.400 C 102.329 330.400,102.811 330.253,103.020 330.073 C 103.229 329.893,104.390 329.507,105.600 329.214 C 106.810 328.922,108.842 328.008,110.116 327.183 C 111.389 326.358,113.099 325.562,113.916 325.414 C 116.340 324.974,118.919 324.002,120.200 323.046 C 121.468 322.101,122.662 321.604,125.600 320.801 C 127.844 320.187,129.066 319.647,130.600 318.588 C 131.885 317.701,134.251 316.800,135.295 316.800 C 136.065 316.800,139.699 315.279,139.992 314.834 C 140.328 314.325,142.787 313.313,145.859 312.421 C 148.942 311.526,148.966 311.498,149.829 308.000 C 150.674 304.574,150.612 282.560,149.749 279.600 C 149.396 278.390,149.020 276.725,148.912 275.900 C 148.804 275.075,148.510 274.397,148.258 274.394 C 148.006 274.391,148.070 274.208,148.400 273.989 C 148.846 273.692,148.622 273.612,147.526 273.675 C 146.715 273.722,146.124 273.878,146.213 274.021 M251.950 273.753 C 251.923 273.889,251.875 274.135,251.844 274.300 C 251.813 274.465,251.688 274.780,251.565 275.000 C 251.443 275.220,251.310 275.922,251.271 276.560 C 251.231 277.197,250.974 277.990,250.700 278.321 C 250.320 278.779,250.200 282.484,250.202 293.761 C 250.203 312.238,249.942 311.348,255.800 312.829 C 256.900 313.108,258.700 313.897,259.800 314.583 C 260.900 315.269,262.610 316.075,263.600 316.373 C 267.867 317.659,268.979 318.071,269.960 318.730 C 270.532 319.114,271.450 319.627,272.000 319.869 C 272.889 320.260,273.663 320.494,277.089 321.410 C 277.579 321.540,278.839 322.230,279.889 322.942 C 281.720 324.181,283.059 324.708,286.624 325.589 C 287.517 325.809,289.080 326.542,290.099 327.216 C 291.117 327.890,293.160 328.788,294.640 329.211 C 296.119 329.635,297.976 330.318,298.765 330.731 C 299.554 331.143,300.780 331.789,301.490 332.165 C 302.199 332.541,303.909 333.133,305.290 333.481 C 306.670 333.829,308.700 334.680,309.800 335.372 C 310.900 336.064,312.610 336.875,313.600 337.173 C 318.127 338.537,319.088 338.925,320.386 339.915 C 322.063 341.194,325.444 341.414,326.543 340.314 C 327.411 339.446,327.562 307.014,326.700 306.664 C 326.376 306.532,326.341 306.345,326.600 306.130 C 326.820 305.949,327.046 305.350,327.101 304.800 C 327.180 304.020,327.115 303.932,326.807 304.400 C 326.478 304.900,326.410 304.866,326.400 304.200 C 326.390 303.536,326.322 303.502,326.000 304.000 C 325.698 304.468,325.611 304.357,325.606 303.500 C 325.603 302.895,325.420 302.400,325.200 302.400 C 324.980 302.400,324.800 302.570,324.800 302.777 C 324.800 302.984,324.395 303.062,323.900 302.949 C 323.041 302.753,320.188 302.459,317.959 302.338 C 317.387 302.307,316.699 301.929,316.430 301.499 C 316.161 301.068,316.123 300.829,316.346 300.967 C 316.573 301.107,316.725 300.870,316.692 300.429 C 316.647 299.833,316.507 299.745,316.116 300.069 C 315.754 300.370,315.600 300.371,315.600 300.073 C 315.600 299.839,315.780 299.536,316.000 299.400 C 316.910 298.838,316.332 298.376,315.026 298.622 C 314.270 298.763,313.415 298.733,313.126 298.554 C 312.837 298.375,311.160 298.158,309.400 298.073 C 306.493 297.931,305.358 297.515,305.824 296.760 C 306.717 295.316,304.947 294.199,301.640 294.120 C 297.917 294.031,297.197 293.867,297.206 293.113 C 297.210 292.754,297.329 292.780,297.600 293.200 C 297.931 293.713,297.989 293.698,297.994 293.100 C 297.997 292.715,297.708 292.400,297.351 292.400 C 296.827 292.400,296.796 292.287,297.187 291.816 C 297.589 291.331,297.528 291.260,296.825 291.395 C 296.358 291.485,296.084 291.388,296.213 291.179 C 296.342 290.971,296.167 290.778,295.824 290.750 C 295.065 290.689,294.785 290.614,293.960 290.246 C 293.608 290.089,293.158 289.990,292.960 290.027 C 290.799 290.432,289.322 289.944,288.689 288.618 C 287.968 287.105,285.600 285.516,285.600 286.545 C 285.600 286.856,285.911 287.086,286.290 287.056 C 286.670 287.025,286.985 287.270,286.990 287.600 C 286.996 287.930,287.255 288.200,287.567 288.200 C 287.878 288.200,288.204 288.411,288.289 288.668 C 288.375 288.925,288.169 289.095,287.831 289.046 C 287.062 288.933,285.281 287.285,285.012 286.437 C 284.871 285.992,284.296 285.792,283.105 285.773 C 276.575 285.669,276.506 285.658,276.555 284.700 C 276.604 283.720,275.386 282.238,274.820 282.588 C 274.626 282.707,274.407 282.620,274.331 282.393 C 274.255 282.166,273.025 281.875,271.597 281.745 C 270.169 281.615,268.940 281.349,268.867 281.155 C 268.793 280.960,268.558 280.800,268.343 280.800 C 268.128 280.800,268.064 280.980,268.200 281.200 C 268.336 281.420,268.077 281.600,267.624 281.600 C 267.171 281.600,266.800 281.409,266.800 281.176 C 266.800 280.943,267.008 280.881,267.262 281.038 C 267.559 281.222,267.615 281.147,267.418 280.829 C 267.240 280.541,266.724 280.433,266.181 280.569 C 265.660 280.700,265.123 280.599,264.963 280.340 C 264.786 280.053,264.851 279.985,265.135 280.160 C 265.387 280.316,265.910 280.263,266.297 280.044 C 266.944 279.676,266.936 279.643,266.200 279.627 C 264.504 279.592,264.083 279.450,264.265 278.974 C 264.369 278.703,264.262 278.362,264.027 278.217 C 263.792 278.072,263.595 278.188,263.588 278.476 C 263.580 278.802,263.423 278.738,263.171 278.306 C 262.949 277.924,262.369 277.631,261.883 277.654 C 258.975 277.791,255.140 276.937,256.057 276.356 C 256.448 276.109,256.319 276.002,255.600 275.975 C 255.050 275.954,254.825 275.846,255.100 275.735 C 255.375 275.624,255.600 275.268,255.600 274.943 C 255.600 274.618,255.420 274.464,255.200 274.600 C 254.980 274.736,254.800 274.687,254.800 274.490 C 254.800 274.294,254.575 274.116,254.300 274.096 C 254.025 274.075,253.395 273.934,252.900 273.782 C 252.405 273.631,251.978 273.618,251.950 273.753 M242.294 277.203 C 241.912 278.084,241.600 278.896,241.600 279.006 C 241.600 279.117,241.130 279.735,240.555 280.380 C 239.198 281.903,238.671 282.955,238.040 285.400 C 237.279 288.346,236.750 289.660,235.784 291.000 C 234.779 292.393,234.529 293.009,233.758 296.000 C 233.117 298.482,232.495 299.872,231.560 300.911 C 231.208 301.302,230.603 302.742,230.215 304.111 C 229.152 307.862,228.754 308.852,227.600 310.600 C 226.338 312.512,225.726 314.044,225.363 316.200 C 225.056 318.018,224.305 319.642,222.941 321.438 C 222.423 322.119,222.000 322.965,222.000 323.319 C 222.000 323.673,221.833 324.376,221.630 324.881 C 221.426 325.387,221.027 326.655,220.743 327.700 C 220.458 328.745,220.106 329.600,219.960 329.600 C 219.541 329.600,217.694 333.590,217.029 335.934 C 216.695 337.108,216.036 338.695,215.563 339.460 L 214.703 340.852 214.031 339.726 C 212.699 337.495,212.350 336.167,211.157 328.800 C 210.890 327.150,210.550 325.620,210.403 325.400 C 210.255 325.180,209.908 323.920,209.631 322.600 C 209.354 321.280,208.959 319.390,208.752 318.400 C 207.314 311.526,208.188 307.425,211.778 304.208 C 213.918 302.290,214.000 302.143,213.992 300.208 L 213.985 298.200 208.062 292.300 L 202.140 286.400 200.092 286.400 C 198.167 286.400,197.941 286.512,196.322 288.266 C 195.375 289.292,194.166 290.507,193.635 290.966 C 193.105 291.425,192.295 292.229,191.835 292.754 C 191.376 293.279,190.210 294.449,189.245 295.354 C 188.280 296.259,187.245 297.238,186.945 297.529 C 185.378 299.048,186.239 302.100,188.974 304.715 C 192.743 308.319,193.049 315.335,189.879 325.476 C 189.548 326.534,189.070 328.840,188.817 330.600 C 188.083 335.705,186.533 340.400,185.583 340.400 C 185.127 340.400,184.169 338.755,183.603 337.000 C 182.469 333.482,181.427 330.985,180.978 330.709 C 180.402 330.356,179.908 329.120,178.776 325.207 C 178.300 323.561,177.409 321.485,176.796 320.594 C 176.183 319.703,175.368 317.726,174.986 316.201 C 174.324 313.561,174.007 312.844,172.075 309.600 C 171.616 308.830,170.965 307.142,170.629 305.849 C 170.293 304.556,169.698 302.911,169.309 302.193 C 167.681 299.194,166.846 297.298,166.407 295.600 C 166.151 294.610,165.601 293.170,165.184 292.400 C 163.540 289.361,162.400 286.740,162.400 286.000 C 162.400 284.862,160.582 280.942,159.870 280.543 C 159.533 280.354,158.847 279.300,158.346 278.200 L 157.435 276.200 157.294 277.473 C 157.013 280.018,158.980 284.400,160.405 284.400 C 160.560 284.400,160.919 285.795,161.203 287.500 C 161.796 291.067,162.432 292.541,163.751 293.405 C 164.505 293.899,164.824 294.731,165.398 297.702 C 166.243 302.076,167.185 303.928,168.844 304.481 C 169.048 304.549,169.311 305.594,169.428 306.802 C 169.827 310.919,171.196 314.000,172.627 314.000 C 173.241 314.000,173.595 314.904,173.618 316.533 C 173.653 319.102,174.985 322.713,176.372 324.000 C 177.296 324.857,177.999 326.630,178.006 328.119 C 178.015 330.131,179.002 332.467,180.352 333.673 C 181.393 334.604,181.661 335.240,182.046 337.689 C 182.522 340.728,183.546 343.007,184.842 343.914 C 185.839 344.613,186.800 346.501,186.800 347.760 C 186.800 349.624,187.643 352.706,188.323 353.327 C 191.299 356.042,191.200 355.878,191.202 358.082 C 191.206 361.315,191.789 362.905,193.294 363.780 C 195.032 364.791,195.187 365.078,195.194 367.294 C 195.210 372.363,196.820 374.800,200.152 374.800 C 203.394 374.800,204.465 373.323,204.987 368.133 C 205.300 365.009,205.422 364.719,206.699 364.047 C 208.149 363.283,209.200 360.755,209.200 358.033 C 209.200 355.758,209.274 355.576,210.628 354.517 C 212.481 353.067,213.200 351.656,213.200 349.469 C 213.200 347.139,214.054 345.186,215.898 343.300 C 217.430 341.732,218.400 338.955,218.400 336.136 C 218.400 335.201,218.727 334.646,219.723 333.886 C 221.118 332.822,221.596 331.653,222.444 327.239 C 222.807 325.346,223.230 324.396,224.064 323.599 C 225.378 322.343,226.178 320.292,226.561 317.197 C 226.873 314.676,227.056 314.301,228.301 313.645 C 229.494 313.017,230.324 310.928,230.652 307.727 C 230.888 305.418,231.090 304.943,232.383 303.656 C 233.864 302.184,234.206 301.285,235.258 296.100 C 235.537 294.725,235.955 293.600,236.188 293.600 C 237.432 293.600,239.176 289.379,239.192 286.327 C 239.198 285.150,239.442 284.682,240.409 283.994 C 241.896 282.935,242.620 281.272,242.993 278.063 C 243.328 275.172,243.228 275.048,242.294 277.203 M113.675 286.422 C 112.507 286.890,111.600 287.787,111.600 288.471 C 111.601 288.762,112.027 288.505,112.547 287.900 C 113.067 287.295,113.687 286.800,113.923 286.800 C 114.159 286.800,114.464 286.620,114.600 286.400 C 114.887 285.935,114.888 285.935,113.675 286.422 M317.562 299.289 C 317.993 299.862,317.972 300.085,317.440 300.617 C 317.088 300.969,316.800 301.374,316.800 301.517 C 316.800 301.661,317.199 301.378,317.687 300.890 C 318.559 300.018,318.561 299.991,317.809 299.302 C 317.113 298.663,317.090 298.662,317.562 299.289 M95.640 307.653 C 103.160 310.158,103.348 322.679,95.913 325.780 C 88.919 328.697,82.398 324.285,82.401 316.639 C 82.404 309.342,88.432 305.251,95.640 307.653 M312.651 307.841 C 319.922 310.851,319.896 322.726,312.612 325.769 C 308.955 327.297,304.113 326.373,301.484 323.646 C 294.008 315.892,302.628 303.692,312.651 307.841 "
              stroke="none" fill="#3c52b3" fill-rule="evenodd"></path>
        <path id="path5"
              d="M196.200 49.465 C 193.807 49.663,192.130 50.384,190.820 51.779 C 190.288 52.345,189.196 52.986,188.394 53.202 C 186.790 53.633,184.000 55.803,184.000 56.618 C 184.000 56.901,183.781 57.206,183.514 57.295 C 182.036 57.788,183.243 67.081,185.078 69.331 C 185.585 69.953,186.000 70.797,186.000 71.207 C 186.000 71.617,186.180 72.064,186.400 72.200 C 186.620 72.336,186.800 72.861,186.800 73.367 C 186.800 73.873,187.520 75.105,188.400 76.105 C 189.280 77.105,190.000 78.053,190.000 78.212 C 190.000 78.795,194.639 82.855,195.949 83.419 C 199.128 84.788,204.401 84.036,206.503 81.914 C 207.110 81.301,207.740 80.788,207.903 80.774 C 208.784 80.697,213.062 74.610,213.809 72.372 C 214.261 71.020,214.938 69.688,215.315 69.413 C 215.692 69.137,216.000 68.653,216.000 68.336 C 216.000 68.019,216.168 67.589,216.374 67.380 C 216.580 67.171,216.958 65.470,217.214 63.600 C 217.979 58.013,215.857 54.116,211.466 53.044 C 210.842 52.892,209.889 52.326,209.349 51.786 C 207.335 49.772,202.604 48.937,196.200 49.465 M205.659 51.767 C 206.406 52.079,207.330 52.681,207.714 53.105 C 208.098 53.529,209.170 54.126,210.098 54.432 C 214.813 55.988,217.301 62.304,214.520 65.655 C 213.795 66.528,212.578 69.564,212.030 71.863 C 211.759 72.997,211.186 74.257,210.755 74.663 C 210.324 75.068,209.663 75.754,209.286 76.186 C 202.408 84.062,199.112 84.533,193.115 78.493 C 190.327 75.686,188.400 73.360,188.404 72.807 C 188.409 72.073,186.717 67.082,186.367 66.800 C 185.017 65.710,184.176 60.793,185.051 59.102 C 185.807 57.639,188.637 54.800,189.338 54.800 C 189.616 54.800,190.734 54.219,191.822 53.509 C 192.910 52.799,194.250 52.004,194.800 51.742 C 196.260 51.046,203.976 51.064,205.659 51.767 M134.962 148.062 C 134.780 148.356,134.853 148.415,135.163 148.223 C 135.431 148.057,135.954 148.182,136.325 148.500 C 136.696 148.818,137.270 149.215,137.600 149.383 C 137.930 149.551,137.660 149.225,137.000 148.658 C 135.640 147.491,135.364 147.411,134.962 148.062 M266.102 160.000 C 266.077 164.950,266.179 169.310,266.328 169.689 C 266.478 170.068,266.552 166.918,266.492 162.689 C 266.331 151.115,266.154 149.896,266.102 160.000 M179.505 158.683 C 180.002 158.779,180.722 158.775,181.105 158.675 C 181.487 158.575,181.080 158.496,180.200 158.501 C 179.320 158.505,179.007 158.587,179.505 158.683 M218.905 158.687 C 219.514 158.779,220.414 158.777,220.905 158.682 C 221.397 158.587,220.900 158.511,219.800 158.514 C 218.700 158.517,218.297 158.595,218.905 158.687 M190.307 159.090 C 191.026 159.179,192.106 159.177,192.707 159.086 C 193.308 158.995,192.720 158.922,191.400 158.924 C 190.080 158.926,189.588 159.001,190.307 159.090 M207.507 159.090 C 208.226 159.179,209.306 159.177,209.907 159.086 C 210.508 158.995,209.920 158.922,208.600 158.924 C 207.280 158.926,206.788 159.001,207.507 159.090 M133.400 170.000 C 133.250 170.473,133.217 170.950,133.327 171.060 C 133.437 171.170,133.650 170.873,133.800 170.400 C 133.950 169.927,133.983 169.450,133.873 169.340 C 133.763 169.230,133.550 169.527,133.400 170.000 M127.594 171.182 C 128.141 171.602,128.668 171.866,128.765 171.769 C 128.991 171.542,127.529 170.427,127.000 170.422 C 126.780 170.420,127.047 170.761,127.594 171.182 M271.754 171.286 C 271.119 171.773,270.229 172.590,269.775 173.100 C 268.878 174.109,268.416 173.870,267.268 171.800 C 267.024 171.360,266.820 171.180,266.814 171.400 C 266.798 171.987,268.332 174.400,268.721 174.400 C 268.903 174.400,270.001 173.500,271.161 172.400 C 273.409 170.267,273.636 169.841,271.754 171.286 M129.994 173.100 C 130.467 173.815,131.108 174.400,131.418 174.400 C 132.085 174.400,133.429 172.496,133.038 172.105 C 132.890 171.956,132.668 172.220,132.545 172.690 C 132.184 174.067,131.167 174.161,130.094 172.915 L 129.134 171.800 129.994 173.100 M241.266 275.097 C 240.808 275.666,240.533 276.292,240.655 276.488 C 240.961 276.984,240.504 278.636,239.884 279.272 C 239.201 279.973,238.126 282.307,237.798 283.800 C 237.269 286.212,236.375 288.448,234.999 290.800 C 234.215 292.141,233.986 292.755,232.764 296.800 C 232.465 297.790,231.920 298.928,231.553 299.329 C 230.843 300.105,230.204 301.700,228.799 306.200 C 228.318 307.739,227.783 309.089,227.609 309.200 C 227.017 309.575,225.697 312.249,225.423 313.627 C 224.898 316.268,223.784 318.973,222.748 320.124 C 222.390 320.522,221.708 322.142,221.233 323.724 C 220.444 326.350,219.335 328.871,217.519 332.165 C 217.145 332.844,216.830 333.800,216.819 334.289 C 216.775 336.321,214.798 339.869,214.178 339.029 C 213.333 337.886,213.200 338.424,214.005 339.727 L 214.702 340.854 215.562 339.461 C 216.035 338.695,216.695 337.108,217.029 335.934 C 217.694 333.590,219.541 329.600,219.960 329.600 C 220.106 329.600,220.458 328.745,220.743 327.700 C 221.027 326.655,221.426 325.387,221.630 324.881 C 221.833 324.376,222.000 323.673,222.000 323.319 C 222.000 322.965,222.423 322.119,222.941 321.438 C 224.305 319.642,225.056 318.018,225.363 316.200 C 225.726 314.044,226.338 312.512,227.600 310.600 C 228.754 308.852,229.152 307.862,230.215 304.111 C 230.603 302.742,231.208 301.302,231.560 300.911 C 232.495 299.872,233.117 298.482,233.758 296.000 C 234.529 293.009,234.779 292.393,235.784 291.000 C 236.750 289.660,237.279 288.346,238.040 285.400 C 238.671 282.955,239.198 281.903,240.555 280.380 C 241.130 279.735,241.606 279.070,241.614 278.903 C 241.621 278.737,241.975 277.880,242.400 277.000 C 243.668 274.375,242.893 273.075,241.266 275.097 M157.200 275.061 C 157.200 276.047,159.215 280.148,159.893 280.543 C 160.591 280.949,162.400 284.887,162.400 286.000 C 162.400 286.740,163.540 289.361,165.184 292.400 C 165.601 293.170,166.151 294.610,166.407 295.600 C 166.846 297.298,167.681 299.194,169.309 302.193 C 169.698 302.911,170.293 304.556,170.629 305.849 C 170.965 307.142,171.616 308.830,172.075 309.600 C 174.007 312.844,174.324 313.561,174.986 316.201 C 175.368 317.726,176.183 319.703,176.796 320.594 C 177.409 321.485,178.300 323.561,178.776 325.207 C 179.908 329.120,180.402 330.356,180.978 330.709 C 181.451 330.999,182.674 333.955,183.591 337.019 C 184.392 339.701,185.409 340.798,186.167 339.800 C 186.890 338.848,187.005 338.035,186.320 338.720 C 185.357 339.683,184.556 338.537,183.580 334.800 C 183.026 332.678,181.602 329.600,181.174 329.600 C 181.009 329.600,180.563 328.565,180.182 327.300 C 178.546 321.871,178.237 321.067,177.390 320.061 C 176.517 319.022,175.200 315.736,175.200 314.597 C 175.200 314.026,174.022 311.444,172.190 308.000 C 171.664 307.010,171.226 305.892,171.216 305.515 C 171.189 304.384,169.634 300.561,168.818 299.621 C 168.399 299.138,167.753 297.721,167.382 296.471 C 166.263 292.706,165.490 290.748,164.884 290.141 C 164.301 289.558,162.400 284.380,162.400 283.374 C 162.400 283.072,162.040 282.189,161.600 281.412 C 161.160 280.635,160.429 279.345,159.976 278.544 C 159.398 277.524,159.277 276.963,159.573 276.667 C 159.868 276.372,159.735 275.970,159.127 275.323 C 158.114 274.244,157.200 274.120,157.200 275.061 M199.107 284.290 C 199.826 284.379,200.906 284.377,201.507 284.286 C 202.108 284.195,201.520 284.122,200.200 284.124 C 198.880 284.126,198.388 284.201,199.107 284.290 M87.358 307.963 C 80.248 311.192,80.461 322.766,87.687 325.780 C 94.642 328.681,101.200 324.284,101.200 316.719 C 101.200 309.129,94.343 304.791,87.358 307.963 M304.600 307.679 C 296.906 310.346,297.036 323.627,304.778 325.946 C 313.309 328.502,319.276 322.774,317.743 313.499 C 316.991 308.950,309.941 305.828,304.600 307.679 M94.829 309.713 C 100.615 314.191,100.615 319.409,94.829 323.887 C 94.483 324.155,93.120 324.375,91.800 324.375 C 89.107 324.375,88.901 324.259,86.229 321.240 L 84.317 319.079 84.478 316.440 C 84.637 313.827,84.663 313.777,86.963 311.500 L 89.287 309.200 91.743 309.213 C 93.095 309.220,94.483 309.445,94.829 309.713 M311.600 309.713 C 316.483 313.678,317.390 317.640,314.200 321.065 C 313.210 322.129,312.400 323.105,312.400 323.235 C 312.400 323.793,310.197 324.400,308.171 324.400 C 306.016 324.400,305.940 324.359,303.590 321.957 L 301.200 319.515 301.200 316.780 L 301.200 314.044 303.500 311.636 L 305.800 309.229 308.400 309.227 C 309.851 309.226,311.265 309.441,311.600 309.713 "
              stroke="none" fill="#7c7471" fill-rule="evenodd"></path>
        <path id="path6"
              d="M186.071 23.829 C 185.191 24.826,185.735 25.066,186.686 24.100 C 187.173 23.605,187.353 23.207,187.086 23.215 C 186.819 23.224,186.362 23.500,186.071 23.829 M216.657 23.597 C 217.129 23.787,217.804 24.356,218.157 24.860 C 218.677 25.602,218.800 25.646,218.800 25.089 C 218.800 24.710,218.609 24.400,218.376 24.400 C 218.143 24.400,218.081 24.192,218.238 23.938 C 218.415 23.652,218.348 23.585,218.062 23.762 C 217.808 23.919,217.600 23.857,217.600 23.624 C 217.600 23.391,217.195 23.211,216.700 23.225 L 215.800 23.251 216.657 23.597 M178.677 27.480 C 177.567 27.768,176.622 30.800,177.643 30.800 C 177.886 30.800,177.983 30.532,177.857 30.204 C 177.557 29.423,179.423 27.557,180.204 27.857 C 180.532 27.983,180.800 27.886,180.800 27.643 C 180.800 27.196,180.007 27.135,178.677 27.480 M223.600 27.643 C 223.600 27.886,223.868 27.983,224.196 27.857 C 224.977 27.557,226.843 29.423,226.543 30.204 C 226.417 30.532,226.514 30.800,226.757 30.800 C 227.499 30.800,227.251 28.851,226.400 28.000 C 225.549 27.149,223.600 26.901,223.600 27.643 M231.130 34.247 C 231.260 35.363,231.455 35.600,232.244 35.600 C 233.485 35.600,233.450 35.233,232.086 33.946 L 230.972 32.894 231.130 34.247 M167.600 35.975 C 167.600 36.182,167.105 36.317,166.500 36.275 C 165.562 36.211,165.407 36.348,165.447 37.200 C 165.472 37.750,165.320 38.312,165.107 38.448 C 164.895 38.584,164.796 39.034,164.888 39.448 C 165.017 40.025,165.208 39.848,165.713 38.686 C 166.172 37.629,166.799 36.993,167.786 36.580 C 169.380 35.914,169.577 35.600,168.400 35.600 C 167.960 35.600,167.600 35.769,167.600 35.975 M235.770 35.952 C 236.162 36.586,237.563 36.768,237.327 36.155 C 237.210 35.850,236.763 35.600,236.334 35.600 C 235.904 35.600,235.651 35.758,235.770 35.952 M238.133 36.522 C 238.133 36.822,238.378 37.067,238.678 37.067 C 238.977 37.067,239.161 36.883,239.086 36.658 C 238.874 36.021,238.133 35.915,238.133 36.522 M238.868 38.824 C 239.365 40.250,239.600 40.320,239.600 39.043 C 239.600 38.516,239.343 37.987,239.029 37.867 C 238.560 37.687,238.532 37.858,238.868 38.824 M247.212 44.249 C 247.195 44.875,250.109 48.000,250.709 48.000 C 250.979 48.000,251.200 47.865,251.200 47.700 C 251.199 47.092,249.287 45.200,248.673 45.200 C 248.325 45.200,247.856 44.885,247.632 44.500 C 247.408 44.115,247.219 44.002,247.212 44.249 M153.280 44.880 C 152.719 45.441,152.639 47.054,153.156 47.373 C 153.352 47.494,153.797 47.158,154.146 46.627 C 154.494 46.095,155.167 45.537,155.642 45.387 C 156.319 45.172,156.386 45.037,155.953 44.762 C 155.162 44.262,153.840 44.320,153.280 44.880 M148.480 48.480 C 147.919 49.041,147.841 50.000,148.356 50.000 C 148.551 50.000,148.686 49.685,148.656 49.300 C 148.621 48.861,148.861 48.621,149.300 48.656 C 149.685 48.686,150.000 48.551,150.000 48.356 C 150.000 47.841,149.041 47.919,148.480 48.480 M252.400 48.375 C 252.400 48.665,252.702 48.758,253.166 48.611 C 253.681 48.447,254.275 48.711,254.982 49.418 C 255.689 50.125,255.953 50.719,255.789 51.234 C 255.642 51.698,255.735 52.000,256.025 52.000 C 256.563 52.000,256.281 49.321,255.680 48.720 C 255.079 48.119,252.400 47.837,252.400 48.375 M142.000 52.800 C 142.000 53.269,142.307 53.269,143.400 52.800 C 144.109 52.495,144.075 52.453,143.100 52.428 C 142.495 52.413,142.000 52.580,142.000 52.800 M140.167 53.342 C 140.038 53.677,140.137 54.277,140.386 54.676 C 140.786 55.317,140.809 55.295,140.589 54.490 C 140.452 53.989,140.488 53.629,140.670 53.690 C 140.851 53.750,141.059 53.625,141.130 53.410 C 141.348 52.756,140.417 52.690,140.167 53.342 M260.330 55.047 C 260.460 56.163,260.655 56.400,261.444 56.400 C 262.685 56.400,262.650 56.033,261.286 54.746 L 260.172 53.694 260.330 55.047 M134.288 56.884 C 133.261 57.156,132.588 57.650,132.188 58.423 C 131.504 59.747,131.345 61.414,132.000 60.400 C 132.345 59.867,132.390 59.867,132.410 60.400 C 132.422 60.734,132.695 60.516,133.024 59.908 C 133.350 59.308,134.108 58.532,134.708 58.183 C 135.726 57.592,135.352 57.626,133.700 58.275 C 133.087 58.516,133.068 58.466,133.549 57.875 C 133.851 57.504,134.425 57.200,134.825 57.200 C 135.225 57.200,135.664 57.020,135.800 56.800 C 135.936 56.580,135.992 56.419,135.924 56.441 C 135.856 56.464,135.120 56.663,134.288 56.884 M266.000 56.827 C 266.000 57.072,266.341 57.146,266.800 57.000 C 267.399 56.810,267.602 56.929,267.606 57.473 C 267.611 58.078,267.675 58.101,267.985 57.611 C 268.231 57.222,268.195 56.917,267.879 56.717 C 267.171 56.267,266.000 56.336,266.000 56.827 M124.252 61.396 C 123.710 61.804,123.574 62.241,123.759 62.980 C 123.908 63.573,123.845 64.000,123.608 64.000 C 123.383 64.000,123.200 64.180,123.200 64.400 C 123.200 64.978,123.733 64.892,124.624 64.170 C 125.051 63.824,125.152 63.669,124.848 63.826 C 124.479 64.017,124.363 63.928,124.498 63.556 C 124.609 63.250,124.916 63.049,125.180 63.110 C 125.444 63.170,125.553 63.048,125.423 62.838 C 125.293 62.627,125.373 62.340,125.600 62.200 C 125.827 62.060,125.898 61.758,125.756 61.530 C 125.598 61.273,125.787 61.204,126.250 61.348 C 126.662 61.477,127.232 61.436,127.516 61.257 C 127.840 61.054,127.465 60.914,126.516 60.883 C 125.682 60.856,124.663 61.087,124.252 61.396 M273.938 61.255 C 274.453 61.446,275.037 61.501,275.237 61.377 C 275.437 61.254,275.600 61.433,275.600 61.776 C 275.600 62.119,275.890 62.400,276.243 62.400 C 276.730 62.400,276.826 62.644,276.636 63.400 C 276.491 63.977,276.557 64.400,276.792 64.400 C 277.243 64.400,277.334 63.215,276.958 62.235 C 276.825 61.888,276.557 61.703,276.363 61.823 C 276.168 61.943,276.107 61.787,276.226 61.475 C 276.393 61.041,276.043 60.909,274.723 60.909 C 273.300 60.909,273.164 60.969,273.938 61.255 M116.000 65.224 C 116.000 65.457,115.792 65.519,115.538 65.362 C 115.265 65.193,115.184 65.251,115.341 65.504 C 115.486 65.739,115.397 66.001,115.142 66.086 C 114.888 66.171,114.752 66.411,114.840 66.620 C 114.928 66.829,115.484 66.505,116.074 65.900 C 116.782 65.176,116.953 64.800,116.574 64.800 C 116.259 64.800,116.000 64.991,116.000 65.224 M284.103 65.533 C 284.710 65.933,285.085 66.382,284.937 66.530 C 284.788 66.679,284.896 66.800,285.176 66.800 C 285.476 66.800,285.586 66.540,285.443 66.167 C 285.309 65.819,285.200 65.449,285.200 65.344 C 285.200 65.239,285.020 65.264,284.800 65.400 C 284.580 65.536,284.400 65.457,284.400 65.224 C 284.400 64.991,284.085 64.801,283.700 64.803 C 283.180 64.805,283.283 64.992,284.103 65.533 M100.094 69.615 C 98.688 70.180,97.766 73.200,99.000 73.200 C 99.330 73.200,99.600 72.961,99.600 72.670 C 99.600 72.053,101.083 70.631,102.100 70.272 C 102.485 70.136,102.800 69.839,102.800 69.613 C 102.800 69.113,101.339 69.115,100.094 69.615 M297.422 69.888 C 297.276 70.266,297.280 70.453,297.430 70.304 C 297.885 69.848,300.012 71.180,300.382 72.152 C 300.793 73.233,302.000 73.382,302.000 72.352 C 302.000 70.910,301.117 69.683,299.904 69.441 C 298.073 69.075,297.709 69.140,297.422 69.888 M101.108 70.224 C 100.508 70.550,99.750 71.308,99.424 71.908 C 99.051 72.596,98.826 72.761,98.816 72.355 C 98.807 72.000,99.275 71.235,99.855 70.655 C 100.435 70.075,101.200 69.607,101.555 69.616 C 101.961 69.626,101.796 69.851,101.108 70.224 M300.399 70.598 C 300.914 71.148,301.216 71.718,301.068 71.865 C 300.921 72.013,300.800 71.921,300.800 71.661 C 300.800 71.401,300.215 70.832,299.500 70.396 C 298.779 69.956,298.480 69.602,298.830 69.601 C 299.177 69.601,299.883 70.049,300.399 70.598 M90.193 92.411 C 90.241 93.057,90.529 93.358,91.145 93.403 C 91.816 93.453,91.909 93.364,91.533 93.034 C 91.260 92.795,90.832 92.349,90.581 92.041 C 90.212 91.590,90.138 91.660,90.193 92.411 M309.717 92.396 C 309.601 92.840,309.308 93.079,309.055 92.937 C 308.805 92.797,308.832 92.933,309.117 93.238 C 309.672 93.835,310.380 93.203,310.394 92.100 C 310.403 91.316,309.947 91.515,309.717 92.396 M94.013 97.929 C 94.006 98.219,94.270 98.727,94.600 99.057 C 95.371 99.828,95.380 99.191,94.613 98.176 C 94.244 97.689,94.021 97.597,94.013 97.929 M305.797 97.995 C 306.042 98.391,305.587 99.100,304.320 100.299 C 303.947 100.653,303.732 101.091,303.844 101.271 C 303.956 101.452,303.867 101.600,303.647 101.600 C 303.427 101.600,303.134 101.417,302.996 101.193 C 302.858 100.970,302.544 100.911,302.299 101.062 C 302.014 101.239,302.132 101.447,302.627 101.641 C 303.992 102.176,304.768 102.022,305.352 101.100 C 306.162 99.821,306.578 97.600,306.008 97.600 C 305.758 97.600,305.663 97.778,305.797 97.995 M94.400 100.568 C 94.400 100.841,94.829 101.294,95.352 101.574 C 96.380 102.125,98.000 101.830,98.000 101.093 C 98.000 100.771,97.862 100.778,97.520 101.120 C 97.256 101.384,96.761 101.597,96.420 101.594 C 95.928 101.589,95.910 101.518,96.334 101.250 C 96.753 100.983,96.711 100.844,96.134 100.595 C 94.887 100.058,94.400 100.051,94.400 100.568 M98.000 104.538 C 98.000 105.178,99.267 106.400,99.931 106.400 C 100.189 106.400,100.400 106.201,100.400 105.957 C 100.400 105.714,100.174 105.601,99.898 105.707 C 99.270 105.948,98.484 105.149,98.703 104.491 C 98.793 104.221,98.672 104.000,98.433 104.000 C 98.195 104.000,98.000 104.242,98.000 104.538 M301.550 104.400 C 301.522 104.620,301.473 105.025,301.439 105.300 C 301.406 105.575,300.978 105.757,300.489 105.705 C 300.000 105.652,299.600 105.787,299.600 106.005 C 299.600 106.576,301.096 106.492,301.465 105.900 C 301.844 105.292,302.071 104.000,301.797 104.000 C 301.689 104.000,301.578 104.180,301.550 104.400 M102.492 109.675 C 102.691 110.273,103.600 110.602,103.600 110.076 C 103.600 109.861,103.315 109.576,102.967 109.443 C 102.577 109.293,102.394 109.382,102.492 109.675 M180.800 118.047 C 178.050 118.230,173.460 118.820,170.600 119.357 C 165.518 120.312,162.314 120.750,154.200 121.600 C 149.800 122.061,147.026 122.670,145.800 123.445 C 144.418 124.318,141.499 125.140,138.800 125.417 C 135.216 125.784,132.036 126.845,130.731 128.109 C 130.439 128.393,129.390 128.863,128.400 129.154 C 127.410 129.445,126.187 129.845,125.681 130.042 C 125.176 130.239,124.320 130.400,123.780 130.400 C 123.164 130.400,122.272 130.958,121.383 131.900 C 120.035 133.330,119.849 133.400,117.407 133.400 L 114.845 133.400 114.812 144.889 L 114.779 156.379 116.972 158.589 C 118.582 160.212,119.463 160.801,120.283 160.805 C 121.475 160.811,122.618 161.582,125.466 164.300 C 126.446 165.235,127.584 166.000,127.996 166.000 C 128.723 166.000,130.008 167.475,130.522 168.900 C 131.357 171.212,131.600 168.972,131.600 158.980 C 131.600 145.986,131.846 145.200,135.918 145.200 C 137.316 145.200,140.096 146.563,140.800 147.594 C 141.120 148.062,143.561 148.720,146.800 149.211 C 150.776 149.815,152.374 150.358,153.705 151.561 C 154.928 152.666,157.314 153.109,162.355 153.166 C 165.986 153.208,171.728 153.879,175.200 154.668 C 176.630 154.993,178.250 155.349,178.800 155.459 C 179.350 155.570,180.160 155.813,180.600 155.999 C 183.616 157.277,214.345 157.276,219.200 155.998 C 225.751 154.273,232.613 153.230,237.800 153.170 C 243.129 153.108,245.456 152.682,246.695 151.543 C 248.106 150.246,249.437 149.782,253.400 149.207 C 258.027 148.536,258.157 148.501,259.226 147.618 C 260.819 146.304,260.952 146.216,262.119 145.697 C 264.043 144.842,266.159 145.068,267.345 146.255 L 268.400 147.309 268.400 158.231 C 268.400 169.405,268.590 170.740,269.835 168.333 C 270.688 166.683,271.376 166.000,272.186 166.000 C 272.540 166.000,273.617 165.190,274.579 164.200 C 275.541 163.210,276.442 162.400,276.581 162.400 C 276.720 162.400,277.220 162.040,277.692 161.600 C 278.164 161.160,278.964 160.800,279.468 160.800 C 280.010 160.800,281.152 160.066,282.258 159.006 C 283.287 158.020,284.463 157.107,284.871 156.977 C 285.573 156.755,285.606 156.133,285.506 145.089 L 285.400 133.436 283.277 133.549 C 281.037 133.668,280.110 133.273,278.244 131.408 C 277.690 130.854,276.926 130.400,276.547 130.400 C 275.898 130.400,275.360 130.261,271.761 129.160 C 270.969 128.918,269.574 128.221,268.661 127.613 C 266.943 126.468,264.975 125.911,260.242 125.233 C 258.726 125.015,256.566 124.398,255.442 123.862 C 252.460 122.437,251.091 122.105,246.200 121.617 C 239.311 120.930,235.414 120.395,229.782 119.364 C 220.811 117.720,195.819 117.049,180.800 118.047 M141.854 274.829 C 140.806 275.653,140.403 277.200,141.236 277.200 C 141.476 277.200,141.971 276.881,142.336 276.492 C 142.701 276.102,142.865 275.958,142.700 276.172 C 142.187 276.835,142.367 277.200,143.206 277.200 C 143.842 277.200,143.995 276.964,143.928 276.089 C 143.881 275.477,143.979 274.757,144.145 274.489 C 144.649 273.674,143.014 273.917,141.854 274.829 M256.400 276.213 C 256.400 277.003,256.602 277.200,257.414 277.200 C 258.283 277.200,258.370 277.092,258.025 276.447 C 257.360 275.204,256.400 275.066,256.400 276.213 M112.344 286.787 C 111.825 287.219,111.625 287.579,111.900 287.587 C 112.175 287.594,112.400 287.435,112.400 287.233 C 112.400 287.032,112.895 286.686,113.500 286.465 C 114.105 286.244,114.305 286.049,113.944 286.032 C 113.584 286.014,112.864 286.354,112.344 286.787 M287.064 286.774 C 287.760 287.198,288.451 287.931,288.601 288.403 C 288.751 288.874,288.953 289.180,289.051 289.082 C 289.442 288.691,288.253 286.862,287.337 286.444 C 285.815 285.751,285.671 285.924,287.064 286.774 M93.100 296.446 C 91.747 297.455,91.696 298.000,92.955 298.000 C 93.709 298.000,93.946 297.749,94.085 296.800 C 94.182 296.140,94.248 295.606,94.231 295.613 C 94.214 295.620,93.705 295.995,93.100 296.446 M306.320 296.838 C 306.453 297.743,306.699 298.000,307.433 298.000 C 308.546 298.000,308.390 297.309,307.058 296.338 C 306.165 295.687,306.153 295.695,306.320 296.838 M327.200 336.383 C 327.200 336.582,327.729 337.122,328.376 337.583 C 329.023 338.044,329.665 338.776,329.803 339.210 C 330.190 340.429,330.854 340.153,330.540 338.904 C 330.151 337.352,327.200 335.125,327.200 336.383 M72.121 337.279 C 71.638 337.512,70.952 338.314,70.598 339.061 C 70.244 339.808,69.784 340.314,69.577 340.186 C 69.370 340.058,69.200 340.143,69.200 340.376 C 69.200 340.913,69.873 340.929,70.200 340.400 C 70.336 340.180,71.067 340.000,71.824 340.000 C 73.163 340.000,73.200 339.957,73.200 338.400 C 73.200 337.520,73.155 336.812,73.100 336.827 C 73.045 336.842,72.604 337.045,72.121 337.279 M327.200 337.881 C 327.200 338.345,329.130 340.204,329.366 339.968 C 329.576 339.757,328.828 338.778,327.900 338.051 C 327.515 337.749,327.200 337.673,327.200 337.881 M331.200 348.778 C 331.200 348.986,331.693 349.393,332.296 349.682 C 332.899 349.971,333.629 350.701,333.918 351.304 C 334.207 351.907,334.608 352.400,334.809 352.400 C 335.010 352.400,335.071 352.670,334.945 353.000 C 334.818 353.330,334.914 353.600,335.157 353.600 C 335.698 353.600,335.697 353.694,335.162 351.195 C 334.820 349.600,334.506 349.068,333.736 348.776 C 332.465 348.293,331.200 348.294,331.200 348.778 M66.480 349.611 C 65.530 350.497,64.973 352.108,65.386 352.777 C 65.530 353.010,65.457 353.200,65.224 353.200 C 64.991 353.200,64.800 353.490,64.800 353.844 C 64.800 354.367,64.932 354.332,65.500 353.661 C 65.885 353.206,66.461 352.781,66.779 352.717 C 67.665 352.538,69.200 350.589,69.200 349.642 C 69.200 348.527,67.663 348.509,66.480 349.611 M333.874 349.670 C 334.383 350.148,334.794 350.823,334.786 351.170 C 334.776 351.589,334.595 351.481,334.242 350.844 C 333.950 350.318,333.282 349.650,332.756 349.358 C 332.224 349.063,332.055 348.822,332.374 348.814 C 332.690 348.806,333.365 349.191,333.874 349.670 M68.129 350.309 C 67.650 350.689,66.874 351.450,66.405 352.000 L 65.553 353.000 66.271 351.800 C 67.056 350.488,67.976 349.628,68.600 349.622 C 68.820 349.620,68.608 349.929,68.129 350.309 "
              stroke="none" fill="#29363e" fill-rule="evenodd"></path>
        <path id="path7"
              d="M285.017 158.686 C 284.690 160.435,283.863 161.261,281.972 161.726 C 281.407 161.865,279.934 162.974,278.698 164.189 C 277.463 165.405,276.265 166.400,276.036 166.400 C 275.595 166.400,274.400 168.452,274.400 169.211 C 274.400 169.459,275.152 169.018,276.072 168.231 C 276.992 167.444,277.904 166.800,278.101 166.800 C 278.563 166.800,279.600 165.762,279.600 165.298 C 279.600 164.770,281.369 163.200,281.964 163.200 C 283.737 163.200,285.871 160.000,285.494 157.907 C 285.374 157.240,285.248 157.446,285.017 158.686 M115.012 159.353 C 115.221 161.529,115.842 162.265,118.603 163.601 C 119.544 164.057,120.403 164.767,120.510 165.178 C 120.618 165.590,121.492 166.424,122.453 167.032 C 123.414 167.640,124.613 168.601,125.118 169.169 L 126.036 170.200 125.765 169.000 C 125.477 167.719,124.142 166.002,123.430 165.996 C 123.194 165.994,122.558 165.433,122.018 164.749 C 120.984 163.441,118.371 161.609,117.508 161.587 C 116.501 161.562,115.471 160.393,115.151 158.911 C 114.858 157.556,114.844 157.602,115.012 159.353 M161.812 168.858 C 156.641 173.585,157.384 179.473,163.569 182.784 C 169.406 185.907,177.648 177.894,174.620 172.038 C 173.058 169.018,169.747 166.800,166.800 166.800 C 164.065 166.800,164.064 166.801,161.812 168.858 M229.172 168.290 C 223.975 172.661,223.580 176.769,227.960 180.887 L 230.421 183.200 233.360 183.200 C 236.114 183.200,236.391 183.118,237.742 181.900 C 238.535 181.185,239.521 180.330,239.933 180.000 C 241.207 178.979,241.600 177.760,241.600 174.827 L 241.600 172.001 239.500 169.861 C 235.815 166.106,232.389 165.585,229.172 168.290 "
              stroke="none" fill="#84541c" fill-rule="evenodd"></path>
        <path id="path8"
              d="M194.101 49.251 C 192.537 49.556,191.598 50.049,190.418 51.183 C 189.472 52.092,188.264 52.812,187.417 52.970 C 186.638 53.117,186.000 53.408,186.000 53.618 C 186.000 53.828,185.812 54.000,185.582 54.000 C 181.865 54.000,181.262 66.462,184.792 70.326 C 186.224 71.894,186.470 71.038,185.078 69.331 C 183.243 67.081,182.036 57.788,183.514 57.295 C 183.781 57.206,184.000 56.901,184.000 56.618 C 184.000 55.803,186.790 53.633,188.394 53.202 C 189.196 52.986,190.288 52.345,190.820 51.779 C 194.056 48.334,205.902 48.338,209.349 51.786 C 209.889 52.326,210.842 52.892,211.466 53.044 C 213.777 53.608,215.896 55.475,216.751 57.700 C 217.417 59.431,217.562 59.603,217.579 58.680 C 217.621 56.405,214.409 52.800,212.340 52.800 C 211.934 52.800,210.881 52.101,210.000 51.247 C 209.120 50.392,207.905 49.579,207.300 49.439 C 205.259 48.967,196.216 48.838,194.101 49.251 M217.222 63.598 C 216.952 65.577,216.566 67.297,216.365 67.422 C 216.164 67.546,216.000 67.923,216.000 68.259 C 216.000 68.596,215.656 69.171,215.235 69.536 C 214.814 69.901,214.345 70.626,214.193 71.148 C 213.968 71.918,214.171 71.806,215.281 70.548 C 216.869 68.748,217.472 66.923,217.807 62.900 C 218.142 58.878,217.813 59.270,217.222 63.598 M186.237 73.066 C 186.845 75.627,187.698 76.900,191.066 80.282 C 195.550 84.783,198.517 85.713,203.889 84.300 C 207.332 83.394,214.067 75.899,213.970 73.081 C 213.946 72.388,213.837 72.481,213.461 73.518 C 212.987 74.828,208.470 80.724,207.903 80.774 C 207.740 80.788,207.110 81.301,206.503 81.914 C 204.401 84.036,199.128 84.788,195.949 83.419 C 194.639 82.855,190.000 78.795,190.000 78.212 C 190.000 78.053,189.280 77.105,188.400 76.105 C 187.520 75.105,186.800 73.873,186.800 73.367 C 186.800 72.861,186.613 72.332,186.384 72.190 C 186.111 72.022,186.061 72.324,186.237 73.066 M133.500 145.632 C 131.766 146.642,131.600 147.809,131.600 158.980 C 131.600 168.972,131.357 171.212,130.522 168.900 C 130.008 167.475,128.723 166.000,127.996 166.000 C 127.584 166.000,126.446 165.235,125.466 164.300 C 122.610 161.574,121.474 160.811,120.264 160.805 C 119.424 160.801,118.612 160.265,117.150 158.748 C 114.876 156.389,114.757 156.387,115.185 158.719 C 115.488 160.376,116.448 161.561,117.508 161.587 C 118.371 161.609,120.984 163.441,122.018 164.749 C 122.558 165.433,123.194 165.994,123.430 165.996 C 124.176 166.003,125.503 167.748,125.789 169.100 C 125.980 170.003,126.291 170.400,126.808 170.400 C 127.218 170.400,128.370 171.206,129.369 172.190 C 131.334 174.127,131.975 174.187,132.640 172.494 C 133.880 169.339,134.000 168.210,134.000 159.731 C 134.000 148.515,134.462 146.707,136.866 148.506 C 137.600 149.055,138.920 149.728,139.800 150.003 C 140.680 150.278,141.813 150.659,142.319 150.851 C 142.824 151.043,143.585 151.200,144.009 151.200 C 144.433 151.200,145.999 151.766,147.490 152.458 C 151.032 154.102,151.904 154.290,161.200 155.409 C 163.269 155.658,167.895 156.838,169.901 157.628 C 174.767 159.546,225.146 159.249,231.400 157.265 C 234.908 156.153,236.969 155.712,241.000 155.213 C 246.741 154.502,252.800 153.048,252.800 152.381 C 252.800 152.107,254.646 151.518,257.800 150.787 C 260.751 150.103,262.048 149.584,263.526 148.496 C 264.256 147.959,264.906 147.582,264.972 147.660 C 266.022 148.892,266.196 150.418,266.400 160.200 C 266.621 170.775,266.723 171.476,268.303 173.288 C 268.862 173.930,269.002 173.878,270.352 172.527 C 271.148 171.730,272.361 170.842,273.047 170.556 C 273.932 170.185,274.363 169.685,274.534 168.829 C 274.667 168.167,275.096 167.355,275.488 167.025 C 275.879 166.696,277.267 165.425,278.572 164.202 C 279.877 162.980,281.407 161.867,281.972 161.730 C 283.738 161.302,284.543 160.476,285.018 158.607 C 285.270 157.613,285.348 156.800,285.192 156.800 C 284.788 156.800,282.787 158.382,281.540 159.689 C 280.954 160.303,280.048 160.800,279.515 160.800 C 278.985 160.800,278.164 161.160,277.692 161.600 C 277.220 162.040,276.720 162.400,276.581 162.400 C 276.442 162.400,275.541 163.210,274.579 164.200 C 273.617 165.190,272.540 166.000,272.186 166.000 C 271.376 166.000,270.688 166.683,269.835 168.333 C 268.590 170.740,268.400 169.405,268.400 158.231 L 268.400 147.309 267.345 146.255 C 266.159 145.068,264.043 144.842,262.119 145.697 C 260.952 146.216,260.819 146.304,259.226 147.618 C 258.157 148.501,258.027 148.536,253.400 149.207 C 249.437 149.782,248.106 150.246,246.695 151.543 C 245.456 152.682,243.129 153.108,237.800 153.170 C 232.613 153.230,225.751 154.273,219.200 155.998 C 214.345 157.276,183.616 157.277,180.600 155.999 C 180.160 155.813,179.350 155.570,178.800 155.459 C 178.250 155.349,176.630 154.993,175.200 154.668 C 171.728 153.879,165.986 153.208,162.355 153.166 C 157.314 153.109,154.928 152.666,153.705 151.561 C 152.374 150.358,150.776 149.815,146.800 149.211 C 143.561 148.720,141.120 148.062,140.800 147.594 C 139.537 145.745,135.273 144.599,133.500 145.632 M156.678 274.378 C 156.839 274.991,156.991 275.054,157.399 274.678 C 157.992 274.130,157.803 273.600,157.014 273.600 C 156.677 273.600,156.551 273.892,156.678 274.378 M242.666 273.900 C 242.566 274.065,242.735 274.432,243.042 274.716 C 243.506 275.144,243.600 275.093,243.600 274.416 C 243.600 273.619,243.027 273.303,242.666 273.900 "
              stroke="none" fill="#71644c" fill-rule="evenodd"></path>
    </g>
</svg>