<svg xmlns="http://www.w3.org/2000/svg" width="40" viewBox="0 0 30 30" height="40">
    <defs>
        <clipPath id="id1">
            <path d="M 15.484375 6.632812 L 26.578125 6.632812 L 26.578125 22.597656 L 15.484375 22.597656 Z M 15.484375 6.632812 "
            />
        </clipPath>
        <clipPath id="id2">
            <path d="M 3.386719 8 L 7 8 L 7 9 L 3.386719 9 Z M 3.386719 8 "/>
        </clipPath>
    </defs>
    <g clip-path="url(#id1)">
        <path fill="#a6a6a6"
              d="M 18.695312 22.597656 C 18 22.597656 17.308594 22.507812 16.644531 22.324219 C 16.398438 22.257812 16.25 22 16.316406 21.75 C 16.382812 21.503906 16.636719 21.355469 16.886719 21.421875 C 17.472656 21.582031 18.082031 21.660156 18.695312 21.660156 C 22.53125 21.660156 25.652344 18.5 25.652344 14.617188 C 25.652344 10.730469 22.53125 7.570312 18.695312 7.570312 C 17.832031 7.570312 16.988281 7.730469 16.191406 8.042969 C 15.953125 8.136719 15.683594 8.015625 15.589844 7.773438 C 15.496094 7.53125 15.617188 7.261719 15.855469 7.167969 C 16.757812 6.8125 17.714844 6.632812 18.695312 6.632812 C 23.042969 6.632812 26.578125 10.214844 26.578125 14.617188 C 26.578125 19.019531 23.042969 22.597656 18.695312 22.597656 "
              fill-opacity="1"/>
    </g>
    <path fill="#a6a6a6"
          d="M 21.828125 18.257812 C 21.707031 18.257812 21.589844 18.210938 21.5 18.117188 L 18.367188 14.949219 C 18.28125 14.859375 18.234375 14.742188 18.234375 14.617188 L 18.234375 11.445312 C 18.234375 11.1875 18.441406 10.976562 18.695312 10.976562 C 18.953125 10.976562 19.160156 11.1875 19.160156 11.445312 L 19.160156 14.421875 L 22.152344 17.457031 C 22.335938 17.640625 22.335938 17.9375 22.152344 18.117188 C 22.0625 18.210938 21.945312 18.257812 21.828125 18.257812 "
          fill-opacity="1"/>
    <g clip-path="url(#id2)">
        <path fill="#a6a6a6"
              d="M 6.480469 9 L 3.886719 9 C 3.628906 9 3.421875 8.789062 3.421875 8.527344 C 3.421875 8.269531 3.628906 8.058594 3.886719 8.058594 L 6.480469 8.058594 C 6.738281 8.058594 6.945312 8.269531 6.945312 8.527344 C 6.945312 8.789062 6.738281 9 6.480469 9 "
              fill-opacity="1"/>
    </g>
    <path fill="#a6a6a6"
          d="M 14.917969 9 L 9.625 9 C 9.367188 9 9.160156 8.789062 9.160156 8.527344 C 9.160156 8.269531 9.367188 8.058594 9.625 8.058594 L 14.917969 8.058594 C 15.175781 8.058594 15.382812 8.269531 15.382812 8.527344 C 15.382812 8.789062 15.175781 9 14.917969 9 "
          fill-opacity="1"/>
    <path fill="#a6a6a6"
          d="M 13.449219 12.019531 L 7.691406 12.019531 C 7.4375 12.019531 7.230469 11.8125 7.230469 11.550781 C 7.230469 11.292969 7.4375 11.082031 7.691406 11.082031 L 13.449219 11.082031 C 13.703125 11.082031 13.910156 11.292969 13.910156 11.550781 C 13.910156 11.8125 13.703125 12.019531 13.449219 12.019531 "
          fill-opacity="1"/>
    <path fill="#a6a6a6"
          d="M 10.535156 15.042969 L 5.183594 15.042969 C 4.929688 15.042969 4.722656 14.835938 4.722656 14.574219 C 4.722656 14.316406 4.929688 14.105469 5.183594 14.105469 L 10.535156 14.105469 C 10.792969 14.105469 11 14.316406 11 14.574219 C 11 14.835938 10.792969 15.042969 10.535156 15.042969 "
          fill-opacity="1"/>
    <path fill="#a6a6a6"
          d="M 14.148438 15.042969 L 13.386719 15.042969 C 13.128906 15.042969 12.921875 14.835938 12.921875 14.574219 C 12.921875 14.316406 13.128906 14.105469 13.386719 14.105469 L 14.148438 14.105469 C 14.40625 14.105469 14.613281 14.316406 14.613281 14.574219 C 14.613281 14.835938 14.40625 15.042969 14.148438 15.042969 "
          fill-opacity="1"/>
    <path fill="#a6a6a6"
          d="M 13.878906 18.066406 L 8.992188 18.066406 C 8.734375 18.066406 8.527344 17.855469 8.527344 17.597656 C 8.527344 17.339844 8.734375 17.128906 8.992188 17.128906 L 13.878906 17.128906 C 14.136719 17.128906 14.34375 17.339844 14.34375 17.597656 C 14.34375 17.855469 14.136719 18.066406 13.878906 18.066406 "
          fill-opacity="1"/>
    <path fill="#a6a6a6"
          d="M 8.492188 21.089844 L 6.480469 21.089844 C 6.226562 21.089844 6.019531 20.878906 6.019531 20.621094 C 6.019531 20.359375 6.226562 20.152344 6.480469 20.152344 L 8.492188 20.152344 C 8.746094 20.152344 8.953125 20.359375 8.953125 20.621094 C 8.953125 20.878906 8.746094 21.089844 8.492188 21.089844 "
          fill-opacity="1"/>
    <path fill="#a6a6a6"
          d="M 16.410156 21.089844 L 12.6875 21.089844 C 12.429688 21.089844 12.222656 20.878906 12.222656 20.621094 C 12.222656 20.359375 12.429688 20.152344 12.6875 20.152344 L 16.410156 20.152344 C 16.664062 20.152344 16.871094 20.359375 16.871094 20.621094 C 16.871094 20.878906 16.664062 21.089844 16.410156 21.089844 "
          fill-opacity="1"/>
</svg>
