<svg width="16" height="16" viewBox="0 0 16 16" fill="none" xmlns="http://www.w3.org/2000/svg">
<path fill-rule="evenodd" clip-rule="evenodd" d="M5.71176 1.00873V1H5.87724H10.2676C10.7694 1 11.2154 1.32015 11.3759 1.79566L15.3106 13.454C15.5664 14.2122 15.0026 14.9977 14.2025 14.9978L9.51382 14.9986V14.9949C9.29861 14.979 9.0902 14.9097 8.90765 14.7927L6.20938 13.0637L5.82456 14.2039C5.66408 14.6794 5.21814 14.9995 4.71627 14.9995H1.7706C0.970361 14.9995 0.406407 14.214 0.662308 13.4558L4.55105 1.93357C4.72422 1.42047 5.18123 1.06187 5.71176 1.00873ZM3.96139 10.4358L9.44705 13.9509C9.49583 13.9822 9.55258 13.9988 9.61052 13.9988C9.81704 13.9986 9.96271 13.7962 9.89726 13.6003L7.95474 7.78657L7.03694 10.119L6.91227 10.4358H6.57178H3.96139ZM14.2023 13.9981L10.8779 13.9986C10.9324 13.7723 10.9268 13.5267 10.8455 13.2835L7.07529 1.99976H10.2676C10.3405 1.99976 10.4053 2.04627 10.4286 2.11537L14.3633 13.7737C14.4005 13.8839 14.3186 13.998 14.2023 13.9981Z" fill="#15C6FC"/>
</svg>
