<?xml version="1.0" encoding="UTF-8"?>
<svg xmlns="http://www.w3.org/2000/svg" xmlns:xlink="http://www.w3.org/1999/xlink" width="40px" height="40px" viewBox="0 0 40 40" version="1.1">
<defs>
<linearGradient id="linear0" gradientUnits="userSpaceOnUse" x1="64.913101" y1="54.384602" x2="17.5131" y2="47.274601" gradientTransform="matrix(0.571429,0,0,-0.571429,0,37.36857)">
<stop offset="0" style="stop-color:rgb(100%,50.980395%,0%);stop-opacity:1;"/>
<stop offset="0.9731" style="stop-color:rgb(56.470591%,36.078432%,98.431373%);stop-opacity:1;"/>
</linearGradient>
<linearGradient id="linear1" gradientUnits="userSpaceOnUse" x1="15.6745" y1="30.5931" x2="20.0928" y2="55.2747" gradientTransform="matrix(0.571429,0,0,-0.571429,0,37.36857)">
<stop offset="0" style="stop-color:rgb(4.705882%,69.01961%,94.901961%);stop-opacity:1;"/>
<stop offset="0.9731" style="stop-color:rgb(56.470591%,36.078432%,98.431373%);stop-opacity:1;"/>
</linearGradient>
<linearGradient id="linear2" gradientUnits="userSpaceOnUse" x1="58.335201" y1="11.7285" x2="26.977699" y2="27.042601" gradientTransform="matrix(0.571429,0,0,-0.571429,0,37.36857)">
<stop offset="0" style="stop-color:rgb(4.705882%,69.01961%,94.901961%);stop-opacity:1;"/>
<stop offset="0.9731" style="stop-color:rgb(56.470591%,36.078432%,98.431373%);stop-opacity:1;"/>
</linearGradient>
<linearGradient id="linear3" gradientUnits="userSpaceOnUse" x1="60.677799" y1="9.337" x2="7.3522" y2="28.5084" gradientTransform="matrix(0.571429,0,0,-0.571429,0,37.36857)">
<stop offset="0" style="stop-color:rgb(4.705882%,69.01961%,94.901961%);stop-opacity:1;"/>
<stop offset="0.9731" style="stop-color:rgb(56.470591%,36.078432%,98.431373%);stop-opacity:1;"/>
</linearGradient>
<linearGradient id="linear4" gradientUnits="userSpaceOnUse" x1="64.194" y1="59.459999" x2="18.5236" y2="22.650999" gradientTransform="matrix(0.571429,0,0,-0.571429,0,37.36857)">
<stop offset="0" style="stop-color:rgb(100%,50.980395%,0%);stop-opacity:1;"/>
<stop offset="0.9731" style="stop-color:rgb(56.470591%,36.078432%,98.431373%);stop-opacity:1;"/>
</linearGradient>
<linearGradient id="linear5" gradientUnits="userSpaceOnUse" x1="30.448299" y1="16.1521" x2="2.2652" y2="26.167601" gradientTransform="matrix(0.571429,0,0,-0.571429,0,37.36857)">
<stop offset="0" style="stop-color:rgb(4.705882%,69.01961%,94.901961%);stop-opacity:1;"/>
<stop offset="0.9731" style="stop-color:rgb(56.470591%,36.078432%,98.431373%);stop-opacity:1;"/>
</linearGradient>
</defs>
<g id="surface1">
<path style=" stroke:none;fill-rule:nonzero;fill:url(#linear0);" d="M 34.570312 13.714844 L 5.484375 15.371094 L 5.3125 4.230469 L 31.542969 0.113281 Z M 34.570312 13.714844 "/>
<path style=" stroke:none;fill-rule:nonzero;fill:url(#linear1);" d="M 11.601562 24.6875 L 20.972656 12.800781 L 10.800781 5.828125 C 9.027344 4.230469 6.34375 3.542969 3.601562 4.6875 C 2.230469 5.257812 1.144531 6.34375 0.570312 7.714844 C -0.628906 10.570312 0.113281 13.371094 1.941406 15.085938 Z M 11.601562 24.6875 "/>
<path style=" stroke:none;fill-rule:nonzero;fill:url(#linear2);" d="M 11.601562 24.6875 L 26 38.914062 L 34.972656 22.171875 L 20.972656 12.800781 Z M 11.601562 24.6875 "/>
<path style=" stroke:none;fill-rule:nonzero;fill:url(#linear3);" d="M 30.800781 20.914062 L 6.855469 19.769531 C 5.941406 19.601562 4.914062 19.65625 3.828125 20.113281 C 2.800781 20.570312 2 21.3125 1.601562 22.34375 C 0.398438 25.144531 1.828125 27.828125 4.171875 28.742188 L 25.601562 38.855469 C 25.886719 39.027344 27.3125 39.429688 27.3125 39.429688 C 28.457031 39.769531 29.714844 39.941406 30.855469 39.941406 C 32.285156 39.941406 33.886719 39.542969 35.484375 38.742188 C 36.972656 38 37.886719 36.800781 38.6875 35.3125 C 39.65625 33.601562 39.941406 32 39.941406 30.398438 C 39.886719 25.429688 35.769531 21.257812 30.800781 20.914062 Z M 30.800781 20.914062 "/>
<path style=" stroke:none;fill-rule:nonzero;fill:url(#linear4);" d="M 29.769531 0.628906 C 29.371094 0.800781 28.972656 1.027344 28.628906 1.257812 L 15.371094 11.257812 L 21.941406 20.855469 L 36.34375 12.800781 C 37.429688 12.285156 38.285156 11.371094 38.800781 10.34375 C 42 4.171875 36.058594 -2 29.769531 0.628906 Z M 29.769531 0.628906 "/>
<path style=" stroke:none;fill-rule:nonzero;fill:rgb(56.470591%,36.078432%,98.431373%);fill-opacity:1;" d="M 8.285156 28.457031 L 21.941406 20.855469 L 15.371094 11.257812 L 2.800781 20.6875 Z M 8.285156 28.457031 "/>
<path style=" stroke:none;fill-rule:nonzero;fill:url(#linear5);" d="M 11.65625 32.230469 L 11.65625 20 L 6.855469 19.769531 C 5.941406 19.601562 4.914062 19.65625 3.828125 20.113281 C 2.800781 20.570312 2 21.3125 1.601562 22.34375 C 0.398438 25.144531 1.828125 27.828125 4.171875 28.742188 L 4.230469 28.742188 Z M 11.65625 32.230469 "/>
<path style=" stroke:none;fill-rule:nonzero;fill:rgb(0%,0%,0%);fill-opacity:1;" d="M 7.65625 7.65625 L 32.34375 7.65625 L 32.34375 32.34375 L 7.65625 32.34375 Z M 7.65625 7.65625 "/>
<path style=" stroke:none;fill-rule:nonzero;fill:rgb(100%,100%,100%);fill-opacity:1;" d="M 10 16.800781 L 10 10.855469 L 12.285156 10.855469 L 12.285156 16.742188 C 12.285156 18.457031 13.144531 19.3125 14.515625 19.3125 C 15.886719 19.3125 16.742188 18.457031 16.742188 16.800781 L 16.742188 10.855469 L 19.027344 10.855469 L 19.027344 16.6875 C 19.027344 19.828125 17.257812 21.371094 14.457031 21.371094 C 11.714844 21.429688 10 19.828125 10 16.800781 Z M 10 16.800781 "/>
<path style=" stroke:none;fill-rule:nonzero;fill:rgb(100%,100%,100%);fill-opacity:1;" d="M 20.230469 10.855469 L 24.457031 10.855469 C 26.914062 10.855469 28.398438 12.34375 28.398438 14.457031 L 28.398438 14.515625 C 28.398438 16.914062 26.515625 18.171875 24.230469 18.171875 L 22.515625 18.171875 L 22.515625 21.257812 L 20.230469 21.257812 Z M 24.34375 16.113281 C 25.484375 16.113281 26.171875 15.429688 26.171875 14.570312 L 26.171875 14.515625 C 26.171875 13.484375 25.484375 12.972656 24.34375 12.972656 L 22.570312 12.972656 L 22.570312 16.113281 Z M 24.34375 16.113281 "/>
<path style=" stroke:none;fill-rule:nonzero;fill:rgb(100%,100%,100%);fill-opacity:1;" d="M 10 27.714844 L 19.257812 27.714844 L 19.257812 29.257812 L 10 29.257812 Z M 10 27.714844 "/>
</g>
</svg>
