<?xml version="1.0" encoding="UTF-8"?>
<svg xmlns="http://www.w3.org/2000/svg" width="40" height="40"
     viewBox="0 0 40 40">
    <rect width="100%" height="100%" fill="rgb(18,18,18)"/>
    <path fill="rgb(252,252,252)"
          d="M 3.636719 19.089844 L 36.363281 19.089844 L 36.363281 20.910156 L 3.636719 20.910156 Z M 3.636719 19.089844 "/>
    <path fill="rgb(252,252,252)"
          d="M 19.089844 3.636719 L 20.910156 3.636719 L 20.910156 36.363281 L 19.089844 36.363281 Z M 19.089844 3.636719 "/>
    <path fill="rgb(252,252,252)"
          d="M 20 12.726562 C 15.984375 12.726562 12.726562 15.984375 12.726562 20 C 12.726562 24.015625 15.984375 27.273438 20 27.273438 C 24.015625 27.273438 27.273438 24.015625 27.273438 20 C 27.273438 15.984375 24.015625 12.726562 20 12.726562 M 20 14.546875 C 23.011719 14.546875 25.453125 16.988281 25.453125 20 C 25.453125 23.011719 23.011719 25.453125 20 25.453125 C 16.988281 25.453125 14.546875 23.011719 14.546875 20 C 14.546875 16.988281 16.988281 14.546875 20 14.546875 "/>
    <path fill="rgb(252,252,252)"
          d="M 20 7.273438 C 12.972656 7.273438 7.273438 12.972656 7.273438 20 C 7.273438 27.027344 12.972656 32.726562 20 32.726562 C 27.027344 32.726562 32.726562 27.027344 32.726562 20 C 32.726562 12.972656 27.027344 7.273438 20 7.273438 M 20 9.089844 C 26.023438 9.089844 30.910156 13.976562 30.910156 20 C 30.910156 26.023438 26.023438 30.910156 20 30.910156 C 13.976562 30.910156 9.089844 26.023438 9.089844 20 C 9.089844 13.976562 13.976562 9.089844 20 9.089844 "/>
</svg>
