<?xml version="1.0" encoding="utf-8"?>
<svg width="48px" height="48px" viewBox="0 0 48 48" version="1.1" xmlns:xlink="http://www.w3.org/1999/xlink" xmlns="http://www.w3.org/2000/svg">
  <defs>
    <linearGradient x1="0.5" y1="2.5272777" x2="0.5" y2="0.2000556" id="gradient_1">
      <stop offset="0%" stop-color="#DBDEE1" />
      <stop offset="8.5%" stop-color="#DEE1E4" />
      <stop offset="60.600002%" stop-color="#EFF1F2" />
      <stop offset="100%" stop-color="#F5F6F7" />
    </linearGradient>
    <linearGradient x1="0.5" y1="3.4417696" x2="0.5" y2="-1.135231" id="gradient_2">
      <stop offset="0%" stop-color="#FEAA53" />
      <stop offset="61.199993%" stop-color="#FFCD49" />
      <stop offset="100%" stop-color="#FFDE44" />
    </linearGradient>
    <linearGradient x1="0.5" y1="3.4416676" x2="0.5" y2="-1.1353321" id="gradient_3">
      <stop offset="0%" stop-color="#BDBDC3" />
      <stop offset="100%" stop-color="#BDBDC3" />
    </linearGradient>
    <linearGradient x1="0.5" y1="1.0000019" x2="0.5" y2="0" id="gradient_4">
      <stop offset="0%" stop-color="#BDBDC3" />
      <stop offset="100%" stop-color="#BDBDC3" />
    </linearGradient>
    <linearGradient x1="0.5" y1="0.99999905" x2="0.5" y2="-9.536743E-07" id="gradient_5">
      <stop offset="0%" stop-color="#BDBDC3" />
      <stop offset="100%" stop-color="#BDBDC3" />
    </linearGradient>
  </defs>
  <g id="pluginIcon">
    <g id="Notes-icon">
      <path d="M48 12L48 38C48 43.52 43.52 48 38 48L10 48C4.48 48 0 43.52 0 38L0 12L48 12L48 12L48 12Z" id="Shape" fill="url(#gradient_1)" fill-rule="evenodd" stroke="none" />
      <path d="M48 10L48 13L0 13L0 10C0 4.48 4.48 0 10 0L38 0C43.52 0 48 4.48 48 10L48 10L48 10Z" id="Shape#1" fill="url(#gradient_2)" fill-rule="evenodd" stroke="none" />
      <path d="M2 16.5C2 15.6716 2.67157 15 3.5 15C4.32843 15 5 15.6716 5 16.5C5 17.3284 4.32843 18 3.5 18C2.67157 18 2 17.3284 2 16.5L2 16.5Z" id="Circle" fill="url(#gradient_3)" fill-rule="evenodd" stroke="none" />
      <path d="M7.125 16.5C7.125 15.6716 7.79657 15 8.625 15C9.45343 15 10.125 15.6716 10.125 16.5C10.125 17.3284 9.45343 18 8.625 18C7.79657 18 7.125 17.3284 7.125 16.5L7.125 16.5Z" id="Circle#1" fill="url(#gradient_3)" fill-rule="evenodd" stroke="none" />
      <path d="M12.25 16.5C12.25 15.6716 12.9216 15 13.75 15C14.5784 15 15.25 15.6716 15.25 16.5C15.25 17.3284 14.5784 18 13.75 18C12.9216 18 12.25 17.3284 12.25 16.5L12.25 16.5Z" id="Circle#2" fill="url(#gradient_3)" fill-rule="evenodd" stroke="none" />
      <path d="M17.375 16.5C17.375 15.6716 18.0466 15 18.875 15C19.7034 15 20.375 15.6716 20.375 16.5C20.375 17.3284 19.7034 18 18.875 18C18.0466 18 17.375 17.3284 17.375 16.5L17.375 16.5Z" id="Circle#3" fill="url(#gradient_3)" fill-rule="evenodd" stroke="none" />
      <path d="M22.5 16.5C22.5 15.6716 23.1716 15 24 15C24.8284 15 25.5 15.6716 25.5 16.5C25.5 17.3284 24.8284 18 24 18C23.1716 18 22.5 17.3284 22.5 16.5L22.5 16.5Z" id="Circle#4" fill="url(#gradient_3)" fill-rule="evenodd" stroke="none" />
      <path d="M27.625 16.5C27.625 15.6716 28.2966 15 29.125 15C29.9534 15 30.625 15.6716 30.625 16.5C30.625 17.3284 29.9534 18 29.125 18C28.2966 18 27.625 17.3284 27.625 16.5L27.625 16.5Z" id="Circle#5" fill="url(#gradient_3)" fill-rule="evenodd" stroke="none" />
      <path d="M32.75 16.5C32.75 15.6716 33.4216 15 34.25 15C35.0784 15 35.75 15.6716 35.75 16.5C35.75 17.3284 35.0784 18 34.25 18C33.4216 18 32.75 17.3284 32.75 16.5L32.75 16.5Z" id="Circle#6" fill="url(#gradient_3)" fill-rule="evenodd" stroke="none" />
      <path d="M37.875 16.5C37.875 15.6716 38.5466 15 39.375 15C40.2034 15 40.875 15.6716 40.875 16.5C40.875 17.3284 40.2034 18 39.375 18C38.5466 18 37.875 17.3284 37.875 16.5L37.875 16.5Z" id="Circle#7" fill="url(#gradient_3)" fill-rule="evenodd" stroke="none" />
      <path d="M43 16.5C43 15.6716 43.6716 15 44.5 15C45.3284 15 46 15.6716 46 16.5C46 17.3284 45.3284 18 44.5 18C43.6716 18 43 17.3284 43 16.5L43 16.5Z" id="Circle#8" fill="url(#gradient_3)" fill-rule="evenodd" stroke="none" />
      <path d="M0 23.67L48 23.67L48 24.67L0 24.67L0 23.67L0 23.67Z" id="Rectangle" fill="url(#gradient_4)" fill-rule="evenodd" stroke="none" />
      <path d="M0 35.33L48 35.33L48 36.33L0 36.33L0 35.33L0 35.33Z" id="Rectangle#1" fill="url(#gradient_5)" fill-rule="evenodd" stroke="none" />
    </g>
  </g>
</svg>