<svg xmlns="http://www.w3.org/2000/svg" viewBox="0 0 98.38 102.51"><defs><style>.cls-1{fill:none;}.cls-2{fill:#4ea558;}.cls-3{fill:#1c85c5;}.cls-4{fill:#6dcc7e;}.cls-5{fill:#4eafac;}.cls-6{fill:#115c83;}.cls-7{fill:#288b57;}.cls-8{fill:#278782;}.cls-9{fill:#12562e;}.cls-10{fill:#0a4663;}.cls-11{fill:#89ce5f;}.cls-12{fill:#2e8428;}.cls-13{fill:#40a437;}</style></defs><g id="Layer_2" data-name="Layer 2"><g id="Ebene_1" data-name="Ebene 1"><rect class="cls-1" x="49.19" y="72.91" transform="translate(-16.21 14.11) rotate(-14.04)"/><polygon class="cls-1" points="49.19 29.6 49.19 29.6 49.19 29.6 30.44 40.43 30.44 62.08 49.19 72.91 67.94 62.08 67.94 40.43 49.19 29.6"/><path class="cls-2" d="M86.7,51.26l5.43-3.14A12.51,12.51,0,0,0,96.71,31L90.46,20.22a12.51,12.51,0,0,0-17.08-4.58L68,18.78V40.43Z"/><path class="cls-3" d="M49.19,72.91h0L30.44,83.74h0V90a12.5,12.5,0,0,0,12.5,12.5h12.5A12.5,12.5,0,0,0,68,90V83.74h0Z"/><path class="cls-4" d="M30.44,40.43V18.78L25,15.64A12.51,12.51,0,0,0,7.93,20.22L1.68,31A12.49,12.49,0,0,0,6.25,48.12l5.44,3.14h0Z"/><polygon class="cls-4" points="49.19 29.6 49.19 29.6 30.44 40.43 30.44 62.08 30.44 62.08 30.44 40.43 49.19 29.6"/><rect class="cls-5" x="39.82" y="56.67" height="21.65" transform="translate(-38.55 68.23) rotate(-60)"/><path class="cls-5" d="M11.69,51.26h0L6.25,54.39A12.5,12.5,0,0,0,1.68,71.47L7.93,82.3A12.49,12.49,0,0,0,25,86.87l5.43-3.13h0V62.08Z"/><polygon class="cls-6" points="30.44 62.08 30.44 83.74 49.19 72.91 30.44 62.08"/><polygon class="cls-7" points="30.44 62.08 30.44 62.08 30.44 62.08 30.44 40.43 11.69 51.26 11.69 51.26 11.69 51.26 30.44 62.08"/><path class="cls-8" d="M92.13,54.39,86.7,51.26,68,62.08,49.19,72.91h0L68,62.08V83.74l5.43,3.14A12.51,12.51,0,0,0,90.46,82.3l6.25-10.83A12.51,12.51,0,0,0,92.13,54.39Z"/><polygon class="cls-9" points="67.94 62.08 86.7 51.26 67.94 40.43 67.94 62.08"/><polygon class="cls-10" points="49.19 72.91 67.94 83.74 67.94 83.74 67.94 62.08 49.19 72.91"/><path class="cls-11" d="M49.19,29.6h0L68,18.78V12.5A12.51,12.51,0,0,0,55.44,0H42.94a12.5,12.5,0,0,0-12.5,12.5v6.28h0Z"/><polygon class="cls-12" points="67.94 40.43 67.94 18.78 49.19 29.6 67.94 40.43"/><polygon class="cls-13" points="49.19 29.6 30.44 18.78 30.44 18.78 30.44 40.43 49.19 29.6"/></g></g></svg>