<?xml version="1.0" encoding="UTF-8" standalone="no"?>
<!DOCTYPE svg PUBLIC "-//W3C//DTD SVG 1.1//EN" "http://www.w3.org/Graphics/SVG/1.1/DTD/svg11.dtd">
<!-- Created with Vectornator (http://vectornator.io/) -->
<svg stroke-miterlimit="10" style="fill-rule:nonzero;clip-rule:evenodd;stroke-linecap:round;stroke-linejoin:round;" version="1.1" viewBox="0 0 40 40" xml:space="preserve" xmlns="http://www.w3.org/2000/svg" xmlns:xlink="http://www.w3.org/1999/xlink">
<defs/>
<g id="Layer-1">
<path d="M20.4375 7.53125C13.2989 7.53125 7.53125 13.2408 7.53125 20.2812C7.53125 27.3217 13.2989 33 20.4375 33C27.5761 33 33.375 27.3217 33.375 20.2812C33.375 13.2408 27.5761 7.53125 20.4375 7.53125Z" fill="none" fill-rule="evenodd" opacity="1" stroke="#1d3fba" stroke-linecap="round" stroke-linejoin="round" stroke-width="3.5"/>
<path d="M21.1823 2.31162C20.8998 2.87669 20.4519 3.22465 20.3397 3.89766C20.1869 4.81453 21.0556 5.6187 21.2319 6.49976C21.4251 7.46607 20.9441 8.77141 20.7858 9.72141C20.6462 10.559 20.984 11.5692 20.984 12.4474" fill="none" fill-rule="evenodd" opacity="1" stroke="#1d3fba" stroke-linecap="round" stroke-linejoin="round" stroke-width="3.5"/>
<path d="M27.9725 20.2785C27.9218 20.4306 28.9882 19.9284 29.2116 19.9563C29.8519 20.0364 30.0912 21.1597 30.8224 20.9972C31.3792 20.8734 31.652 20.2131 32.235 20.1298C32.6927 20.0644 33.042 20.6028 33.5484 20.5015C33.9802 20.4152 34.2398 19.8741 34.6389 19.8076C34.9816 19.7505 35.0906 20.1633 35.4071 20.2537C35.834 20.3757 36.0941 20.1206 36.4975 20.0802C37.0881 20.0212 37.0424 21.0718 37.687 20.4272" fill="none" fill-rule="evenodd" opacity="1" stroke="#1d3fba" stroke-linecap="round" stroke-linejoin="round" stroke-width="3.5"/>
<path d="M20.3645 27.8865C20.0394 28.0491 19.7186 28.9908 19.9184 29.3239C20.3661 30.0701 20.2109 30.5242 20.3149 31.356C20.3444 31.5917 20.6239 31.7062 20.6866 31.926C20.8045 32.3384 20.6644 32.833 20.7362 33.2642C20.8048 33.6758 20.2395 34.4354 20.414 34.7263C20.6596 35.1357 20.7563 35.3471 20.8601 35.8663C20.9454 36.2926 20.346 36.6223 20.538 37.0063" fill="none" fill-rule="evenodd" opacity="1" stroke="#1d3fba" stroke-linecap="round" stroke-linejoin="round" stroke-width="3.5"/>
<path d="M12.013 20.0307C11.872 19.9602 11.8432 20.4538 11.7404 20.4024C11.5624 20.3134 11.3703 19.8316 11.0713 19.9811C10.8289 20.1023 10.6981 20.4558 10.3774 20.4024C10.1227 20.36 9.94189 20.1233 9.68349 20.0802C9.37857 20.0294 9.25545 20.2749 8.9896 20.3281C8.62838 20.4003 8.34175 20.0688 7.99832 20.0307C7.61672 19.9883 7.37717 20.3 7.00705 20.2537C6.63896 20.2077 6.3947 19.8497 6.06534 19.7085C5.71135 19.5568 5.57353 19.882 5.2971 19.882C5.05717 19.882 4.95223 19.4922 4.72711 19.4359C4.50794 19.3811 4.50026 19.8129 4.38017 19.7829C3.90218 19.6634 4.45656 19.0945 3.95887 19.7581C3.81893 19.9447 3.61735 19.3747 3.5128 19.312C3.37532 19.2295 3.33933 19.4701 3.33933 19.312" fill="none" fill-rule="evenodd" opacity="1" stroke="#1d3fba" stroke-linecap="round" stroke-linejoin="round" stroke-width="3.5"/>
<path d="M6.09507 30.7426C6.50483 30.606 7.1302 31.3454 7.3746 31.6034C8.32542 32.607 8.81322 33.8544 9.56142 34.9767" fill="none" fill-rule="evenodd" opacity="1" stroke="#fddf19" stroke-linecap="round" stroke-linejoin="round" stroke-width="2"/>
<path d="M8.09455 29.9737C8.87451 30.7716 9.9753 30.9707 10.2976 29.6517C10.4365 29.0834 10.4168 28.4548 10.3201 27.8807C10.3041 27.7855 10.046 27.0067 10.2077 27.0067C10.6796 27.0067 11.2078 28.0944 11.4441 28.4097C12.3197 29.5782 13.5037 31.7446 15.1534 31.7446" fill="none" fill-rule="evenodd" opacity="1" stroke="#fddf19" stroke-linecap="round" stroke-linejoin="round" stroke-width="2"/>
<path d="M14.9735 27.8117C14.9735 28.7046 17.5508 30.2851 18.368 29.9507C19.4818 29.4949 18.1288 26.0161 17.7386 25.3507" fill="none" fill-rule="evenodd" opacity="1" stroke="#fddf19" stroke-linecap="round" stroke-linejoin="round" stroke-width="2"/>
<path d="M18.0983 21.8317C19.3192 23.0809 20.0112 24.8825 21.223 26.1787C21.3211 26.2836 22.4059 27.4472 22.5269 27.0757" fill="none" fill-rule="evenodd" opacity="1" stroke="#fddf19" stroke-linecap="round" stroke-linejoin="round" stroke-width="2"/>
<path d="M21.6727 20.2908C21.6727 20.957 21.7272 24.2056 22.2122 24.4537C22.6229 24.6638 23.6118 24.3426 24.078 24.3617C24.6638 24.3857 25.2513 24.4519 25.809 24.2237" fill="none" fill-rule="evenodd" opacity="1" stroke="#fddf19" stroke-linecap="round" stroke-linejoin="round" stroke-width="2"/>
<path d="M26.7082 19.2558C25.9648 18.7487 25.5906 19.7283 25.7416 20.4748C25.9099 21.3072 26.6726 22.7112 27.585 22.8667C28.6462 23.0477 27.9818 20.1672 27.8323 19.6928C27.7391 19.3973 27.5175 18.8188 27.5175 18.8188C27.5175 18.8188 27.9576 19.3509 28.2144 19.5778C28.8473 20.137 29.807 20.7941 30.5749 20.1068" fill="none" fill-rule="evenodd" opacity="1" stroke="#fddf19" stroke-linecap="round" stroke-linejoin="round" stroke-width="2"/>
<path d="M27.3152 15.4378C28.1975 14.836 29.1518 14.3614 30.0353 13.7588" fill="none" fill-rule="evenodd" opacity="1" stroke="#fddf19" stroke-linecap="round" stroke-linejoin="round" stroke-width="2"/>
<path d="M28.5741 12.0798C28.5741 12.7771 29.2328 13.556 29.6082 14.0808C30.4037 15.1932 32.1945 18.1488 33.5423 18.5428" fill="none" fill-rule="evenodd" opacity="1" stroke="#fddf19" stroke-linecap="round" stroke-linejoin="round" stroke-width="2"/>
<path d="M21.5658 33.2165C22.3496 34.8203 23.1202 36.3695 24.2295 37.7745C24.534 38.1603 25.1844 38.9851 25.7852 38.7392C26.817 38.3169 27.6961 36.953 28.4488 36.1828" fill="none" fill-rule="evenodd" opacity="1" stroke="#fddf19" stroke-linecap="round" stroke-linejoin="round" stroke-width="2"/>
<path d="M31.6546 26.1021C31.5788 26.49 32.2164 27.2019 32.4089 27.525C33.2398 28.9191 34.0527 30.6295 35.1904 31.7936" fill="none" fill-rule="evenodd" opacity="1" stroke="#fddf19" stroke-linecap="round" stroke-linejoin="round" stroke-width="2"/>
<path d="M33.7997 27.6214C34.0586 27.4448 34.7787 27.5327 35.0961 27.4767C37.8641 26.9885 38.5462 29.1981 36.7933 31.1907" fill="none" fill-rule="evenodd" opacity="1" stroke="#fddf19" stroke-linecap="round" stroke-linejoin="round" stroke-width="2"/>
<path d="M35.0298 12.1192C33.8429 12.1192 33.1672 15.8694 34.9838 16.1172C36.9714 16.3883 36.9694 14.0718 36.4779 12.7071C36.4055 12.5059 36.1734 11.7253 35.9493 11.6489C35.8419 11.6123 36.0512 11.8558 36.1102 11.9546C36.1678 12.0511 36.238 12.1393 36.2941 12.2368C36.4227 12.4606 36.5155 12.7067 36.6618 12.9188C37.1693 13.6544 37.8804 14.1982 38.7536 14.3769" fill="none" fill-rule="evenodd" opacity="1" stroke="#fddf19" stroke-linecap="round" stroke-linejoin="round" stroke-width="2"/>
<path d="M29.3062 30.6745C28.673 30.6745 28.3461 33.7382 29.5361 33.8023C30.7588 33.8681 31.3602 33.2134 30.9612 31.9209C30.8141 31.4442 30.6623 31.0114 30.3406 30.6274C30.2665 30.539 30.1849 30.4572 30.1108 30.3687C30.0648 30.3139 29.9412 30.1395 29.9728 30.2041C30.1876 30.6435 30.9006 31.1024 31.2371 31.427C31.47 31.6517 31.7007 31.8798 31.9497 32.0855C32.3413 32.4091 32.7627 32.7248 33.2139 32.9557" fill="none" fill-rule="evenodd" opacity="1" stroke="#fddf19" stroke-linecap="round" stroke-linejoin="round" stroke-width="2"/>
</g>
</svg>
