<svg width="40" height="40" viewBox="0 0 40 40" fill="none" xmlns="http://www.w3.org/2000/svg">
<path d="M35.8491 16.3577C35.3966 20.9484 34.2652 25.9154 31.776 29.6783C31.248 30.4309 30.4183 31.334 29.8149 31.9361C27.1749 34.6454 23.6298 36 19.9339 36C16.0116 36 11.9385 34.4948 8.84598 31.4845C2.81175 25.6897 2.35919 16.4329 7.78999 10.7886C8.92141 9.65971 10.2037 8.68135 11.7122 7.92877C11.0334 9.05764 10.5808 10.4123 10.43 11.8422C10.0528 15.0783 11.0334 18.5401 13.0699 20.8731C15.3328 23.5072 18.8025 25.0123 22.5738 25.0123C25.5155 25.0123 28.4572 24.034 30.7955 22.303C31.3989 21.8515 31.9269 21.4 32.4549 20.8731C33.888 19.4432 34.944 17.9381 35.8491 16.3577ZM28.4572 19.1422C28.9098 18.8412 29.2869 18.4649 29.7395 18.0886C33.5109 14.401 34.8686 8.75661 35.7737 5.14423C35.8491 4.99371 35.9246 4.31639 36 4.16587C35.9246 4.16587 33.6617 3.9401 30.3429 4.01536C30.2675 4.01536 30.1166 4.01536 29.9658 4.01536C28.0801 4.09062 25.8172 4.16587 23.5544 4.46691C20.6881 4.99371 19.3304 5.59578 17.9727 6.49887C16.6905 7.32671 14.4276 9.58445 14.2014 12.1432C13.8996 14.3257 14.6539 16.6587 15.9362 18.2391C18.8779 21.6257 24.535 22.0773 28.4572 19.1422Z" fill="url(#paint0_linear)"/>
<defs>
<linearGradient id="paint0_linear" x1="13.7531" y1="9.19695" x2="30.4882" y2="25.9699" gradientUnits="userSpaceOnUse">
<stop offset="0.2192" stop-color="#07C3F2"/>
<stop offset="0.8329" stop-color="#6B57FF"/>
</linearGradient>
</defs>
</svg>
