<svg xmlns="http://www.w3.org/2000/svg" xmlns:xlink="http://www.w3.org/1999/xlink" width="40" height="40" viewBox="0 0 40 40">
  <defs>
    <polygon id="docker-a" points="0 26.908 36 26.908 36 0 0 0"/>
  </defs>
  <g fill="none" fill-rule="evenodd" transform="translate(2 6)">
    <path fill="#37B1D9" d="M31.251,10.3304 C31,7.9574 28.457,5.9574 28.457,5.9574 C28.457,5.9574 27,7.9574 27.153,10.2284 C27.247,11.1444 27.526,12.0594 27.992,12.7714 C27.619,12.9754 27.153,13.1784 26.781,13.3814 C25.943,13.6864 24.838,13.9574 24,13.9574 L0.149,13.9574 L0,14.9574 C0,16.9574 0.038,18.6364 1.447,21.2464 C3.237,24.5624 7.506,26.9084 11.882,26.9084 C20.263,26.9084 27.153,22.9414 30.413,14.3984 C35,14.9574 36,11.1444 36,11.1444 C36,11.1444 34,9.9574 31.251,10.3304 M7.226,21.4164 C6.202,21.4164 5.271,20.5014 5.271,19.3824 C5.271,18.2644 6.108,17.3484 7.226,17.3484 C8.344,17.3484 9.182,18.2644 9.182,19.3824 C9.182,20.5014 8.25,21.4164 7.226,21.4164"/>
    <mask id="docker-b" fill="#fff">
      <use xlink:href="#docker-a"/>
    </mask>
    <polygon fill="#37B1D9" points="15.606 12.85 19.238 12.85 19.238 9.219 15.606 9.219" mask="url(#docker-b)"/>
    <polygon fill="#37B1D9" points="15.606 8.287 19.238 8.287 19.238 4.656 15.606 4.656" mask="url(#docker-b)"/>
    <polygon fill="#37B1D9" points="15.606 3.631 19.238 3.631 19.238 -.001 15.606 -.001" mask="url(#docker-b)"/>
    <polygon fill="#37B1D9" points="20.076 12.85 23.708 12.85 23.708 9.219 20.076 9.219" mask="url(#docker-b)"/>
    <polygon fill="#37B1D9" points="6.574 12.85 10.206 12.85 10.206 9.219 6.574 9.219" mask="url(#docker-b)"/>
    <polygon fill="#37B1D9" points="11.137 12.85 14.769 12.85 14.769 9.219 11.137 9.219" mask="url(#docker-b)"/>
    <polygon fill="#37B1D9" points="2.104 12.85 5.736 12.85 5.736 9.219 2.104 9.219" mask="url(#docker-b)"/>
    <polygon fill="#37B1D9" points="11.137 8.287 14.769 8.287 14.769 4.656 11.137 4.656" mask="url(#docker-b)"/>
    <polygon fill="#37B1D9" points="6.574 8.287 10.206 8.287 10.206 4.656 6.574 4.656" mask="url(#docker-b)"/>
  </g>
</svg>
