<?xml version="1.0" encoding="utf-8"?>

<!-- Generator: Adobe Illustrator 23.0.6, SVG Export Plug-In . SVG Version: 6.00 Build 0)  -->
<svg version="1.1" id="레이어_1" xmlns="http://www.w3.org/2000/svg" xmlns:xlink="http://www.w3.org/1999/xlink" x="0px"
	 y="0px" viewBox="0 0 40 40" style="enable-background:new 0 0 40 40;" xml:space="preserve">
<style type="text/css">
	.st0{fill:#898989;}
	.st1{fill:#07427E;}
	.st2{fill:#A12151;}
</style>
<g>
	<path class="st0" d="M23.4,26.2h7c0.8,0,1.4,0.6,1.4,1.4v7c0,0.8-0.6,1.4-1.4,1.4h-7c-0.8,0-1.4-0.6-1.4-1.4v-7
		C22,26.8,22.6,26.2,23.4,26.2z"/>
	<path class="st0" d="M9.6,15.1h9.9c0.8,0,1.4,0.6,1.4,1.4v18.1c0,0.8-0.6,1.4-1.4,1.4H9.6c-0.8,0-1.4-0.6-1.4-1.4V16.5
		C8.2,15.7,8.8,15.1,9.6,15.1z"/>
	<path class="st0" d="M9.6,4h9.9c0.8,0,1.4,0.6,1.4,1.4v7c0,0.8-0.6,1.4-1.4,1.4H9.6c-0.8,0-1.4-0.6-1.4-1.4v-7C8.2,4.6,8.8,4,9.6,4
		z"/>
	<path class="st1" d="M30.4,15.1h-7c-0.8,0-1.4,0.6-1.4,1.4v7c0,0.8,0.6,1.4,1.4,1.4h7c0.8,0,1.4-0.6,1.4-1.4v-7
		C31.8,15.7,31.2,15.1,30.4,15.1z"/>
	<path class="st2" d="M30.4,4h-7C22.6,4,22,4.6,22,5.4v7c0,0.8,0.6,1.4,1.4,1.4h7c0.8,0,1.4-0.6,1.4-1.4v-7C31.8,4.6,31.2,4,30.4,4z
		"/>
</g>
</svg>
