<svg width="344" height="344" viewBox="0 0 344 344" fill="none" xmlns="http://www.w3.org/2000/svg">
<g clip-path="url(#clip0_4194_53498)">
<g filter="url(#filter0_d_4194_53498)">
<rect x="-72" width="488" height="344" rx="4" fill="#4154FF"/>
</g>
<path d="M83.0656 181.931C81.8305 181.028 80.3851 180.253 78.7286 179.606C77.0716 178.961 75.1056 178.38 72.8319 177.862C72.1815 177.733 71.5159 177.62 70.8339 177.523C70.1519 177.426 69.4525 177.314 68.7385 177.184C67.7639 176.926 66.8694 176.49 66.0585 175.876C65.2449 175.263 64.8398 174.408 64.8398 173.308C64.8398 172.405 65.2618 171.501 66.1065 170.596C66.9503 169.692 68.056 169.239 69.4205 169.239C70.785 169.239 72.0672 169.595 73.2703 170.305C74.472 171.016 75.2687 171.952 75.6586 173.114L86.0867 169.627C85.566 167.882 84.7711 166.3 83.6992 164.879C82.6268 163.459 81.3433 162.231 79.8494 161.197C78.3533 160.164 76.6968 159.356 74.8784 158.775C73.0591 158.194 71.1415 157.903 69.1284 157.903C66.7236 157.903 64.4655 158.324 62.355 159.162C60.2423 160.003 58.3905 161.117 56.7993 162.505C55.2063 163.895 53.9557 165.525 53.0465 167.398C52.1364 169.272 51.6825 171.242 51.6825 173.308C51.6825 174.084 51.7309 175.117 51.8283 176.409C51.9256 177.702 52.3965 179.058 53.2417 180.478C54.0851 181.9 55.4348 183.305 57.2866 184.693C59.1383 186.083 61.8184 187.197 65.3276 188.036C66.4315 188.359 67.406 188.537 68.2512 188.569C69.0946 188.602 70.167 188.876 71.4674 189.392C72.3766 189.716 73.188 190.152 73.9038 190.7C74.6183 191.25 74.9762 191.848 74.9762 192.492C74.9762 193.398 74.4551 194.366 73.4165 195.399C72.3766 196.433 70.7516 196.949 68.5433 196.949C66.3995 196.949 64.7091 196.547 63.4754 195.738C62.2403 194.931 61.3311 194.043 60.7464 193.074C59.382 193.785 57.789 194.575 55.9706 195.448C54.1509 196.32 52.4938 197.112 51 197.821C51.5846 199.371 52.4769 200.776 53.68 202.036C54.8818 203.296 56.2947 204.378 57.9201 205.282C59.5434 206.187 61.3142 206.897 63.2317 207.414C65.1475 207.93 67.1135 208.189 69.1284 208.189C71.7915 208.189 74.2942 207.784 76.6332 206.977C78.9722 206.17 81.0187 205.057 82.7731 203.635C84.5279 202.215 85.9075 200.568 86.9154 198.693C87.9219 196.821 88.4261 194.818 88.4261 192.686C88.4261 188.036 86.6384 184.451 83.0656 181.931Z" fill="white"/>
<path d="M163.861 135C161.777 135 160.019 135.728 158.588 137.184C157.155 138.641 156.44 140.405 156.44 142.475C156.44 144.547 157.155 146.294 158.588 147.717C160.019 149.142 161.777 149.853 163.861 149.853C165.944 149.853 167.701 149.142 169.134 147.717C170.566 146.294 171.282 144.547 171.282 142.475C171.282 140.405 170.566 138.641 169.134 137.184C167.701 135.728 165.944 135 163.861 135Z" fill="white"/>
<path d="M127.116 159.066L117.37 193.849L107.331 159.066H93.4908L108.013 207.123H124.972L131.989 183.966L132.769 177.087L133.451 183.966L140.468 207.123H144.212L148.053 193.982L138.324 159.066H127.116Z" fill="white"/>
<path d="M174.549 173.495L176.528 180.327L180.504 194.042L180.521 193.982L184.362 207.123H171.049L163.823 183.211L156.527 159.066H170.367L174.549 173.495Z" fill="white"/>
<path d="M291.286 169.142C290.18 166.559 288.767 164.524 287.046 163.038C285.324 161.553 283.455 160.519 281.442 159.937C279.427 159.356 277.544 159.065 275.789 159.065C274.489 159.065 273.141 159.213 271.744 159.506C270.346 159.8 268.998 160.256 267.7 160.873C266.399 161.492 265.197 162.273 264.093 163.218C262.988 164.163 262.047 165.253 261.267 166.49C260.357 165.058 259.333 163.869 258.197 162.924C257.962 162.729 257.723 162.546 257.483 162.366V162.386C255.988 161.248 254.391 160.429 252.689 159.937C250.674 159.356 248.79 159.065 247.036 159.065C245.736 159.065 244.388 159.213 242.991 159.506C241.593 159.8 240.245 160.256 238.947 160.873C237.646 161.492 236.444 162.273 235.34 163.218C234.235 164.163 233.294 165.253 232.514 166.49C231.603 165.058 230.58 163.869 229.444 162.924C229.209 162.729 228.97 162.546 228.73 162.366C227.812 161.676 226.865 161.094 225.886 160.629C224.652 160.044 223.384 159.636 222.085 159.408C220.785 159.181 219.551 159.065 218.381 159.065C216.106 159.065 213.979 159.458 211.998 160.238C210.015 161.02 208.278 162.127 206.784 163.559L204.834 159.065H193.333V207.123H206.784V181.709C206.784 178.037 207.529 175.332 209.025 173.593C210.519 171.854 212.208 170.983 214.093 170.983C216.692 170.983 218.674 171.757 220.038 173.302C221.403 174.849 222.085 177.587 222.085 181.515V207.123H228.73H235.535V181.42C235.535 179.358 235.746 177.651 236.168 176.299C236.591 174.945 237.159 173.882 237.874 173.108C238.589 172.336 239.4 171.788 240.311 171.466C241.22 171.145 242.129 170.983 243.04 170.983C244.015 170.983 244.972 171.16 245.915 171.514C246.856 171.869 247.685 172.465 248.4 173.302C249.115 174.141 249.683 175.236 250.106 176.588C250.528 177.941 250.74 179.583 250.74 181.515V207.123H257.483H264.19H264.288V181.42C264.288 179.358 264.499 177.651 264.922 176.299C265.343 174.945 265.912 173.882 266.627 173.108C267.342 172.336 268.154 171.788 269.065 171.466C269.973 171.145 270.882 170.983 271.793 170.983C272.768 170.983 273.725 171.16 274.668 171.514C275.609 171.869 276.438 172.465 277.153 173.302C277.868 174.141 278.436 175.236 278.859 176.588C279.281 177.941 279.493 179.583 279.493 181.515V207.123H292.943V179.025C292.943 175.02 292.39 171.726 291.286 169.142Z" fill="white"/>
</g>
<defs>
<filter id="filter0_d_4194_53498" x="-75" y="-3" width="496" height="352" color-interpolation-filters="sRGB">
<feFlood flood-opacity="0" result="BackgroundImageFix"/>
<feColorMatrix in="SourceAlpha" values="0 0 0 0 0 0 0 0 0 0 0 0 0 0 0 0 0 0 127 0" result="hardAlpha"/>
<feOffset dx="1" dy="1"/>
<feGaussianBlur stdDeviation="2"/>
<feColorMatrix values="0 0 0 0 0.258824 0 0 0 0 0.258824 0 0 0 0 0.258824 0 0 0 0.2 0"/>
<feBlend in2="BackgroundImageFix" result="effect1_dropShadow_4194_53498"/>
<feBlend in="SourceGraphic" in2="effect1_dropShadow_4194_53498" result="shape"/>
</filter>
<clipPath id="clip0_4194_53498">
<rect width="344" height="344" rx="48" fill="white"/>
</clipPath>
</defs>
</svg>
