<svg xmlns="http://www.w3.org/2000/svg" version="1.0" width="16" height="16" viewBox="0 0 555 543"><path d="M280.602 32.886H39.282a19.859 20.708 0 0 0-20.107 20.409v204.528a19.859 20.708 0 0 0 20.107 20.448h241.32a19.859 20.708 0 0 0 20.126-20.448V53.315a19.859 20.708 0 0 0-20.126-20.449zM59.39 176.047l40.23-40.917-40.23-40.918 20.126-20.468 60.34 61.366-60.34 61.346zm160.893 20.43h-80.447v-20.43h80.447z" fill="#666" style="stroke-width:19.4987"/><path d="m69.47 185.804-9.585-9.697L79.992 155.5l20.107-20.588-3.838-3.783c-2.1-2.051-11.152-11.17-20.088-20.27l-16.25-16.526 9.605-10.015c5.29-5.536 9.796-9.976 10.006-9.896.954.398 59.576 60.43 59.442 60.868-.287.837-58.87 60.251-59.423 60.251-.268 0-4.812-4.38-10.082-9.716zm70.843.299v-10.036h79.549v20.09h-79.55z" fill="#eee" style="stroke-width:19.4987"/><path fill="#52a3a5" fill-rule="evenodd" d="M521.8 285.666c-19.797-21.333-51.724-21.923-72.188-1.334-.997 1.022-1.562 2.44-1.562 3.922 0 1.483.565 2.9 1.562 3.923l6.261 6.903c1.75 1.875 4.513 2.075 6.48.47 12.477-10.737 30.593-8.96 41.065 4.028 10.473 12.988 9.572 32.564-2.04 44.374-41.246 44.4-96.288-80.093-221.226-15.925-4.263 2.207-7.475 6.234-8.858 11.107-1.383 4.873-.811 10.147 1.577 14.545l21.442 39.89c4.621 8.66 14.857 11.688 22.935 6.785l.51-.314-.401.314 9.392-5.648a221.534 221.534 0 0 0 29.924-24.044c1.906-1.872 4.794-1.972 6.807-.235 1.066.963 1.7 2.371 1.742 3.87.042 1.498-.513 2.944-1.523 3.975a226.594 226.594 0 0 1-31.599 25.612h-.327l-9.502 5.727c-4.013 2.428-8.54 3.698-13.141 3.687-9.702.037-18.683-5.512-23.554-14.552L265.3 365.053c-38.77 29.73-62.578 86.84-49.69 159.166.436 2.514 2.467 4.341 4.84 4.354h22.862c2.615.073 4.83-2.057 5.06-4.864 2.222-18.122 16.563-31.666 33.528-31.666 16.966 0 31.307 13.544 33.528 31.666.295 2.662 2.39 4.667 4.878 4.668h22.352c2.482-.018 4.568-2.014 4.879-4.668 2.221-18.122 16.561-31.666 33.527-31.666s31.307 13.544 33.528 31.666c.31 2.654 2.396 4.65 4.878 4.668h22.207c2.706 0 4.91-2.34 4.95-5.256.51-33.732 8.956-72.484 33.019-91.9 83.365-67.188 61.45-124.767 42.156-145.555zm-85.002 101.47-15.909-8.59c-.005-5.064 3.273-9.444 7.867-10.514 4.593-1.07 9.257 1.46 11.195 6.072 1.938 4.613.624 10.058-3.153 13.07z" style="stroke-width:26.1514"/><path fill="#499c54" fill-rule="evenodd" d="m368.656 16.717-.04-.023 58.857-2.333-.165 15.71-20.163 10.696-31.121 33.915 55.597 62.26 13.889 1.618 91.898 102.875-43.586 48.793-91.919-102.922-1.486-15.594-55.741-62.423-1.899 11.482-2.745 7-33.02 36.964-37.353-41.815 31.224-34.954 9.287-3.697a10.319 11.551 0 0 1 2.89-9.934l48.786-54.614 6.81-3.027z" style="stroke-width:21.8351"/><g fill="#3592c4" fill-rule="evenodd"><path d="M20.352 280.912h46.456v252.593H20.352z"/><path d="M43.58 418.69h162.596v45.926H43.58z"/><path d="M159.72 349.8h46.456v91.853H159.72z"/><path d="m182.948 280.912 81.299 91.852H101.65z"/></g></svg>