<?xml version="1.0" encoding="UTF-8" standalone="no"?>
<svg
   id="Design"
   viewBox="0 0 124.29185 134.37219"
   version="1.1"
   sodipodi:docname="Color_Vertical copy.svg"
   width="124.29185"
   height="134.37219"
   inkscape:version="1.2 (dc2aeda, 2022-05-15)"
   xmlns:inkscape="http://www.inkscape.org/namespaces/inkscape"
   xmlns:sodipodi="http://sodipodi.sourceforge.net/DTD/sodipodi-0.dtd"
   xmlns="http://www.w3.org/2000/svg"
   xmlns:svg="http://www.w3.org/2000/svg">
  <sodipodi:namedview
     id="namedview254"
     pagecolor="#ffffff"
     bordercolor="#000000"
     borderopacity="0.25"
     inkscape:showpageshadow="2"
     inkscape:pageopacity="0.0"
     inkscape:pagecheckerboard="0"
     inkscape:deskcolor="#d1d1d1"
     showgrid="false"
     inkscape:zoom="1.0727273"
     inkscape:cx="62.923729"
     inkscape:cy="96.016949"
     inkscape:window-width="1309"
     inkscape:window-height="456"
     inkscape:window-x="264"
     inkscape:window-y="360"
     inkscape:window-maximized="0"
     inkscape:current-layer="Design" />
  <defs
     id="defs171">
    <style
       id="style169">.cls-1{fill:#f3f3f3;}.cls-2{fill:#6271b6;}.cls-3{fill:#424d87;}.cls-4{fill:#7482c4;}.cls-5{fill:#353f6e;}.cls-6{fill:#4f5da3;}.cls-7{fill:#7c8bd1;}.cls-8{fill:#ccc;}.cls-9{fill:#a5afd4;}</style>
  </defs>
  <path
     class="cls-2"
     d="m 124.23045,66.042196 c -0.8,-14 -32.000005,-44.42 -37.060005,-49.21 -5.06,-4.79 -13.52,-17 -16,-16.83 -2.63,0.21 1.49,24.84 1.81,42.44 0.32,17.6 -3.57,23.68 -4.9,23.35 -1.33,-0.33 -5.93,-1 -5.93,-1 0,0 -4.59,0.66 -5.94,1 -1.35,0.34 -5.23,-5.74 -4.92,-23.35 0.31,-17.61 4.44,-42.23 1.81,-42.44 -2.46,-0.19 -10.93,12 -16,16.83 -5.07,4.83 -36.23999956,35.18 -37.03999956,49.21 -0.63,11.1 3.65999996,14.3 13.08999956,18.76 9.43,4.46 12.36,5.8 11.69,8.24 -0.67,2.44 -6.74,3.45 -7.08,9.430004 -0.34,5.98 1.11,15.49 17.65,22.68 16.54,7.19 22,9.22 26.76,9.22 4.76,0 10.22,-2 26.75,-9.22 16.530005,-7.22 17.280005,-18.82 17.000005,-24.79 -0.28,-5.970004 -5.72,-4.880004 -6.400005,-7.320004 -0.68,-2.44 2.270005,-3.78 11.700005,-8.24 9.43,-4.46 13.64,-7.66 13.01,-18.76 z"
     id="path183" />
  <path
     class="cls-3"
     d="m 105.12045,100.5422 c -0.33,-5.720004 -5.670005,-4.670004 -6.340005,-7.000004 v -0.16 l -11.37,-3.06 -22.09,-2.29 -1.8,8.48 c 0,0 13,11.170004 23.2,10.830004 10.2,-0.34 13.310005,-7.770004 16.650005,-3.45 1.86,2.4 -3,13.51 -12.090005,16.31 -9.09,2.8 -16.34,5.72 -21.06,7 a 39.38,39.38 0 0 1 -16.2,0.59 c -5.31,-1 -24.63,-6.55 -25,-6.67 a 41.7,41.7 0 0 0 6.28,3.16 c 16.4,6.89 21.78,8.83 26.53,8.83 4.75,0 10.14,-1.94 26.54,-8.83 16.400005,-6.89 17.090005,-18.01 16.750005,-23.74 z"
     id="path185" />
  <path
     class="cls-3"
     d="m 27.220445,97.962196 c 0,0 3.81,9.240004 22.23,7.660004 18.42,-1.58 16.76,-13.260004 16.51,-22.510004 -0.25,-9.25 -12.26,-17.17 -12.26,-17.17 z"
     id="path187" />
  <path
     class="cls-4"
     d="m 99.510445,110.6322 c -2.74,2.26 -7.26,1.4 -12.07,0.12 a 4.69,4.69 0 0 0 -2.27,-1.17 8.51,8.51 0 0 0 -2.83,-0.23 c -0.81,-0.21 0.23,1.66 -0.56,1.49 -7.15,-1.53 -18,-2 -18,-2 a 33.11,33.11 0 0 0 -14,2.19 c -6.8,2.58 -16.93,3 -21.1,-0.43 -1.29,-1.07 -2.51,-1.55 -3.23,-3.31 -0.27,-0.64 0.74,-5.87 3.34,-2.41 1.67,2.21 2.23,5 5.14,5.12 10.67,0.45 15.59,-4.63 19.56,-9.25 1.47,-1.700004 3.71,-2.900004 4.82,-4.370004 1.37,-1.83 2.14,-4.71 3.58,-4.72 2.22,0 2.13,2.52 4.71,5.23 1,1 2.49,1.62 3.87,2.74 a 44.46,44.46 0 0 0 22.15,10.180004 c 2.87,0.46 3.68,-0.67 5.53,-2.72 1.850005,-2.05 5.180005,-1.2 4.100005,0.76 -0.84,1.7 -1.44,1.71 -2.740005,2.78 z"
     id="path189" />
  <path
     class="cls-5"
     d="m 61.530445,93.722196 c 0,-0.37 -0.4,-0.51 -0.58,-0.2 -0.62,1.07 -1.19,3.51 -2.34,4.53 -1.5,1.31 -3.32,2.940004 -2.68,4.650004 0.64,1.71 2.5,0.52 4,-0.66 0.62,-0.51 1,-0.8 1.26,-1 a 1,1 0 0 0 0.39,-0.82 z"
     id="path191" />
  <path
     class="cls-5"
     d="m 62.790445,93.452196 c 0,-0.37 0.4,-0.51 0.58,-0.2 0.62,1.07 1.19,3.52 2.34,4.53 1.49,1.31 3.32,2.940004 2.68,4.650004 -0.64,1.71 -2.5,0.53 -4,-0.65 -0.62,-0.51 -1,-0.81 -1.26,-1 a 1,1 0 0 1 -0.39,-0.820004 z"
     id="path193" />
  <path
     class="cls-6"
     d="m 83.110445,110.5622 c 0,0 0,6.51 -0.41,7.58 1.79,-0.4 5.66,-3.61 6.54,-6 -1.83,-1.09 -6.13,-1.58 -6.13,-1.58 z"
     id="path195" />
  <path
     class="cls-1"
     d="m 82.410445,110.2322 a 43,43 0 0 1 -0.61,6 c 1.78,-0.4 4.93,-2.3 5.81,-4.65 a 14.42,14.42 0 0 0 -5.2,-1.35 z"
     id="path197" />
  <path
     class="cls-5"
     d="m 99.510445,111.8422 c -2.74,2.27 -7.26,1.41 -12.07,0.13 a 4.69,4.69 0 0 0 -2.27,-1.18 8.77,8.77 0 0 0 -2.83,-0.22 10.57,10.57 0 0 1 -2.39,-0.57 c -5.87,-3.22 -15.86,-3.2 -15.86,-3.2 0,0 -8.67,0 -15.55,3.23 -6.56,3.13 -15.65,5.25 -19.82,1.81 a 11.3,11.3 0 0 1 -3,-4.45 c -0.27,-0.65 0.55,-1.14 0.91,-0.56 1.46,2.35 3.57,3.34 6.44,3.85 7.81,1.39 17.36,-5.06 31,-5.06 13.64,0 23.93,4.17 31,5.06 2.89,0.37 5.000005,-1.5 6.430005,-3.85 0.36,-0.58 1.18,-0.09 0.92,0.56 a 11.21,11.21 0 0 1 -2.910005,4.45 z"
     id="path199" />
  <path
     class="cls-6"
     d="m 57.910445,113.5422 c -1,-0.71 1,-2.3 5.59,-2.3 4.25,0 5.91,1.38 5.68,2 -0.42,1.09 -3.65,-0.24 -5.8,-0.24 -2.15,0 -4.44,1.25 -5.47,0.54 z"
     id="path201" />
  <path
     class="cls-7"
     d="m 51.050445,123.3822 c -2.12,-2.41 2.13,-7.83 11.55,-7.83 8.79,0 12.22,4.71 11.75,6.74 -0.87,3.72 -8,3.27 -12.48,3.27 -4.48,0 -8.7,0.24 -10.82,-2.18 z"
     id="path203" />
  <path
     class="cls-7"
     d="m 71.920445,2.342196 c -0.57,0 -0.44,4.06 -0.49,4.83 -0.05,0.77 4.46,36.72 2.2,48.56 -0.4,2.09 3.55,-4.16 1.91,-29.3 -0.18,-2.84 -0.95,-15.74 1,-16.13 1.95,-0.39 -0.45,-4.46 -0.79,-5.13 -0.34,-0.67 -2.89,-2.84 -3.83,-2.83 z"
     id="path205" />
  <path
     class="cls-3"
     d="m 50.350445,3.172196 c 0,0 -14.4,18.92 -21.15,25.67 -6.75,6.75 -20.6099996,24.36 -23.4399996,29.27 -2.83,4.91 -6.45999996,16.28 4,22.82 -5.22,-12.71 4.7899996,-16.43 7.9999996,-15.84 3.21,0.59 2.92,12.08 2.92,12.08 l 5.18,6.78 19,-1.32 10.55,-15.44 -3.86,-3.55 a 27.19,27.19 0 0 0 -13.63,-5.53 c -8.22,-0.88 -11.28,-0.61 -11.28,-0.61 0,0 1.17,-7.66 9.77,-6.33 -2.49,-3.72 -3.36,-23.28 13.94,-48 z"
     id="path207" />
  <path
     class="cls-3"
     d="m 77.520445,16.522196 c 0,0 2.11,14.52 2.22,23.19 0.11,8.67 2.11,22.11 -1.66,25.66 -3.77,3.55 2.29,5 2.29,5 l 23.260005,14.41 c 0,0 5.84,-1 8.61,-2.85 2.77,-1.85 7.28,-4.94 8.11,-8.67 -3.77,3.84 -7.05,6.73 -9.61,3.56 -2.56,-3.17 -0.83,-18.28 -10.44,-25.67 1.61,3.39 -0.390005,9 -4.170005,8.34 -3.78,-0.66 -9.72,-9.62 -11.22,-17.28 -1.5,-7.66 -7.39,-25.69 -7.39,-25.69 z"
     id="path209" />
  <path
     class="cls-7"
     d="m 30.310445,54.252196 c 0,-0.32 0.65,-1.12 1.9,-1.44 1.25,-0.32 3.92,-0.46 5.16,1.24 1.24,1.7 -2.14,0 -3,-0.14 -2.69,-0.56 -4.06,0.65 -4.06,0.34 z"
     id="path211" />
  <path
     class="cls-7"
     d="m 52.520445,2.892196 a 118.63,118.63 0 0 0 -2.64,11.83 c -0.44,3.09 -1.92,14 -2.08,18.5 -0.16,4.5 -2.39,20.87 -3.1,22.24 -0.71,1.37 -0.5,2.59 0.29,3 0.79,0.41 3,0.89 4.36,1.93 1.36,1.04 1.18,-2.39 -0.36,-4.39 -1.54,-2 -1.28,-5.46 -1,-8.17 0.28,-2.71 0.39,-13.36 1.56,-20.44 1.17,-7.08 2.97,-24.5 2.97,-24.5 z"
     id="path213" />
  <path
     class="cls-7"
     d="m 92.960445,49.722196 c -1.06,-1.59 -0.22,5.61 2.24,6.36 2.46,0.75 4.21,-1.54 3.21,-3.36 -1,-1.82 -3.95,-0.75 -5.45,-3 z"
     id="path215" />
  <path
     class="cls-1"
     d="m 19.040445,71.462196 -9.9999996,-8.83 a 4.4,4.4 0 0 1 -0.34,-6.21 v 0 a 4.41,4.41 0 0 1 6.2199996,-0.34 l 9.85,8.7 a 17.89,17.89 0 0 0 -5.73,6.68 z"
     id="path217" />
  <path
     class="cls-8"
     d="m 60.470445,82.652196 c 0,0 0,0 0,0.08 a 21.39,21.39 0 0 1 -21.31,21.390004 21.47,21.47 0 0 0 21.31,-21.470004 z"
     id="path219" />
  <path
     class="cls-8"
     d="m 17.690445,82.412196 c 0,-0.5 0,-1 0.07,-1.48 -0.03,0.49 -0.07,0.98 -0.07,1.48 z"
     id="path221" />
  <path
     class="cls-8"
     d="m 39.080445,104.1222 v 0 a 21.4,21.4 0 0 1 -21.4,-21.400004 v -0.1 a 21.48,21.48 0 0 0 21.4,21.500004 z"
     id="path223" />
  <path
     class="cls-1"
     d="m 17.690445,82.412196 c 0,-0.5 0,-1 0.07,-1.48 a 21.57,21.57 0 0 1 9.13,-16 21.2,21.2 0 0 1 12.19,-3.85 21.47,21.47 0 0 1 21.4,21.54 c 0,0 0,0 0,0.07 a 21.47,21.47 0 0 1 -21.32,21.430004 h -0.08 a 21.48,21.48 0 0 1 -21.4,-21.490004 v 0 c 0,-0.11 0.01,-0.16 0.01,-0.22 z"
     id="path225" />
  <circle
     class="cls-9"
     cx="39.160446"
     cy="82.9422"
     r="17.48"
     id="circle227" />
  <path
     class="cls-1"
     d="m 23.350445,71.202196 33.29,4.31 -3.38,-4.31 c 0,0 -4.76,-4.48 -5.07,-4.56 -0.31,-0.08 -4.87,-2.38 -6.94,-2.38 -2.07,0 -6.94,-1.76 -9,-0.72 -2.06,1.04 -8.9,7.18 -8.9,7.18 z"
     id="path229" />
  <polygon
     class="cls-1"
     points="68.09,101.11 88.6,93.53 81.14,100.18 95.85,94.69 90.89,85.94 "
     id="polygon231"
     transform="translate(-37.589555,-14.277804)" />
  <path
     class="cls-3"
     d="m 20.050445,70.402196 c 0,0 -9.18,-8.28 -9.46,-8.58 a 3,3 0 0 1 -0.15,-3 c 0.59,-0.83 0.12,0.6 0.56,1.58 0.44,0.98 11.26,7 11.26,7 z"
     id="path233" />
  <path
     class="cls-1"
     d="m 105.28045,71.262196 9.76,-8.61 a 4.29,4.29 0 0 0 0.33,-6.07 v 0 a 4.3,4.3 0 0 0 -6.06,-0.33 l -9.620005,8.47 a 17.29,17.29 0 0 1 5.590005,6.54 z"
     id="path235" />
  <path
     class="cls-8"
     d="m 64.310445,82.652196 v 0.07 a 21.39,21.39 0 0 0 21.32,21.390004 21.47,21.47 0 0 1 -21.32,-21.460004 z"
     id="path237" />
  <path
     class="cls-8"
     d="m 107.10045,82.412196 c 0,-0.5 0,-1 -0.08,-1.48 0.04,0.49 0.07,0.98 0.08,1.48 z"
     id="path239" />
  <path
     class="cls-8"
     d="m 85.710445,104.1222 v 0 A 21.39,21.39 0 0 0 107.10045,82.722196 v -0.1 A 21.46,21.46 0 0 1 85.710445,104.1222 Z"
     id="path241" />
  <path
     class="cls-1"
     d="m 107.10045,82.412196 c 0,-0.5 0,-1 -0.08,-1.48 a 21.38,21.38 0 0 0 -42.710005,1.65 v 0.07 a 21.47,21.47 0 0 0 21.32,21.470004 h 0.08 A 21.46,21.46 0 0 0 107.10045,82.632196 Z"
     id="path243" />
  <circle
     class="cls-9"
     cx="85.530449"
     cy="82.9422"
     r="17.48"
     id="circle245" />
  <path
     class="cls-1"
     d="m 100.18045,71.202196 -32.770005,4.87 2,-4.41 c 0,0 5.65,-4.91 6,-5 0.35,-0.09 4.87,-2.38 6.94,-2.38 2.07,0 6.94,-1.76 9,-0.72 2.06,1.04 8.830005,7.16 8.830005,7.16 z"
     id="path247" />
  <polygon
     class="cls-1"
     points="114.43,99.86 134.93,92.27 127.48,98.93 142.18,93.44 137.22,84.68 "
     id="polygon249"
     transform="translate(-37.589555,-14.277804)" />
  <path
     class="cls-3"
     d="m 104.93045,70.862196 c 0,0 9.18,-8.28 9.46,-8.58 a 3,3 0 0 0 0.15,-3 c -0.59,-0.83 -0.12,0.6 -0.56,1.59 -0.44,0.99 -11.26,7 -11.26,7 z"
     id="path251" />
</svg>
