<?xml version="1.0" encoding="UTF-8" standalone="no"?>
<!DOCTYPE svg PUBLIC "-//W3C//DTD SVG 1.1//EN" "http://www.w3.org/Graphics/SVG/1.1/DTD/svg11.dtd">
<!-- Created with Vectornator (http://vectornator.io/) -->
<svg stroke-miterlimit="10" style="fill-rule:nonzero;clip-rule:evenodd;stroke-linecap:round;stroke-linejoin:round;" version="1.1" viewBox="0 0 40 40" xml:space="preserve" xmlns="http://www.w3.org/2000/svg" xmlns:xlink="http://www.w3.org/1999/xlink">
<defs/>
<g id="Layer-1">
<path d="M20.4323 1.78116C17.0132 2.98148 13.4803 7.82187 14.8589 11.3493C16.4155 15.3324 22.1632 17.4244 26.2795 16.2537C27.0877 16.0239 27.8453 15.6167 28.5429 15.1772C30.8466 13.7261 31.1743 11.7889 30.8172 9.34473C30.6776 8.38944 30.5896 7.40366 30.0394 6.55706C28.394 4.02573 24.2218 1.31666 21.0013 1.76935" fill="none" fill-rule="evenodd" opacity="1" stroke="#1d3fba" stroke-linecap="round" stroke-linejoin="round" stroke-width="2"/>
<path d="M19.9319 5.93713C21.4168 5.07014 20.1351 8.19804 19.3447 7.29776C18.7099 6.5747 20.1881 5.47424 21.0868 6.33715C22.0081 7.22175 20.2276 7.99727 20.352 7.50126" fill="none" fill-rule="evenodd" opacity="1" stroke="#1d3fba" stroke-linecap="round" stroke-linejoin="round" stroke-width="2"/>
<path d="M16.1335 11.5664C17.4537 12.3423 21.2783 12.1229 22.5814 11.6655" fill="none" fill-rule="evenodd" opacity="1" stroke="#1d3fba" stroke-linecap="round" stroke-linejoin="round" stroke-width="2"/>
<path d="M20.0517 17.0439C19.716 17.424 19.6208 18.7575 19.5736 19.2455C19.3978 21.0643 19.0197 22.7315 18.5757 24.5024" fill="none" fill-rule="evenodd" opacity="1" stroke="#1d3fba" stroke-linecap="round" stroke-linejoin="round" stroke-width="1.5"/>
<path d="M15.7168 16.8609C15.494 16.991 14.0287 18.467 14.0772 18.591C14.1359 18.7411 15.1333 19.0255 15.2798 19.095C16.3564 19.6062 17.4526 20.0696 18.5217 20.5948" fill="none" fill-rule="evenodd" opacity="1" stroke="#1d3fba" stroke-linecap="round" stroke-linejoin="round" stroke-width="1.5"/>
<path d="M20.0179 20.4186C21.4547 20.7421 22.9151 20.8197 24.321 21.3176C24.4801 21.374 25.338 21.4749 25.4281 21.6136C25.4478 21.6438 24.3493 23.7451 24.5199 24.2548" fill="none" fill-rule="evenodd" opacity="1" stroke="#1d3fba" stroke-linecap="round" stroke-linejoin="round" stroke-width="1.5"/>
<path d="M12.555 26.1768C13.0794 24.0853 15.4672 23.5662 17.3258 24.2599C17.6409 24.3775 18.0866 24.3994 18.3483 24.607" fill="none" fill-rule="evenodd" opacity="1" stroke="#1d3fba" stroke-linecap="round" stroke-linejoin="round" stroke-width="1.5"/>
<path d="M18.9595 24.6278C18.5721 25.3362 19.0221 26.2432 19.3307 26.8847C20.1545 28.5972 21.9113 31.6538 24.3059 31.6272" fill="none" fill-rule="evenodd" opacity="1" stroke="#1d3fba" stroke-linecap="round" stroke-linejoin="round" stroke-width="1.5"/>
<path d="M7.32675 31.7593C6.77502 32.8628 7.74494 34.6926 7.84124 35.8482C7.92908 36.9022 7.62461 37.8777 7.62461 38.9081" fill="none" fill-rule="evenodd" opacity="1" stroke="#dddddd" stroke-linecap="round" stroke-linejoin="round" stroke-width="1"/>
<path d="M7.54338 31.5697C7.64946 31.2515 7.96783 31.1484 8.24742 31.0552C10.1504 30.4209 9.47155 32.9697 10.6574 33.1674C11.8507 33.3663 15.8712 32.6676 16.6418 33.4382C17.6214 34.4178 17.6167 37.5737 17.6167 38.9081" fill="none" fill-rule="evenodd" opacity="1" stroke="#dddddd" stroke-linecap="round" stroke-linejoin="round" stroke-width="1"/>
<path d="M8.00372 39.233C10.0949 39.233 12.223 39.1922 14.3131 39.2872C15.3846 39.3359 16.4927 39.5049 17.5625 39.4226" fill="none" fill-rule="evenodd" opacity="1" stroke="#dddddd" stroke-linecap="round" stroke-linejoin="round" stroke-width="1"/>
<path d="M8.38282 34.7109C9.53794 35.0959 11.1564 34.5208 12.3363 34.4672C14.2402 34.3806 16.0691 34.8463 17.9687 34.8463" fill="none" fill-rule="evenodd" opacity="1" stroke="#dddddd" stroke-linecap="round" stroke-linejoin="round" stroke-width="1"/>
<path d="M9.11394 36.4168C9.48657 36.4168 9.88433 36.3697 10.2512 36.3085" fill="none" fill-rule="evenodd" opacity="1" stroke="#dddddd" stroke-linecap="round" stroke-linejoin="round" stroke-width="1"/>
<path d="M9.81799 37.0396C9.7124 37.2508 9.81256 37.6353 9.89922 37.852" fill="none" fill-rule="evenodd" opacity="1" stroke="#dddddd" stroke-linecap="round" stroke-linejoin="round" stroke-width="1"/>
<path d="M10.9553 37.5541C11.398 37.5541 12.0207 36.7237 11.4427 36.7959C10.7555 36.8818 10.6464 37.9874 11.4698 37.9874" fill="none" fill-rule="evenodd" opacity="1" stroke="#dddddd" stroke-linecap="round" stroke-linejoin="round" stroke-width="1"/>
<path d="M12.905 36.9042C11.8405 37.4365 14.6584 37.3679 13.4195 37.9874C13.2759 38.0592 13.1445 38.0964 12.9862 38.1228" fill="none" fill-rule="evenodd" opacity="1" stroke="#dddddd" stroke-linecap="round" stroke-linejoin="round" stroke-width="1"/>
<path d="M13.5007 36.119C13.8875 36.119 14.3127 36.2138 14.6922 36.119" fill="none" fill-rule="evenodd" opacity="1" stroke="#dddddd" stroke-linecap="round" stroke-linejoin="round" stroke-width="1"/>
<path d="M14.1777 35.794C14.1777 36.3413 14.039 37.5931 14.6651 37.9061" fill="none" fill-rule="evenodd" opacity="1" stroke="#dddddd" stroke-linecap="round" stroke-linejoin="round" stroke-width="1"/>
<path d="M15.8836 36.6876C15.5565 36.6876 15.4487 37.2282 15.7211 37.3917C16.0277 37.5756 17.056 37.5525 16.3169 38.0145C16.1826 38.0984 16.0092 38.1658 15.8565 38.204" fill="none" fill-rule="evenodd" opacity="1" stroke="#dddddd" stroke-linecap="round" stroke-linejoin="round" stroke-width="1"/>
<path d="M24.1072 38.194C23.603 37.9419 23.229 35.774 23.7745 35.5558C24.4635 35.2802 26.1148 37.1366 26.4365 37.0294C26.5449 36.9932 25.8145 36.0982 25.771 36.0311C25.482 35.5865 24.8877 34.1693 25.5808 33.7732C26.2564 33.3872 27.3926 35.1042 28.1715 35.1042" fill="none" fill-rule="evenodd" opacity="1" stroke="#fddf19" stroke-linecap="round" stroke-linejoin="round" stroke-width="1"/>
<path d="M27.9576 33.6068C27.88 33.6456 27.8975 33.6181 27.9814 33.7019C28.3071 34.0276 28.8677 34.4223 29.3599 34.2486C29.9026 34.057 29.7178 33.0882 29.5976 32.7274" fill="none" fill-rule="evenodd" opacity="1" stroke="#fddf19" stroke-linecap="round" stroke-linejoin="round" stroke-width="1"/>
<path d="M28.837 30.9211C29.2669 30.7778 31.2851 33.0855 31.2851 32.5135" fill="none" fill-rule="evenodd" opacity="1" stroke="#fddf19" stroke-linecap="round" stroke-linejoin="round" stroke-width="1"/>
<path d="M30.2155 29.5188C30.2155 29.9055 31.2075 31.7848 31.5465 31.6341C31.95 31.4548 32.3073 30.7715 32.5923 30.4457" fill="none" fill-rule="evenodd" opacity="1" stroke="#fddf19" stroke-linecap="round" stroke-linejoin="round" stroke-width="1"/>
<path d="M32.6636 28.3304C32.1066 28.6089 32.7463 29.848 33.3529 29.6614C34.1074 29.4292 33.3191 27.9363 33.4479 27.8075C33.4671 27.7883 34.2454 27.9977 34.3511 27.9977" fill="none" fill-rule="evenodd" opacity="1" stroke="#fddf19" stroke-linecap="round" stroke-linejoin="round" stroke-width="1"/>
<path d="M32.4022 26.2151C33.1688 25.9595 33.8866 25.0698 34.3273 24.4087" fill="none" fill-rule="evenodd" opacity="1" stroke="#fddf19" stroke-linecap="round" stroke-linejoin="round" stroke-width="1"/>
<path d="M32.8062 24.9792C33.2022 25.3752 35.4966 27.0945 36.0861 27.0945" fill="none" fill-rule="evenodd" opacity="1" stroke="#fddf19" stroke-linecap="round" stroke-linejoin="round" stroke-width="1"/>
<path d="M36.1099 23.7432C36.0251 23.9978 35.7075 24.2627 35.8247 24.5751C35.946 24.8986 36.6089 25.0507 36.8229 24.7652C37.1651 24.309 36.4134 23.7207 36.5853 23.4343C36.6279 23.3632 37.4267 23.5151 37.5597 23.4818" fill="none" fill-rule="evenodd" opacity="1" stroke="#fddf19" stroke-linecap="round" stroke-linejoin="round" stroke-width="1"/>
<path d="M29.9065 35.9836C30.6252 35.744 31.2794 36.8873 31.5465 37.3621C31.5698 37.4036 31.8342 37.976 31.903 37.9563C32.4106 37.8113 32.9249 37.0532 33.2816 36.6966" fill="none" fill-rule="evenodd" opacity="1" stroke="#fddf19" stroke-linecap="round" stroke-linejoin="round" stroke-width="1"/>
<path d="M33.4242 34.6288C32.7901 34.6288 33.2648 35.9374 34.161 35.6984C34.6188 35.5763 34.6114 34.9621 34.5175 34.6051C34.4703 34.4259 34.3937 34.2874 34.3036 34.1297C34.2869 34.1005 34.2323 34.0248 34.2323 34.0584C34.2323 34.4034 34.8822 34.4149 35.0879 34.4149" fill="none" fill-rule="evenodd" opacity="1" stroke="#fddf19" stroke-linecap="round" stroke-linejoin="round" stroke-width="1"/>
<path d="M33.9233 31.6341C33.9233 31.7905 35.8513 33.6306 36.0861 33.6306" fill="none" fill-rule="evenodd" opacity="1" stroke="#fddf19" stroke-linecap="round" stroke-linejoin="round" stroke-width="1"/>
<path d="M35.1117 32.1808C35.1884 31.9505 35.6467 31.8157 35.8485 31.7292C37.5718 30.9906 37.1977 33.4834 36.609 33.6306" fill="none" fill-rule="evenodd" opacity="1" stroke="#fddf19" stroke-linecap="round" stroke-linejoin="round" stroke-width="1"/>
</g>
</svg>
