<svg xmlns="http://www.w3.org/2000/svg" xmlns:xlink="http://www.w3.org/1999/xlink" id="svg" version="1.1" width="40" height="40" viewBox="0, 0, 400,400"><g id="svgg"><path id="path0" d="M188.667 63.012 C 107.637 69.852,50.161 145.059,64.869 225.000 C 77.593 294.151,140.930 342.682,211.000 336.969 C 271.991 331.997,322.666 287.080,334.673 227.352 C 351.660 142.840,288.023 63.932,202.000 62.841 C 196.592 62.773,190.592 62.850,188.667 63.012 M135.500 110.843 C 156.956 116.594,161.951 145.365,143.667 157.883 C 126.362 169.731,102.852 157.593,102.574 136.667 C 102.343 119.266,118.793 106.364,135.500 110.843 M120.283 173.629 C 130.133 178.738,130.287 199.454,120.513 204.613 C 117.916 205.984,112.614 205.932,110.047 204.511 C 100.237 199.077,100.957 177.357,111.081 173.356 C 113.516 172.393,118.167 172.531,120.283 173.629 M232.221 187.500 C 234.673 195.383,236.894 202.546,237.155 203.417 L 237.631 205.000 234.815 205.000 C 232.968 205.000,232.000 204.872,232.000 204.629 C 232.000 204.424,231.530 202.774,230.955 200.962 L 229.911 197.667 224.658 197.667 L 219.406 197.667 219.181 198.583 C 219.058 199.088,218.574 200.737,218.106 202.250 L 217.255 205.000 214.627 205.000 C 213.182 205.000,212.000 204.859,212.000 204.688 C 212.000 204.516,214.175 197.379,216.833 188.828 C 219.492 180.276,221.667 173.211,221.667 173.127 C 221.667 173.044,223.038 173.018,224.715 173.071 L 227.763 173.167 232.221 187.500 M258.017 173.870 C 261.604 175.526,263.360 178.293,263.372 182.311 C 263.394 189.077,260.243 191.686,251.750 191.935 L 247.000 192.074 247.000 198.537 L 247.000 205.000 244.333 205.000 L 241.667 205.000 241.667 188.972 L 241.667 172.945 249.083 173.057 C 255.774 173.159,256.649 173.239,258.017 173.870 M287.173 175.417 L 287.192 177.667 284.596 177.667 L 282.000 177.667 282.000 188.986 L 282.000 200.305 284.578 200.403 L 287.156 200.500 287.174 202.750 L 287.192 205.000 279.429 205.000 L 271.667 205.000 271.667 202.667 L 271.667 200.333 274.167 200.333 L 276.667 200.333 276.667 189.000 L 276.667 177.667 274.167 177.667 L 271.667 177.667 271.667 175.327 L 271.667 172.988 279.411 173.077 L 287.154 173.167 287.173 175.417 M113.597 177.646 C 105.993 180.082,106.633 199.441,114.364 200.838 C 119.201 201.712,121.958 197.981,122.252 190.167 C 122.597 180.984,119.076 175.890,113.597 177.646 M247.000 182.494 L 247.000 187.404 250.917 187.273 C 256.339 187.092,257.896 186.162,258.226 182.912 C 258.586 179.365,256.563 177.925,250.937 177.725 L 247.000 177.584 247.000 182.494 M223.733 183.500 C 221.395 191.152,220.951 192.728,221.094 192.872 C 221.177 192.955,222.879 192.980,224.877 192.928 L 228.509 192.833 226.630 186.500 L 224.751 180.167 223.733 183.500 M147.955 182.472 C 157.996 187.706,155.075 205.460,144.167 205.492 C 141.504 205.500,140.734 205.275,138.583 203.860 L 137.667 203.257 137.667 208.628 L 137.667 214.000 135.000 214.000 L 132.333 214.000 132.333 198.167 L 132.333 182.333 135.000 182.333 C 137.641 182.333,137.667 182.342,137.667 183.189 L 137.667 184.045 138.644 183.349 C 141.190 181.536,145.399 181.140,147.955 182.472 M175.337 182.713 C 179.411 184.584,182.297 189.350,182.325 194.250 L 182.333 195.667 172.798 195.667 C 164.239 195.667,163.283 195.721,163.464 196.194 C 163.576 196.484,163.667 196.858,163.667 197.026 C 163.667 197.194,164.208 197.931,164.870 198.664 C 167.420 201.486,172.788 201.694,176.675 199.122 C 177.411 198.634,178.089 198.311,178.181 198.403 C 178.899 199.121,180.600 201.839,180.466 202.055 C 178.691 204.926,170.881 206.528,166.239 204.972 C 155.295 201.301,155.424 185.720,166.429 182.131 C 168.678 181.398,173.103 181.687,175.337 182.713 M204.291 182.766 C 205.176 183.352,205.909 184.260,206.551 185.566 L 207.500 187.500 207.608 196.250 L 207.716 205.000 205.025 205.000 L 202.333 205.000 202.333 196.983 C 202.333 186.940,201.804 185.734,197.728 186.498 C 193.444 187.301,192.354 189.846,192.341 199.083 L 192.333 205.000 189.667 205.000 L 187.000 205.000 187.000 193.667 L 187.000 182.333 189.667 182.333 L 192.333 182.333 192.354 184.750 C 192.370 186.572,192.451 186.978,192.683 186.401 C 194.379 182.175,200.501 180.258,204.291 182.766 M140.390 186.811 C 137.690 187.686,137.667 187.745,137.667 193.694 C 137.667 199.761,137.750 199.931,141.105 200.682 C 145.646 201.698,148.818 198.813,148.818 193.667 C 148.818 188.368,145.048 185.302,140.390 186.811 M167.661 186.825 C 166.071 187.335,164.227 188.992,163.848 190.250 L 163.622 191.000 170.136 191.000 L 176.650 191.000 176.302 190.084 C 175.228 187.259,171.128 185.713,167.661 186.825 M139.667 231.667 L 139.667 234.000 132.000 234.000 L 124.333 234.000 124.333 238.333 L 124.333 242.667 130.333 242.667 L 136.333 242.667 136.333 245.000 L 136.333 247.333 130.333 247.333 L 124.333 247.333 124.333 252.000 L 124.333 256.667 132.000 256.667 L 139.667 256.667 139.667 259.000 L 139.667 261.333 129.333 261.333 L 119.000 261.333 119.000 245.333 L 119.000 229.333 129.333 229.333 L 139.667 229.333 139.667 231.667 M167.000 245.333 L 167.000 261.333 164.333 261.333 C 161.723 261.333,161.667 261.316,161.667 260.514 L 161.667 259.694 159.968 260.750 C 151.192 266.206,141.580 254.115,146.596 243.927 C 149.473 238.083,156.812 236.044,161.077 239.903 C 161.637 240.410,161.667 240.275,161.667 237.218 L 161.667 234.000 159.500 234.000 L 157.333 234.000 157.333 231.667 L 157.333 229.333 162.167 229.333 L 167.000 229.333 167.000 245.333 M187.263 232.417 L 187.167 235.500 184.083 235.596 L 181.000 235.692 181.000 232.513 L 181.000 229.333 184.179 229.333 L 187.358 229.333 187.263 232.417 M210.333 233.991 L 210.333 238.648 215.080 238.741 L 219.827 238.833 219.830 241.083 L 219.833 243.333 215.083 243.333 L 210.333 243.333 210.333 248.812 C 210.333 254.919,210.506 255.700,212.075 256.685 C 214.283 258.071,217.635 256.755,218.176 254.290 C 218.456 253.015,218.557 252.984,220.792 253.504 C 223.161 254.055,223.095 253.990,222.813 255.491 C 221.606 261.925,212.192 264.243,207.434 259.279 C 205.467 257.228,205.208 256.148,205.065 249.417 L 204.936 243.333 202.468 243.333 L 200.000 243.333 200.000 241.000 L 200.000 238.667 202.500 238.667 L 205.000 238.667 205.000 234.000 L 205.000 229.333 207.667 229.333 L 210.333 229.333 210.333 233.991 M244.015 239.050 C 252.974 243.175,252.974 256.764,244.015 260.966 C 238.531 263.538,230.839 261.204,228.248 256.182 C 222.742 245.506,233.247 234.091,244.015 239.050 M277.378 238.386 C 278.907 238.844,278.909 238.865,277.799 241.695 L 276.931 243.907 275.216 243.402 C 269.035 241.583,265.009 245.268,265.003 252.750 L 265.000 256.667 267.500 256.667 L 270.000 256.667 270.000 259.000 L 270.000 261.333 262.333 261.333 L 254.667 261.333 254.667 259.000 L 254.667 256.667 257.167 256.667 L 259.667 256.667 259.667 249.833 L 259.667 243.000 257.167 243.000 L 254.667 243.000 254.667 240.833 L 254.667 238.667 259.833 238.667 L 265.000 238.667 265.000 241.038 L 265.000 243.409 266.083 241.801 C 268.239 238.601,273.144 237.118,277.378 238.386 M186.667 247.667 L 186.667 256.667 189.262 256.667 L 191.858 256.667 191.840 258.917 L 191.821 261.167 184.077 261.256 L 176.333 261.346 176.333 259.006 L 176.333 256.667 178.833 256.667 L 181.333 256.667 181.333 250.000 L 181.333 243.333 178.833 243.333 L 176.333 243.333 176.333 241.000 L 176.333 238.667 181.500 238.667 L 186.667 238.667 186.667 247.667 M154.930 242.978 C 152.017 243.916,150.535 246.283,150.535 250.000 C 150.535 256.022,155.364 259.086,160.396 256.258 L 161.667 255.544 161.667 250.000 L 161.667 244.456 160.346 243.714 C 158.871 242.885,156.303 242.536,154.930 242.978 M236.540 243.062 C 231.667 244.411,230.352 252.692,234.507 255.861 C 238.456 258.874,244.318 256.735,245.317 251.917 C 246.539 246.019,242.086 241.526,236.540 243.062 " stroke="none" fill="#04434b" fill-rule="evenodd"/><path id="path2" d="M193.167 50.367 C 189.867 50.516,185.442 50.875,183.333 51.166 C 181.225 51.456,179.275 51.701,179.000 51.709 C 177.545 51.751,166.584 53.872,162.833 54.838 C 123.295 65.016,89.602 90.875,69.374 126.567 C 24.836 205.152,60.887 306.400,145.167 339.427 C 162.369 346.168,189.715 351.144,202.333 349.828 C 202.975 349.762,205.675 349.623,208.333 349.521 C 267.868 347.232,322.758 305.407,342.004 247.667 C 368.999 166.679,323.201 79.432,241.413 56.036 C 235.147 54.244,223.313 51.730,220.833 51.664 C 220.058 51.643,218.372 51.443,215.333 51.011 C 214.142 50.842,211.067 50.617,208.500 50.511 C 205.933 50.405,202.783 50.268,201.500 50.207 C 200.217 50.147,196.467 50.218,193.167 50.367 M214.667 63.168 C 305.514 73.449,361.332 166.145,327.769 250.991 C 294.399 335.345,188.712 364.513,116.358 309.336 C 55.587 262.994,44.466 174.056,92.015 114.667 C 121.859 77.391,168.246 57.914,214.667 63.168 M113.044 173.015 C 100.947 175.486,99.658 200.879,111.427 204.878 C 120.527 207.970,127.322 201.254,127.322 189.167 C 127.322 177.867,121.504 171.286,113.044 173.015 M221.831 173.417 C 221.749 173.646,219.574 180.658,216.996 189.000 C 214.419 197.342,212.242 204.360,212.160 204.597 C 212.044 204.930,212.591 205.006,214.564 204.931 L 217.119 204.833 218.183 201.333 L 219.247 197.833 224.790 197.742 C 228.767 197.676,230.333 197.758,230.333 198.030 C 230.333 198.239,230.803 199.892,231.378 201.705 L 232.423 205.000 234.917 205.000 C 237.130 205.000,237.393 204.934,237.254 204.417 C 237.167 204.096,234.941 196.896,232.306 188.417 L 227.516 173.000 224.747 173.000 C 222.834 173.000,221.933 173.129,221.831 173.417 M242.000 188.958 L 242.000 205.000 244.333 205.000 L 246.667 205.000 246.667 198.547 L 246.667 192.095 251.083 191.909 C 259.526 191.553,262.678 189.382,263.223 183.547 C 263.921 176.071,260.179 173.365,248.750 173.083 L 242.000 172.916 242.000 188.958 M272.000 175.333 L 272.000 177.667 274.500 177.667 L 277.000 177.667 277.000 189.000 L 277.000 200.333 274.500 200.333 L 272.000 200.333 272.000 202.667 L 272.000 205.000 279.500 205.000 L 287.000 205.000 287.000 202.667 L 287.000 200.333 284.333 200.333 L 281.667 200.333 281.667 189.000 L 281.667 177.667 284.333 177.667 L 287.000 177.667 287.000 175.333 L 287.000 173.000 279.500 173.000 L 272.000 173.000 272.000 175.333 M119.094 178.422 C 124.306 182.397,123.634 198.237,118.157 200.526 C 111.668 203.237,106.943 196.210,108.341 185.926 C 109.343 178.551,114.523 174.936,119.094 178.422 M256.006 178.337 C 257.601 179.150,258.333 180.460,258.333 182.500 C 258.333 186.199,256.538 187.333,250.680 187.333 L 246.667 187.333 246.667 182.500 L 246.667 177.667 250.680 177.667 C 254.042 177.667,254.906 177.775,256.006 178.337 M226.806 186.394 C 227.829 189.819,228.667 192.706,228.667 192.810 C 228.667 192.915,226.851 193.000,224.631 193.000 C 221.401 193.000,220.629 192.911,220.766 192.555 C 220.860 192.310,221.718 189.497,222.672 186.305 C 224.388 180.561,224.633 179.855,224.840 180.062 C 224.898 180.120,225.783 182.970,226.806 186.394 M141.607 182.122 C 140.749 182.358,139.521 182.953,138.879 183.442 C 137.414 184.560,137.333 184.555,137.333 183.333 L 137.333 182.333 135.000 182.333 L 132.667 182.333 132.667 198.167 L 132.667 214.000 135.000 214.000 L 137.333 214.000 137.333 208.500 C 137.333 205.475,137.398 203.000,137.478 203.000 C 137.557 203.000,138.366 203.462,139.274 204.027 C 145.404 207.837,152.367 203.978,153.733 196.014 C 155.191 187.515,148.762 180.150,141.607 182.122 M167.957 181.996 C 156.215 184.053,154.792 200.444,165.984 204.707 C 169.639 206.099,175.420 205.452,178.547 203.301 C 180.518 201.945,180.533 201.862,179.148 199.975 L 177.916 198.296 177.171 198.996 C 173.964 202.009,166.755 201.623,164.354 198.309 C 162.368 195.567,162.047 195.667,172.865 195.667 L 182.396 195.667 182.171 193.917 C 181.077 185.386,175.466 180.681,167.957 181.996 M198.239 182.018 C 195.572 182.672,193.793 184.181,192.955 186.500 C 192.290 188.338,192.000 187.883,192.000 185.000 L 192.000 182.333 189.667 182.333 L 187.333 182.333 187.333 193.667 L 187.333 205.000 189.631 205.000 L 191.929 205.000 192.089 198.583 C 192.176 195.054,192.425 191.600,192.642 190.908 C 193.892 186.915,198.743 184.923,201.411 187.305 L 202.500 188.278 202.604 196.639 L 202.709 205.000 205.021 205.000 L 207.333 205.000 207.333 196.727 C 207.333 187.907,207.080 186.039,205.636 184.203 C 204.202 182.381,200.827 181.383,198.239 182.018 M145.680 187.007 C 148.895 188.647,150.139 194.909,147.916 198.268 C 145.868 201.364,140.724 201.965,137.929 199.436 C 137.032 198.624,137.030 188.711,137.927 187.900 C 139.722 186.275,143.412 185.850,145.680 187.007 M173.698 187.108 C 175.130 187.864,176.667 189.645,176.667 190.549 C 176.667 190.913,175.381 191.000,170.008 191.000 L 163.350 191.000 163.697 190.083 C 164.957 186.757,170.120 185.221,173.698 187.108 M119.333 245.333 L 119.333 261.333 129.333 261.333 L 139.333 261.333 139.333 259.000 L 139.333 256.667 131.667 256.667 L 124.000 256.667 124.000 252.000 L 124.000 247.333 130.000 247.333 L 136.000 247.333 136.000 245.000 L 136.000 242.667 130.000 242.667 L 124.000 242.667 124.000 238.333 L 124.000 234.000 131.667 234.000 L 139.333 234.000 139.333 231.667 L 139.333 229.333 129.333 229.333 L 119.333 229.333 119.333 245.333 M157.667 231.667 L 157.667 234.000 159.833 234.000 L 162.000 234.000 162.000 237.374 L 162.000 240.748 161.250 240.196 C 154.127 234.957,145.557 240.311,145.557 250.000 C 145.557 259.253,153.523 264.852,160.239 260.319 C 162.032 259.109,162.000 259.109,162.000 260.333 L 162.000 261.333 164.333 261.333 L 166.667 261.333 166.667 245.333 L 166.667 229.333 162.167 229.333 L 157.667 229.333 157.667 231.667 M181.000 232.333 L 181.000 235.333 184.000 235.333 L 187.000 235.333 187.000 232.333 L 187.000 229.333 184.000 229.333 L 181.000 229.333 181.000 232.333 M205.333 234.000 L 205.333 238.667 202.667 238.667 L 200.000 238.667 200.000 241.000 L 200.000 243.333 202.667 243.333 L 205.333 243.333 205.333 249.125 C 205.333 253.352,205.465 255.289,205.820 256.297 C 208.273 263.248,218.839 263.817,221.965 257.166 C 223.047 254.866,222.923 254.121,221.417 253.848 C 220.729 253.723,219.845 253.544,219.452 253.450 C 218.867 253.310,218.665 253.494,218.346 254.462 C 217.730 256.329,216.285 257.333,214.215 257.333 C 210.624 257.333,210.000 256.052,210.000 248.677 L 210.000 243.333 214.833 243.333 L 219.667 243.333 219.667 241.000 L 219.667 238.667 214.833 238.667 L 210.000 238.667 210.000 234.000 L 210.000 229.333 207.667 229.333 L 205.333 229.333 205.333 234.000 M236.420 238.373 C 223.618 240.479,223.868 259.595,236.725 261.649 C 244.490 262.890,250.389 257.868,250.409 250.000 C 250.429 242.077,244.393 237.061,236.420 238.373 M271.667 238.450 C 268.540 239.164,265.994 241.132,265.453 243.250 C 265.050 244.827,264.667 243.892,264.667 241.333 L 264.667 238.667 259.667 238.667 L 254.667 238.667 254.667 240.833 L 254.667 243.000 257.333 243.000 L 260.000 243.000 260.000 249.833 L 260.000 256.667 257.333 256.667 L 254.667 256.667 254.667 259.000 L 254.667 261.333 262.293 261.333 L 269.920 261.333 269.905 259.000 L 269.890 256.667 267.238 256.667 L 264.586 256.667 264.723 252.548 C 264.956 245.544,266.962 243.167,272.639 243.167 C 274.213 243.167,275.803 243.278,276.173 243.415 C 276.766 243.633,276.949 243.388,277.715 241.344 L 278.584 239.024 277.542 238.697 C 275.682 238.112,273.539 238.022,271.667 238.450 M176.667 241.000 L 176.667 243.333 179.167 243.333 L 181.667 243.333 181.667 250.000 L 181.667 256.667 179.167 256.667 L 176.667 256.667 176.667 259.000 L 176.667 261.333 184.167 261.333 L 191.667 261.333 191.667 259.000 L 191.667 256.667 189.000 256.667 L 186.333 256.667 186.333 247.667 L 186.333 238.667 181.500 238.667 L 176.667 238.667 176.667 241.000 M159.582 243.179 C 162.003 244.191,162.000 244.183,162.000 250.000 C 162.000 255.817,162.003 255.809,159.582 256.821 C 154.698 258.861,150.333 255.614,150.333 249.940 C 150.333 244.431,154.787 241.176,159.582 243.179 M242.153 243.425 C 248.412 246.970,245.960 257.308,238.855 257.328 C 232.800 257.345,229.582 250.536,233.159 245.273 C 234.877 242.745,239.335 241.829,242.153 243.425 " stroke="none" fill="#a4f4d4" fill-rule="evenodd"/><path id="path3" d="M193.917 50.246 C 194.879 50.313,196.454 50.313,197.417 50.246 C 198.379 50.178,197.592 50.123,195.667 50.123 C 193.742 50.123,192.954 50.178,193.917 50.246 M202.595 50.246 C 203.563 50.314,205.063 50.313,205.928 50.245 C 206.793 50.176,206.000 50.121,204.167 50.122 C 202.333 50.123,201.626 50.179,202.595 50.246 M210.083 50.563 C 210.404 50.647,210.929 50.647,211.250 50.563 C 211.571 50.479,211.308 50.411,210.667 50.411 C 210.025 50.411,209.762 50.479,210.083 50.563 M197.599 62.582 C 199.120 62.643,201.520 62.643,202.932 62.581 C 204.345 62.518,203.100 62.468,200.167 62.468 C 197.233 62.469,196.078 62.520,197.599 62.582 M189.417 62.905 C 189.921 62.982,190.746 62.982,191.250 62.905 C 191.754 62.829,191.342 62.767,190.333 62.767 C 189.325 62.767,188.912 62.829,189.417 62.905 M209.088 62.906 C 209.595 62.982,210.345 62.980,210.755 62.901 C 211.165 62.822,210.750 62.760,209.833 62.762 C 208.917 62.765,208.581 62.829,209.088 62.906 M185.250 63.235 C 185.662 63.315,186.338 63.315,186.750 63.235 C 187.162 63.156,186.825 63.091,186.000 63.091 C 185.175 63.091,184.838 63.156,185.250 63.235 M213.083 63.230 C 213.404 63.314,213.929 63.314,214.250 63.230 C 214.571 63.146,214.308 63.077,213.667 63.077 C 213.025 63.077,212.762 63.146,213.083 63.230 M216.083 63.563 C 216.404 63.647,216.929 63.647,217.250 63.563 C 217.571 63.479,217.308 63.411,216.667 63.411 C 216.025 63.411,215.762 63.479,216.083 63.563 M121.167 87.196 L 120.167 88.055 121.250 87.338 C 121.846 86.944,122.333 86.556,122.333 86.477 C 122.333 86.228,122.192 86.315,121.167 87.196 M93.994 93.917 L 90.500 97.500 94.083 94.006 C 97.412 90.761,97.818 90.333,97.577 90.333 C 97.528 90.333,95.916 91.946,93.994 93.917 M305.661 93.750 C 308.906 97.078,309.333 97.485,309.333 97.244 C 309.333 97.195,307.721 95.582,305.750 93.661 L 302.167 90.167 305.661 93.750 M109.812 96.083 L 108.833 97.167 109.917 96.188 C 110.513 95.649,111.000 95.162,111.000 95.104 C 111.000 94.847,110.725 95.074,109.812 96.083 M106.484 99.083 L 105.167 100.500 106.583 99.182 C 107.901 97.957,108.153 97.667,107.901 97.667 C 107.847 97.667,107.209 98.304,106.484 99.083 M294.000 99.833 C 295.181 101.025,296.222 102.000,296.314 102.000 C 296.406 102.000,295.514 101.025,294.333 99.833 C 293.152 98.642,292.111 97.667,292.019 97.667 C 291.928 97.667,292.819 98.642,294.000 99.833 M310.667 99.104 C 310.667 99.162,311.154 99.649,311.750 100.188 L 312.833 101.167 311.854 100.083 C 310.942 99.074,310.667 98.847,310.667 99.104 M300.500 106.333 C 301.403 107.250,302.217 108.000,302.308 108.000 C 302.400 108.000,301.736 107.250,300.833 106.333 C 299.930 105.417,299.117 104.667,299.025 104.667 C 298.933 104.667,299.597 105.417,300.500 106.333 M98.649 106.917 L 97.500 108.167 98.750 107.018 C 99.438 106.386,100.000 105.824,100.000 105.768 C 100.000 105.513,99.718 105.753,98.649 106.917 M302.667 108.771 C 302.667 108.828,303.154 109.316,303.750 109.854 L 304.833 110.833 303.854 109.750 C 302.942 108.740,302.667 108.513,302.667 108.771 M95.812 110.083 L 94.833 111.167 95.917 110.188 C 96.513 109.649,97.000 109.162,97.000 109.104 C 97.000 108.847,96.725 109.074,95.812 110.083 M124.254 110.322 C 103.310 114.150,95.200 140.060,110.295 154.916 C 126.886 171.245,154.664 159.752,154.805 136.500 C 154.905 119.998,140.209 107.405,124.254 110.322 M323.695 140.167 C 323.695 140.350,323.982 141.025,324.333 141.667 C 324.685 142.308,324.972 142.683,324.972 142.500 C 324.972 142.317,324.685 141.642,324.333 141.000 C 323.982 140.358,323.695 139.983,323.695 140.167 M241.821 189.000 C 241.821 197.892,241.864 201.529,241.916 197.083 C 241.969 192.637,241.969 185.362,241.916 180.917 C 241.864 176.471,241.821 180.108,241.821 189.000 M253.750 173.230 C 254.071 173.314,254.596 173.314,254.917 173.230 C 255.237 173.146,254.975 173.077,254.333 173.077 C 253.692 173.077,253.429 173.146,253.750 173.230 M271.779 175.333 C 271.779 176.708,271.838 177.271,271.909 176.583 C 271.981 175.896,271.981 174.771,271.909 174.083 C 271.838 173.396,271.779 173.958,271.779 175.333 M123.318 176.167 C 124.122 177.083,124.850 177.908,124.935 178.000 C 125.021 178.092,124.932 177.867,124.739 177.500 C 124.546 177.133,123.818 176.308,123.122 175.667 C 121.919 174.558,121.929 174.583,123.318 176.167 M260.000 175.104 C 260.000 175.162,260.487 175.649,261.083 176.188 L 262.167 177.167 261.188 176.083 C 260.275 175.074,260.000 174.847,260.000 175.104 M246.800 182.500 C 246.800 185.250,246.852 186.331,246.915 184.901 C 246.977 183.472,246.977 181.222,246.914 179.901 C 246.851 178.581,246.800 179.750,246.800 182.500 M276.817 189.000 C 276.817 195.325,276.861 197.912,276.916 194.750 C 276.971 191.588,276.971 186.412,276.916 183.250 C 276.861 180.088,276.817 182.675,276.817 189.000 M281.817 189.000 C 281.817 195.325,281.861 197.912,281.916 194.750 C 281.971 191.588,281.971 186.412,281.916 183.250 C 281.861 180.088,281.817 182.675,281.817 189.000 M105.151 179.031 C 104.857 179.598,104.677 180.121,104.749 180.193 C 104.821 180.266,105.130 179.802,105.435 179.162 C 106.120 177.725,105.883 177.615,105.151 179.031 M132.487 198.167 C 132.488 206.967,132.531 210.519,132.583 206.060 C 132.636 201.602,132.636 194.402,132.583 190.060 C 132.530 185.719,132.487 189.367,132.487 198.167 M137.383 183.250 C 137.328 184.454,137.684 184.633,138.376 183.750 C 138.786 183.227,138.776 183.212,138.274 183.604 C 137.783 183.988,137.698 183.927,137.574 183.104 C 137.439 182.206,137.431 182.212,137.383 183.250 M187.150 193.667 C 187.150 199.992,187.195 202.579,187.249 199.417 C 187.304 196.254,187.304 191.079,187.249 187.917 C 187.195 184.754,187.150 187.342,187.150 193.667 M192.039 184.917 C 192.017 186.429,192.120 187.667,192.266 187.667 C 192.412 187.667,192.479 186.654,192.414 185.417 C 192.238 182.040,192.082 181.832,192.039 184.917 M161.315 185.250 L 160.167 186.500 161.417 185.351 C 162.580 184.282,162.820 184.000,162.565 184.000 C 162.510 184.000,161.947 184.563,161.315 185.250 M151.332 185.583 C 151.768 186.179,152.177 186.667,152.241 186.667 C 152.494 186.667,151.668 185.416,151.121 184.973 C 150.761 184.680,150.842 184.913,151.332 185.583 M63.077 186.000 C 63.077 186.642,63.146 186.904,63.230 186.583 C 63.314 186.262,63.314 185.737,63.230 185.417 C 63.146 185.096,63.077 185.358,63.077 186.000 M336.744 186.333 C 336.744 186.975,336.813 187.237,336.896 186.917 C 336.980 186.596,336.980 186.071,336.896 185.750 C 336.813 185.429,336.744 185.692,336.744 186.333 M127.457 189.000 C 127.457 190.925,127.512 191.713,127.579 190.750 C 127.646 189.787,127.646 188.213,127.579 187.250 C 127.512 186.287,127.457 187.075,127.457 189.000 M122.455 189.167 C 122.456 191.000,122.512 191.707,122.579 190.739 C 122.647 189.770,122.646 188.270,122.578 187.405 C 122.509 186.541,122.454 187.333,122.455 189.167 M262.232 187.171 C 261.927 187.810,261.746 188.333,261.830 188.333 C 262.058 188.333,263.070 186.292,262.918 186.140 C 262.845 186.068,262.537 186.531,262.232 187.171 M159.484 187.698 C 159.191 188.265,159.010 188.788,159.082 188.860 C 159.155 188.932,159.463 188.469,159.768 187.829 C 160.454 186.392,160.216 186.282,159.484 187.698 M145.667 187.092 C 145.667 187.156,146.154 187.565,146.750 188.001 C 147.420 188.492,147.653 188.572,147.361 188.212 C 146.917 187.666,145.667 186.839,145.667 187.092 M103.100 189.000 C 103.100 190.008,103.162 190.421,103.239 189.917 C 103.315 189.412,103.315 188.588,103.239 188.083 C 103.162 187.579,103.100 187.992,103.100 189.000 M108.095 188.833 C 108.098 189.750,108.163 190.085,108.239 189.579 C 108.316 189.072,108.314 188.322,108.235 187.912 C 108.156 187.502,108.093 187.917,108.095 188.833 M137.885 187.943 C 136.913 189.017,137.078 198.681,138.083 199.532 C 138.833 200.166,138.833 200.166,138.250 199.474 C 137.402 198.467,137.376 188.874,138.218 187.943 C 138.522 187.608,138.695 187.333,138.603 187.333 C 138.512 187.333,138.188 187.608,137.885 187.943 M164.812 188.417 L 163.833 189.500 164.917 188.521 C 165.926 187.608,166.153 187.333,165.896 187.333 C 165.838 187.333,165.351 187.821,164.812 188.417 M50.411 189.000 C 50.411 189.642,50.479 189.904,50.563 189.583 C 50.647 189.262,50.647 188.737,50.563 188.417 C 50.479 188.096,50.411 188.358,50.411 189.000 M349.411 189.000 C 349.411 189.642,349.479 189.904,349.563 189.583 C 349.647 189.262,349.647 188.737,349.563 188.417 C 349.479 188.096,349.411 188.358,349.411 189.000 M62.762 189.833 C 62.765 190.750,62.829 191.085,62.906 190.579 C 62.982 190.072,62.980 189.322,62.901 188.912 C 62.822 188.502,62.760 188.917,62.762 189.833 M207.478 196.833 C 207.478 201.417,207.525 203.338,207.582 201.103 C 207.640 198.868,207.640 195.118,207.583 192.769 C 207.525 190.421,207.478 192.250,207.478 196.833 M337.095 190.167 C 337.098 191.083,337.163 191.419,337.239 190.912 C 337.316 190.405,337.314 189.655,337.235 189.245 C 337.156 188.835,337.093 189.250,337.095 190.167 M202.477 197.167 C 202.477 201.567,202.525 203.321,202.582 201.064 C 202.640 198.808,202.640 195.208,202.582 193.064 C 202.524 190.921,202.477 192.767,202.477 197.167 M246.807 198.500 C 246.806 202.167,246.855 203.712,246.915 201.934 C 246.975 200.157,246.975 197.157,246.915 195.268 C 246.856 193.379,246.807 194.833,246.807 198.500 M158.084 193.500 C 158.088 194.233,158.156 194.494,158.236 194.079 C 158.315 193.665,158.312 193.065,158.229 192.746 C 158.146 192.427,158.080 192.767,158.084 193.500 M50.120 195.667 C 50.120 197.408,50.176 198.121,50.245 197.250 C 50.314 196.379,50.314 194.954,50.245 194.083 C 50.176 193.213,50.120 193.925,50.120 195.667 M349.788 195.833 C 349.789 197.667,349.845 198.374,349.913 197.405 C 349.980 196.437,349.980 194.937,349.911 194.072 C 349.843 193.207,349.788 194.000,349.788 195.833 M62.472 199.833 C 62.473 203.317,62.522 204.696,62.582 202.899 C 62.642 201.102,62.642 198.252,62.581 196.566 C 62.521 194.880,62.472 196.350,62.472 199.833 M192.137 199.333 C 192.137 202.542,192.187 203.854,192.248 202.250 C 192.309 200.646,192.309 198.021,192.248 196.417 C 192.187 194.813,192.137 196.125,192.137 199.333 M337.470 200.167 C 337.469 203.283,337.519 204.603,337.581 203.100 C 337.643 201.596,337.643 199.046,337.582 197.433 C 337.521 195.820,337.470 197.050,337.470 200.167 M119.817 199.027 C 119.694 199.225,119.123 199.675,118.547 200.026 C 117.971 200.377,117.685 200.665,117.911 200.665 C 118.338 200.667,120.677 198.694,120.270 198.676 C 120.143 198.671,119.939 198.829,119.817 199.027 M271.779 202.667 C 271.779 204.042,271.838 204.604,271.909 203.917 C 271.981 203.229,271.981 202.104,271.909 201.417 C 271.838 200.729,271.779 201.292,271.779 202.667 M50.118 203.833 C 50.117 205.483,50.174 206.200,50.244 205.427 C 50.313 204.653,50.314 203.303,50.245 202.427 C 50.177 201.550,50.119 202.183,50.118 203.833 M349.787 204.000 C 349.787 205.742,349.843 206.454,349.912 205.583 C 349.980 204.713,349.980 203.287,349.912 202.417 C 349.843 201.546,349.787 202.258,349.787 204.000 M106.667 201.771 C 106.667 201.828,107.154 202.316,107.750 202.854 L 108.833 203.833 107.854 202.750 C 106.942 201.740,106.667 201.513,106.667 201.771 M121.833 203.542 C 121.234 204.052,121.111 204.254,121.527 204.048 C 122.138 203.744,123.284 202.647,122.957 202.679 C 122.889 202.685,122.383 203.074,121.833 203.542 M137.408 208.583 L 137.482 214.167 137.583 208.735 C 137.656 204.806,137.787 203.369,138.060 203.537 C 138.290 203.679,138.344 203.620,138.198 203.385 C 137.510 202.271,137.339 203.398,137.408 208.583 M171.921 205.569 C 172.335 205.649,172.935 205.646,173.254 205.562 C 173.573 205.479,173.233 205.414,172.500 205.417 C 171.767 205.421,171.506 205.489,171.921 205.569 M337.100 209.667 C 337.100 210.675,337.162 211.088,337.239 210.583 C 337.315 210.079,337.315 209.254,337.239 208.750 C 337.162 208.246,337.100 208.658,337.100 209.667 M62.762 209.833 C 62.765 210.750,62.829 211.085,62.906 210.579 C 62.982 210.072,62.980 209.322,62.901 208.912 C 62.822 208.502,62.760 208.917,62.762 209.833 M349.411 210.667 C 349.411 211.308,349.479 211.571,349.563 211.250 C 349.647 210.929,349.647 210.404,349.563 210.083 C 349.479 209.762,349.411 210.025,349.411 210.667 M63.084 213.833 C 63.088 214.567,63.156 214.827,63.236 214.413 C 63.315 213.998,63.312 213.398,63.229 213.079 C 63.146 212.761,63.080 213.100,63.084 213.833 M336.411 216.667 C 336.411 217.308,336.479 217.571,336.563 217.250 C 336.647 216.929,336.647 216.404,336.563 216.083 C 336.479 215.762,336.411 216.025,336.411 216.667 M119.154 245.333 C 119.154 254.225,119.197 257.862,119.250 253.417 C 119.302 248.971,119.302 241.696,119.250 237.250 C 119.197 232.804,119.154 236.442,119.154 245.333 M139.445 231.667 C 139.445 233.042,139.504 233.604,139.576 232.917 C 139.648 232.229,139.648 231.104,139.576 230.417 C 139.504 229.729,139.445 230.292,139.445 231.667 M157.445 231.667 C 157.445 233.042,157.504 233.604,157.576 232.917 C 157.648 232.229,157.648 231.104,157.576 230.417 C 157.504 229.729,157.445 230.292,157.445 231.667 M166.821 245.333 C 166.821 254.225,166.864 257.862,166.916 253.417 C 166.969 248.971,166.969 241.696,166.916 237.250 C 166.864 232.804,166.821 236.442,166.821 245.333 M187.068 232.237 L 187.000 235.308 183.917 235.418 L 180.833 235.528 183.927 235.597 C 187.558 235.679,187.405 235.845,187.249 231.972 L 187.136 229.167 187.068 232.237 M205.132 234.000 C 205.132 236.658,205.184 237.746,205.248 236.417 C 205.311 235.088,205.311 232.912,205.248 231.583 C 205.184 230.254,205.132 231.342,205.132 234.000 M210.132 234.000 C 210.132 236.658,210.184 237.746,210.248 236.417 C 210.311 235.088,210.311 232.912,210.248 231.583 C 210.184 230.254,210.132 231.342,210.132 234.000 M124.131 238.333 C 124.131 240.808,124.183 241.821,124.247 240.583 C 124.311 239.346,124.311 237.321,124.247 236.083 C 124.183 234.846,124.131 235.858,124.131 238.333 M161.790 237.333 C 161.790 239.258,161.845 240.046,161.912 239.083 C 161.980 238.121,161.980 236.546,161.912 235.583 C 161.845 234.621,161.790 235.408,161.790 237.333 M236.417 238.230 C 236.737 238.314,237.262 238.314,237.583 238.230 C 237.904 238.146,237.642 238.077,237.000 238.077 C 236.358 238.077,236.096 238.146,236.417 238.230 M239.750 238.230 C 240.071 238.314,240.596 238.314,240.917 238.230 C 241.237 238.146,240.975 238.077,240.333 238.077 C 239.692 238.077,239.429 238.146,239.750 238.230 M176.445 241.000 C 176.445 242.375,176.504 242.938,176.576 242.250 C 176.648 241.563,176.648 240.438,176.576 239.750 C 176.504 239.063,176.445 239.625,176.445 241.000 M186.480 247.667 C 186.480 252.708,186.526 254.771,186.583 252.250 C 186.639 249.729,186.639 245.604,186.583 243.083 C 186.526 240.563,186.480 242.625,186.480 247.667 M264.705 241.250 C 264.684 242.762,264.786 244.000,264.932 244.000 C 265.079 244.000,265.145 242.987,265.081 241.750 C 264.905 238.373,264.749 238.165,264.705 241.250 M148.649 240.917 L 147.500 242.167 148.750 241.018 C 149.913 239.949,150.153 239.667,149.899 239.667 C 149.843 239.667,149.281 240.229,148.649 240.917 M246.333 240.438 C 246.333 240.495,246.821 240.983,247.417 241.521 L 248.500 242.500 247.521 241.417 C 246.608 240.407,246.333 240.180,246.333 240.438 M136.112 245.000 C 136.112 246.375,136.171 246.938,136.243 246.250 C 136.315 245.563,136.315 244.438,136.243 243.750 C 136.171 243.063,136.112 243.625,136.112 245.000 M259.808 249.833 C 259.808 253.683,259.857 255.213,259.916 253.232 C 259.975 251.251,259.974 248.101,259.915 246.232 C 259.856 244.363,259.807 245.983,259.808 249.833 M181.474 250.000 C 181.474 253.758,181.523 255.296,181.582 253.417 C 181.641 251.537,181.641 248.463,181.582 246.583 C 181.523 244.704,181.474 246.242,181.474 250.000 M205.136 248.833 C 205.136 251.950,205.186 253.270,205.248 251.766 C 205.309 250.263,205.310 247.713,205.248 246.100 C 205.187 244.487,205.137 245.717,205.136 248.833 M210.136 248.833 C 210.136 251.950,210.186 253.270,210.248 251.766 C 210.309 250.263,210.310 247.713,210.248 246.100 C 210.187 244.487,210.137 245.717,210.136 248.833 M161.802 250.000 C 161.802 253.025,161.853 254.262,161.915 252.750 C 161.976 251.237,161.976 248.762,161.915 247.250 C 161.853 245.737,161.802 246.975,161.802 250.000 M124.132 252.000 C 124.132 254.658,124.184 255.746,124.248 254.417 C 124.311 253.088,124.311 250.912,124.248 249.583 C 124.184 248.254,124.132 249.342,124.132 252.000 M226.751 249.833 C 226.754 250.567,226.823 250.827,226.902 250.413 C 226.982 249.998,226.979 249.398,226.896 249.079 C 226.812 248.761,226.747 249.100,226.751 249.833 M231.757 250.000 C 231.757 250.825,231.822 251.162,231.902 250.750 C 231.981 250.338,231.981 249.662,231.902 249.250 C 231.822 248.838,231.757 249.175,231.757 250.000 M264.791 253.167 C 264.792 255.183,264.847 255.965,264.913 254.904 C 264.980 253.844,264.979 252.194,264.912 251.238 C 264.845 250.282,264.791 251.150,264.791 253.167 M250.411 251.667 C 250.411 252.308,250.479 252.571,250.563 252.250 C 250.647 251.929,250.647 251.404,250.563 251.083 C 250.479 250.762,250.411 251.025,250.411 251.667 M211.586 256.583 C 212.017 256.996,212.550 257.329,212.769 257.323 C 212.988 257.318,212.867 257.147,212.500 256.943 C 212.133 256.740,211.601 256.407,211.317 256.203 C 211.033 256.000,211.154 256.171,211.586 256.583 M139.445 259.000 C 139.445 260.375,139.504 260.938,139.576 260.250 C 139.648 259.563,139.648 258.438,139.576 257.750 C 139.504 257.063,139.445 257.625,139.445 259.000 M176.445 259.000 C 176.445 260.375,176.504 260.938,176.576 260.250 C 176.648 259.563,176.648 258.438,176.576 257.750 C 176.504 257.063,176.445 257.625,176.445 259.000 M148.500 259.000 C 149.216 259.733,149.877 260.333,149.969 260.333 C 150.060 260.333,149.549 259.733,148.833 259.000 C 148.117 258.267,147.456 257.667,147.365 257.667 C 147.273 257.667,147.784 258.267,148.500 259.000 M247.146 258.750 L 246.167 259.833 247.250 258.854 C 247.846 258.316,248.333 257.828,248.333 257.771 C 248.333 257.513,248.058 257.740,247.146 258.750 M160.957 259.917 C 160.547 260.440,160.558 260.455,161.059 260.063 C 161.550 259.678,161.636 259.739,161.759 260.563 C 161.894 261.461,161.902 261.455,161.950 260.417 C 162.006 259.213,161.650 259.034,160.957 259.917 M232.000 260.163 C 232.000 260.392,234.041 261.403,234.193 261.251 C 234.266 261.179,233.802 260.870,233.162 260.565 C 232.523 260.260,232.000 260.080,232.000 260.163 M236.417 261.896 C 236.737 261.980,237.262 261.980,237.583 261.896 C 237.904 261.813,237.642 261.744,237.000 261.744 C 236.358 261.744,236.096 261.813,236.417 261.896 M314.531 275.917 C 313.854 276.971,313.649 277.423,314.075 276.922 C 314.917 275.932,316.123 274.000,315.899 274.000 C 315.823 274.000,315.207 274.862,314.531 275.917 M98.167 292.667 C 98.883 293.400,99.544 294.000,99.635 294.000 C 99.727 294.000,99.216 293.400,98.500 292.667 C 97.784 291.933,97.123 291.333,97.031 291.333 C 96.940 291.333,97.451 291.933,98.167 292.667 M300.333 293.833 C 299.524 294.658,298.936 295.333,299.028 295.333 C 299.120 295.333,299.857 294.658,300.667 293.833 C 301.476 293.008,302.064 292.333,301.972 292.333 C 301.880 292.333,301.143 293.008,300.333 293.833 M293.989 300.250 L 292.167 302.167 294.083 300.345 C 295.864 298.652,296.153 298.333,295.905 298.333 C 295.853 298.333,294.991 299.196,293.989 300.250 M87.333 299.104 C 87.333 299.162,87.821 299.649,88.417 300.188 L 89.500 301.167 88.521 300.083 C 87.608 299.074,87.333 298.847,87.333 299.104 M311.479 300.083 L 310.500 301.167 311.583 300.188 C 312.179 299.649,312.667 299.162,312.667 299.104 C 312.667 298.847,312.392 299.074,311.479 300.083 M107.000 301.500 C 107.622 302.142,108.206 302.667,108.297 302.667 C 108.389 302.667,107.955 302.142,107.333 301.500 C 106.711 300.858,106.128 300.333,106.036 300.333 C 105.944 300.333,106.378 300.858,107.000 301.500 M93.661 305.750 C 95.582 307.721,97.195 309.333,97.244 309.333 C 97.485 309.333,97.078 308.906,93.750 305.661 L 90.167 302.167 93.661 305.750 M109.333 303.438 C 109.333 303.495,109.821 303.983,110.417 304.521 L 111.500 305.500 110.521 304.417 C 109.608 303.407,109.333 303.180,109.333 303.438 M305.659 306.250 L 302.833 309.167 305.750 306.341 C 308.459 303.716,308.819 303.333,308.576 303.333 C 308.526 303.333,307.214 304.646,305.659 306.250 M300.146 311.417 L 299.167 312.500 300.250 311.521 C 301.260 310.608,301.487 310.333,301.229 310.333 C 301.172 310.333,300.684 310.821,300.146 311.417 M135.333 321.499 C 135.333 321.720,142.040 325.071,142.188 324.923 C 142.253 324.858,140.737 324.025,138.820 323.071 C 136.902 322.118,135.333 321.410,135.333 321.499 M256.667 325.167 C 256.208 325.429,255.983 325.643,256.167 325.643 C 256.350 325.643,256.875 325.429,257.333 325.167 C 257.792 324.905,258.017 324.690,257.833 324.690 C 257.650 324.690,257.125 324.905,256.667 325.167 M185.254 336.902 C 185.669 336.982,186.269 336.979,186.587 336.896 C 186.906 336.812,186.567 336.747,185.833 336.751 C 185.100 336.754,184.839 336.823,185.254 336.902 M212.921 336.902 C 213.335 336.982,213.935 336.979,214.254 336.896 C 214.573 336.812,214.233 336.747,213.500 336.751 C 212.767 336.754,212.506 336.823,212.921 336.902 M189.250 337.235 C 189.662 337.315,190.338 337.315,190.750 337.235 C 191.162 337.156,190.825 337.091,190.000 337.091 C 189.175 337.091,188.838 337.156,189.250 337.235 M208.589 337.242 C 209.188 337.316,210.088 337.314,210.589 337.238 C 211.090 337.162,210.600 337.101,209.500 337.103 C 208.400 337.105,207.990 337.167,208.589 337.242 M196.083 337.582 C 197.688 337.643,200.313 337.643,201.917 337.582 C 203.521 337.520,202.208 337.470,199.000 337.470 C 195.792 337.470,194.479 337.520,196.083 337.582 M188.750 349.563 C 189.071 349.647,189.596 349.647,189.917 349.563 C 190.237 349.479,189.975 349.411,189.333 349.411 C 188.692 349.411,188.429 349.479,188.750 349.563 M194.261 349.913 C 195.230 349.980,196.730 349.980,197.595 349.911 C 198.459 349.843,197.667 349.788,195.833 349.788 C 194.000 349.789,193.293 349.845,194.261 349.913 M203.583 349.911 C 204.362 349.981,205.637 349.981,206.417 349.911 C 207.196 349.841,206.558 349.783,205.000 349.783 C 203.442 349.783,202.804 349.841,203.583 349.911 " stroke="none" fill="#74dccc" fill-rule="evenodd"/><path id="path4" d="M310.333 98.500 C 310.955 99.142,311.539 99.667,311.631 99.667 C 311.722 99.667,311.289 99.142,310.667 98.500 C 310.045 97.858,309.461 97.333,309.369 97.333 C 309.278 97.333,309.711 97.858,310.333 98.500 M88.333 300.438 C 88.333 300.495,88.821 300.983,89.417 301.521 L 90.500 302.500 89.521 301.417 C 88.608 300.407,88.333 300.180,88.333 300.438 M310.146 301.750 L 309.167 302.833 310.250 301.854 C 310.846 301.316,311.333 300.828,311.333 300.771 C 311.333 300.513,311.058 300.740,310.146 301.750 M301.484 310.417 L 300.167 311.833 301.583 310.516 C 302.901 309.290,303.153 309.000,302.901 309.000 C 302.847 309.000,302.209 309.637,301.484 310.417 M97.333 309.438 C 97.333 309.495,97.821 309.983,98.417 310.521 L 99.500 311.500 98.521 310.417 C 97.608 309.407,97.333 309.180,97.333 309.438 " stroke="none" fill="#b4d4cc" fill-rule="evenodd"/></g></svg>