<?xml version="1.0" encoding="UTF-8" standalone="no"?>
<!DOCTYPE svg PUBLIC "-//W3C//DTD SVG 1.1//EN" "http://www.w3.org/Graphics/SVG/1.1/DTD/svg11.dtd">
<svg width="100%" height="100%" viewBox="0 0 600 600" version="1.1" xmlns="http://www.w3.org/2000/svg" xmlns:xlink="http://www.w3.org/1999/xlink" xml:space="preserve" xmlns:serif="http://www.serif.com/" style="fill-rule:evenodd;clip-rule:evenodd;stroke-linecap:round;stroke-linejoin:round;stroke-miterlimit:1.5;">
    <g transform="matrix(0.828951,0,0,0.781566,51.6818,61.0959)">
        <rect x="28.669" y="79.215" width="514.791" height="439.835" style="fill:white;stroke:rgb(0,0,135);stroke-width:8.69px;"/>
    </g>
    <g transform="matrix(1.47144,0,0,1.02511,-29.8421,93.6566)">
        <path d="M240.37,130.695C240.37,125.476 237.417,121.238 233.781,121.238L99.645,121.238C96.009,121.238 93.057,125.476 93.057,130.695C93.057,135.915 96.009,140.153 99.645,140.153L233.781,140.153C237.417,140.153 240.37,135.915 240.37,130.695Z" style="fill:rgb(135,0,95);"/>
    </g>
    <g transform="matrix(1.24507,0,0,1.02511,-8.77649,132.269)">
        <path d="M240.37,130.695C240.37,125.476 236.881,121.238 232.583,121.238L100.843,121.238C96.546,121.238 93.057,125.476 93.057,130.695C93.057,135.915 96.546,140.153 100.843,140.153L232.583,140.153C236.881,140.153 240.37,135.915 240.37,130.695Z" style="fill:rgb(0,0,95);"/>
    </g>
    <g transform="matrix(1.07167,0,0,1.02511,7.35927,170.88)">
        <path d="M240.37,130.695C240.37,125.476 236.316,121.238 231.323,121.238L102.103,121.238C97.11,121.238 93.057,125.476 93.057,130.695C93.057,135.915 97.11,140.153 102.103,140.153L231.323,140.153C236.316,140.153 240.37,135.915 240.37,130.695Z" style="fill:rgb(175,0,175);"/>
    </g>
    <g transform="matrix(1.93114,0,0,1.02511,-72.6203,209.492)">
        <path d="M240.37,130.695C240.37,125.476 238.12,121.238 235.349,121.238L98.077,121.238C95.306,121.238 93.057,125.476 93.057,130.695C93.057,135.915 95.306,140.153 98.077,140.153L235.349,140.153C238.12,140.153 240.37,135.915 240.37,130.695Z" style="fill:rgb(0,95,95);"/>
    </g>
    <g transform="matrix(0.96479,0,0,0.60729,25.4902,189.799)">
        <rect x="50.113" y="382.197" width="442.922" height="78.526" style="fill:rgb(0,0,135);"/>
    </g>
    <g transform="matrix(0.999013,0,0,0.830333,0.50264,83.3722)">
        <rect x="344.654" y="352.548" width="214.849" height="182.273" style="fill:rgb(255,255,100);stroke:rgb(0,0,135);stroke-width:7.62px;"/>
    </g>
    <g transform="matrix(1.01209,0,0,1.02511,12.9035,55.0447)">
        <path d="M240.37,130.695C240.37,125.476 236.077,121.238 230.791,121.238L102.636,121.238C97.349,121.238 93.057,125.476 93.057,130.695C93.057,135.915 97.349,140.153 102.636,140.153L230.791,140.153C236.077,140.153 240.37,135.915 240.37,130.695Z" style="fill:rgb(0,95,0);"/>
    </g>
</svg>
